<?xml version="1.0" standalone="no"?>
<!DOCTYPE svg PUBLIC "-//W3C//DTD SVG 1.1//EN" "http://www.w3.org/Graphics/SVG/1.1/DTD/svg11.dtd" >
<svg xmlns="http://www.w3.org/2000/svg" xmlns:xlink="http://www.w3.org/1999/xlink" version="1.1">
<metadata></metadata>
<defs>
<font id="hsbombaram2.0regular" horiz-adv-x="900" >
<font-face units-per-em="1000" ascent="800" descent="-200" />
<missing-glyph horiz-adv-x="280" />
<glyph horiz-adv-x="0" />
<glyph horiz-adv-x="333" />
<glyph horiz-adv-x="280" />
<glyph unicode=" "  horiz-adv-x="280" />
<glyph unicode="&#x09;" horiz-adv-x="280" />
<glyph unicode="&#xa0;" horiz-adv-x="280" />
<glyph horiz-adv-x="280" />
<glyph horiz-adv-x="280" />
<glyph horiz-adv-x="280" />
<glyph horiz-adv-x="280" />
<glyph horiz-adv-x="280" />
<glyph horiz-adv-x="280" />
<glyph horiz-adv-x="280" />
<glyph horiz-adv-x="280" />
<glyph horiz-adv-x="280" />
<glyph horiz-adv-x="280" />
<glyph horiz-adv-x="280" />
<glyph horiz-adv-x="280" />
<glyph horiz-adv-x="280" />
<glyph horiz-adv-x="280" />
<glyph horiz-adv-x="280" />
<glyph horiz-adv-x="280" />
<glyph horiz-adv-x="280" />
<glyph horiz-adv-x="280" />
<glyph unicode="&#xd;" horiz-adv-x="280" />
<glyph horiz-adv-x="280" />
<glyph horiz-adv-x="280" />
<glyph unicode="&#xa;" horiz-adv-x="280" />
<glyph unicode="&#x9;" horiz-adv-x="280" />
<glyph horiz-adv-x="280" />
<glyph horiz-adv-x="280" />
<glyph horiz-adv-x="280" />
<glyph horiz-adv-x="280" />
<glyph horiz-adv-x="280" />
<glyph horiz-adv-x="280" />
<glyph horiz-adv-x="280" />
<glyph unicode="!" horiz-adv-x="380" d="M49 52q0 35 24.5 60t59.5 25t60 -25t25 -60t-25 -59.5t-60 -24.5t-59.5 24.5t-24.5 59.5zM154 191q-16 0 -18 10.5t3 27.5l80 444q3 19 13.5 36t25.5 29.5t33.5 19.5t37.5 7t35.5 -12.5t26.5 -32.5t10.5 -45.5t-12.5 -51.5l-194 -394q-5 -17 -14.5 -27.5t-25.5 -10.5h-1z " />
<glyph unicode="&#x22;" horiz-adv-x="430" d="M208 796v-144q-2 -26 -8 -45q-5 -17 -14.5 -30.5t-26.5 -13.5t-26.5 13.5t-14.5 30.5q-6 19 -8 45v144h49h49zM348 796v-144q-2 -26 -8 -45q-5 -17 -14.5 -30.5t-26.5 -13.5t-26.5 13.5t-14.5 30.5q-6 19 -8 45v144h49h49z" />
<glyph unicode="#" horiz-adv-x="735" d="M645 687l-37 -251h81v-19h-84l-29 -200h85v-19h-88l-38 -253h-156l38 253h-104l-38 -253h-156l38 253h-84v19h87l29 200h-88v19h91l37 251h156l-37 -251h104l37 251h156zM420 217l29 200h-104l-29 -200h104z" />
<glyph unicode="$" horiz-adv-x="606" d="M583 137q0 -32 -17.5 -58.5t-46.5 -47.5t-66 -36.5t-75 -24.5v-88h-144v4l-5 1l5 54v14q-5 -1 -8.5 -0.5t-7.5 0.5q-25 2 -46.5 6t-42 9.5t-41 13.5t-42.5 19l19 44q37 -23 73.5 -34t87.5 -15q2 -1 4 -0.5t4 0.5v352q-36 15 -77 30.5t-74 38t-53.5 54t-15.5 79.5 q4 43 24.5 71.5t51.5 45.5t68.5 25t75.5 11v52h78v1l6 -1h60v-53q36 -5 66.5 -12.5t63.5 -20.5l-17 -43q-26 14 -51.5 21t-61.5 12v-307q36 -13 72.5 -24.5t66 -33t48 -58.5t18.5 -101zM183 534q-7 -78 51 -126v242q-30 -16 -38.5 -45.5t-12.5 -70.5zM425 142q1 13 2 29 t-2.5 33t-14 34t-32.5 33v-232q41 38 47 103z" />
<glyph unicode="%" horiz-adv-x="1090" d="M386 666q51 -20 83 -59t32 -87q0 -34 -16.5 -64t-45.5 -52.5t-67.5 -35.5t-82.5 -13t-82.5 13t-67.5 35.5t-45.5 52.5t-16.5 64q0 48 32 87t83 59q43 18 97 18q53 0 97 -18zM289 391q25 0 41 10t25.5 27.5t13.5 41t4 50.5t-4 50t-13.5 40.5t-25.5 27.5t-41 10t-41.5 -10 t-26 -27.5t-13.5 -40.5t-4 -50t4 -50.5t13.5 -41t26 -27.5t41.5 -10zM911 296q52 -20 83.5 -59.5t31.5 -87.5q0 -34 -16.5 -64t-45.5 -52.5t-67.5 -35.5t-82.5 -13t-82 13t-67 35.5t-45.5 52.5t-16.5 64q0 48 32 87.5t83 59.5q43 18 96 18t97 -18zM814 21q25 0 41.5 10 t26 27.5t13.5 41t4 49.5q0 27 -4 50.5t-13.5 41t-26 27.5t-41.5 10q-24 0 -40.5 -10t-26 -27.5t-13.5 -41t-4 -50.5q0 -26 4 -49.5t13.5 -41t26 -27.5t40.5 -10zM449 -35h-156l366 742h156z" />
<glyph unicode="&#x26;" horiz-adv-x="737" d="M581 210q15 -17 42 -46.5t56.5 -62t56.5 -62.5t42 -46h-182q-2 1 -14 13.5t-27.5 29t-30.5 33.5t-24 27q-43 -54 -90.5 -89.5t-106.5 -35.5q-57 0 -105.5 16.5t-84 44t-55 64.5t-19.5 79q0 37 15.5 70.5t44 61.5t68.5 50.5t88 38.5q-14 8 -36 20.5t-42 33t-34.5 52 t-14.5 78.5q0 32 17 60.5t46.5 50.5t69.5 34.5t86 12.5q39 0 77 -12t68 -33.5t48.5 -50.5t18.5 -63q0 -51 -23 -83t-51 -50q-33 -21 -74 -31q22 -30 48 -62q22 -28 49 -61.5t56 -66.5q19 27 28.5 54t13 55.5t3 60.5t-0.5 68h23v-72t-4 -63t-14.5 -59t-31.5 -59zM249 579 q-1 -20 0 -42.5t6 -44.5t15 -42.5t27 -36.5q28 9 45.5 16t29 13t17.5 10.5t11 9.5q25 24 30.5 56.5t5.5 60.5q0 61 -21.5 97t-70.5 36q-23 0 -40 -12t-29 -30.5t-18.5 -42.5t-7.5 -48zM315 10q29 0 52.5 7.5t43 21t37 32t34.5 41.5q-30 33 -54 64t-46.5 62t-46.5 61.5 t-54 63.5q-26 -8 -44.5 -26t-30 -42.5t-17 -54t-5.5 -59.5q0 -35 10 -66t27 -54t41 -37t53 -14z" />
<glyph unicode="'" horiz-adv-x="233" d="M170 796v-144q-2 -26 -8 -45q-5 -17 -14.5 -30.5t-26.5 -13.5t-26.5 13.5t-14.5 30.5q-6 19 -8 45v144h49h49z" />
<glyph unicode="(" horiz-adv-x="363" d="M359 766q-43 -55 -80 -104.5t-63 -99t-40.5 -103t-14.5 -117.5t14.5 -117.5t40.5 -103t63 -98.5t80 -105h-94q-70 52 -118 103.5t-75.5 104t-45 106.5t-17.5 110q0 57 17.5 110.5t45 106t75.5 104.5t98 103h114z" />
<glyph unicode=")" horiz-adv-x="363" d="M123 766q50 -51 98 -103t75.5 -104.5t45 -106t17.5 -110.5q0 -56 -17.5 -110t-45 -106.5t-75.5 -104t-118 -103.5h-94q43 56 80 105t63 98.5t40.5 103t14.5 117.5t-14.5 117.5t-40.5 103t-63 99t-80 104.5h114z" />
<glyph unicode="*" horiz-adv-x="546" d="M520 410v-20h-158l118 -177h-156l-46 69l-46 -69h-156l118 177h-158v20h157l-117 177h156l46 -70l46 70h156l-118 -177h158z" />
<glyph unicode="+" horiz-adv-x="654" d="M609 412v-50h-199v-259h-156v259h-201v50h201v229h156v-229h199z" />
<glyph unicode="," horiz-adv-x="319" d="M250 67v-1q-1 -46 -14 -73.5t-30 -42.5q-19 -18 -43 -25v56v1q-35 0 -59.5 25t-24.5 60t25 60t61 25q35 0 59.5 -24t25.5 -59v-1v-1z" />
<glyph unicode="-" horiz-adv-x="607" d="M572 364h-536v49h536v-49z" />
<glyph unicode="." horiz-adv-x="303" d="M235 70q0 -18 -6.5 -33.5t-18.5 -27t-27.5 -18.5t-33.5 -7t-33.5 7t-27 18.5t-18 27t-6.5 33.5q0 35 25 60t60 25q36 0 61 -25t25 -60z" />
<glyph unicode="/" horiz-adv-x="435" d="M276 706h138l-297 -807h-138z" />
<glyph unicode="0" horiz-adv-x="661" d="M334 717q58 0 110 -30t90 -81.5t60.5 -120.5t22.5 -148t-22.5 -148t-60.5 -120.5t-90 -81.5t-110 -30q-59 0 -110.5 30t-90 81.5t-61 120.5t-22.5 148t22.5 148t61 120.5t90 81.5t110.5 30zM334 -17q19 0 36.5 28t30.5 76.5t20.5 113t7.5 136.5t-7.5 136.5t-20.5 113 t-30.5 76.5t-36.5 28q-20 0 -37.5 -28t-30.5 -76.5t-20.5 -113t-7.5 -136.5t7.5 -136.5t20.5 -113t30.5 -76.5t37.5 -28z" />
<glyph unicode="1" horiz-adv-x="431" d="M85 661l251 60v-759h-188v680h-63v19z" />
<glyph unicode="2" horiz-adv-x="606" d="M377 161l-145 -179h333v-22h-530v36l151 180q82 100 129.5 181t47.5 151q0 33 -5 63t-18.5 52.5t-38.5 36t-65 13.5t-86 -13t-85 -35l-5 27q56 26 94.5 36t77.5 10q37 0 75.5 -2.5t74.5 -10t67.5 -22.5t55.5 -40q19 -20 33.5 -52t14.5 -64q0 -22 -7.5 -48.5t-20 -55 t-28.5 -57.5t-32 -56q-39 -63 -88 -129z" />
<glyph unicode="3" horiz-adv-x="606" d="M404 350q39 -1 70.5 -16t53 -39.5t33.5 -56.5t12 -67q0 -48 -17 -82.5t-45.5 -59t-66 -39.5t-77.5 -23.5t-80 -11t-75 -1.5q-54 1 -93.5 6.5t-79.5 18.5l6 40q42 -17 81.5 -21.5t89.5 -5.5q85 -2 130 43.5t45 141.5q0 36 -8 64t-31 48t-64.5 30.5t-108.5 10.5h-51v38h4 q46 0 92.5 5t83.5 21.5t59.5 48.5t21.5 86q0 77 -37.5 112t-115.5 35q-34 0 -77 -8t-81 -23l-6 39q45 15 85.5 22.5t85.5 7.5q30 0 66 -3t72.5 -10.5t70.5 -20.5t60.5 -33.5t42.5 -49.5t16 -68q0 -38 -13.5 -69t-37 -53.5t-53.5 -37t-63 -19.5z" />
<glyph unicode="4" horiz-adv-x="665" d="M558 152h79v-26h-79v-174h-142v174h-373v36l363 550h152v-560zM416 152v321l-216 -321h216z" />
<glyph unicode="5" horiz-adv-x="606" d="M239 422q50 -1 107 -8t105.5 -29.5t80.5 -64.5t32 -112q0 -77 -34 -125.5t-87 -76.5t-117 -38t-124 -10q-45 0 -78 5t-68 17v34q36 -17 70 -22.5t76 -5.5q53 0 87.5 16.5t55 45t29 66.5t8.5 80q0 31 -7.5 64.5t-29 61.5t-61 46t-102.5 18q-21 0 -50 -9t-56 -20 q-5 -3 -10 -5t-8 -4q-4 -2 -7 -3v324v19v14h456v-28h-314v-251z" />
<glyph unicode="6" horiz-adv-x="649" d="M357 686q-41 1 -71 -10t-51.5 -29.5t-35.5 -42t-22 -48.5q-19 -58 -17 -133q32 28 75.5 46t101.5 18q93 0 151 -26.5t89.5 -68t40.5 -91t4 -95.5q-6 -53 -32 -100t-66.5 -82t-91.5 -55t-106 -20q-54 0 -107.5 22t-95.5 66.5t-68 110.5t-26 155q0 87 18 161.5t58 129 t104 85.5t156 31q26 0 54.5 -4t52.5 -11l-6 -26q-23 8 -51.5 12t-57.5 5zM328 -13q41 0 68.5 16.5t44 44.5t23 65t6.5 78q0 42 -2 87.5t-14.5 83.5t-39.5 62.5t-76 24.5q-44 0 -72.5 -24t-44.5 -60.5t-21.5 -80.5t-3.5 -84t7.5 -78t19.5 -68t39 -48.5t66 -18.5z" />
<glyph unicode="7" horiz-adv-x="545" d="M431 701h81l-240 -749h-188l234 731h-273v18h279h107z" />
<glyph unicode="8" horiz-adv-x="636" d="M363 346q38 -8 82.5 -18.5t83 -31t64 -55t25.5 -91.5t-29.5 -95t-74.5 -61t-97.5 -33t-97.5 -10t-97.5 10t-97.5 33t-74.5 61t-29.5 95q0 38 12 65.5t32 47.5t46 33.5t54.5 22.5t57 15t53.5 12q-40 10 -81 21t-74.5 31t-55 53t-21.5 87t29 87.5t71 53t90 26.5t86 7t86 -7 t90 -26.5t71 -53t29 -87.5t-21 -87t-54.5 -53t-75 -31t-81.5 -21zM195 532q0 -31 9 -59.5t25.5 -51.5t39.5 -40t50 -25q27 8 49.5 25t39 40t26 51.5t9.5 59.5q0 34 -7.5 63.5t-23 51.5t-39 34.5t-54.5 12.5q-32 0 -55 -12.5t-38.5 -34.5t-23 -51.5t-7.5 -63.5zM319 -31 q33 0 60 14.5t46.5 39t30 57t10.5 68.5q0 77 -37.5 121.5t-109.5 64.5q-72 -20 -109.5 -64.5t-37.5 -121.5q0 -36 10.5 -68.5t30 -57t46.5 -39t60 -14.5z" />
<glyph unicode="9" horiz-adv-x="635" d="M284 -27q40 -1 70.5 10t52 29.5t35.5 42t22 48.5q19 58 17 133q-32 -28 -75.5 -46t-101.5 -18q-93 0 -151 26.5t-89.5 67.5t-40.5 90.5t-4 96.5q6 53 32 100t66.5 82t91.5 55t106 20q54 0 107.5 -22t95.5 -66.5t68 -111t26 -154.5q0 -87 -18 -161.5t-58 -129t-104 -85.5 t-156 -31q-26 0 -54.5 4t-52.5 11l6 26q23 -8 51.5 -12t57.5 -5zM313 672q-41 0 -68.5 -16.5t-44 -44.5t-23 -65t-6.5 -78q0 -42 2 -87.5t14.5 -83.5t39 -62.5t76.5 -24.5q44 0 72.5 24t44.5 60.5t21.5 80.5t3.5 84t-7.5 78t-19.5 68t-39 48.5t-66 18.5z" />
<glyph unicode=":" horiz-adv-x="303" d="M250 541q0 -18 -6.5 -33.5t-18 -27t-27 -18.5t-33.5 -7t-33.5 7t-27 18.5t-18.5 27t-7 33.5t7 33.5t18.5 27t27 18t33.5 6.5q35 0 60 -25t25 -60zM250 210q0 -18 -6.5 -33.5t-18 -27t-27 -18.5t-33.5 -7t-33.5 7t-27 18.5t-18.5 27t-7 33.5t7 33.5t18.5 27t27 18 t33.5 6.5q35 0 60 -25t25 -60z" />
<glyph unicode=";" horiz-adv-x="303" d="M249 544q0 -18 -6.5 -33.5t-18 -27t-27 -18.5t-33.5 -7t-33.5 7t-27 18.5t-18.5 27t-7 33.5t7 33.5t18.5 27t27 18t33.5 6.5q35 0 60 -25t25 -60zM249 211q-1 -46 -14 -73t-30 -42q-19 -18 -43 -25v56q-17 0 -32.5 7t-27 18.5t-18 27t-6.5 33.5t7 33.5t18.5 27t27 18 t33.5 6.5q35 0 59.5 -24.5t25.5 -59.5v-1v-2z" />
<glyph unicode="&#x3c;" horiz-adv-x="331" d="M313 771l-187 -440l187 -441h-63l-187 441l187 440h63z" />
<glyph unicode="=" horiz-adv-x="654" d="M590 427h-536v19h536v-19zM590 157h-536v19h536v-19z" />
<glyph unicode="&#x3e;" horiz-adv-x="317" d="M229 329l-187 441h63l187 -441l-187 -440h-63z" />
<glyph unicode="?" horiz-adv-x="514" d="M180 59q0 30 13.5 49.5t34 29.5t44 10t44 -10t34 -29.5t13.5 -49.5q0 -29 -13.5 -48.5t-34 -29.5t-44 -10t-44 10t-34 29.5t-13.5 48.5zM419 713q18 -14 17 -13t-7.5 6t-12 9.5t2.5 -2.5q44 -36 64.5 -72t22 -70.5t-14 -66.5t-42.5 -59q-16 -16 -39.5 -35t-47 -39.5 t-42 -43t-24.5 -45.5q-3 -13 -3.5 -29t-2.5 -30.5t-7.5 -24t-18.5 -9.5q-20 0 -25 28.5t-0.5 66.5t15 75t20.5 55q16 30 35 58.5t33 58.5t18.5 63.5t-7.5 73.5q-6 20 -23.5 31t-39.5 14.5t-45 0t-40 -12t-24.5 -21t1.5 -26.5q15 -23 18.5 -50t-2 -52.5t-18 -47.5t-30 -34.5 t-39 -13t-44.5 16.5q-32 23 -36 58t9.5 71t39.5 68t54 50q35 22 72 33.5t73.5 11t72 -13t67.5 -38.5z" />
<glyph unicode="@" horiz-adv-x="1075" d="M999 141q-24 -50 -77.5 -85t-145.5 -43q-48 -3 -79.5 16.5t-50.5 43.5q-22 28 -34 65q-51 -52 -110 -63.5t-109.5 11t-84.5 77t-34 135.5q0 56 14.5 96.5t37.5 69t50 45.5t52.5 26.5t45 13t26.5 3.5q42 0 68.5 -7.5t42.5 -16.5q18 -11 28 -24q1 23 8 41q5 16 17 29t33 13 h49v-476q0 -25 7.5 -35.5t20 -10.5t28 8.5t30.5 21t28 26t22 23.5q26 30 31 72.5t5 96.5q0 75 -27.5 144.5t-77.5 123t-120 86t-154 32.5q-85 0 -153 -32.5t-116 -86.5t-74 -123.5t-26 -143.5q0 -75 26 -144.5t74 -123.5t116 -86.5t153 -32.5q16 0 35 2t38 6t37 8t33 9 l35 -49q-43 -15 -87.5 -22t-90.5 -7q-103 0 -195 34q-45 17 -84.5 40.5t-74.5 53.5t-61.5 65.5t-45.5 74.5q-39 81 -39 172q0 44 9.5 87t29.5 83q38 80 107 140q35 31 74.5 54t84.5 40q47 17 95.5 26.5t99.5 9.5t99.5 -9.5t94.5 -26.5q91 -33 159 -94q69 -60 107 -140 q40 -82 40 -170q0 -92 -40 -172zM613 463q-55 5 -97 -8q-18 -6 -35.5 -16t-31 -27t-22 -41.5t-8.5 -57.5q0 -59 18.5 -98t47 -55.5t62.5 -10t66 38.5v275z" />
<glyph unicode="A" horiz-adv-x="725" d="M403 208l-116 285l-113 -286zM371 769l293 -739q2 -5 8.5 -14t17.5 -18t27.5 -15.5t39.5 -6.5v-40h-241l-95 227h-264l-90 -227h-39l314 833h29z" />
<glyph unicode="B" horiz-adv-x="846" d="M613 372q31 -13 60 -33t51 -46.5t35 -58.5t13 -69q0 -62 -31 -105t-79.5 -71t-109 -40.5t-119.5 -12.5h-301v834h286q51 0 99.5 -18t87 -49t63.5 -71t30 -84.5t-14.5 -89.5t-70.5 -86zM297 -25q100 0 164 10.5t100 33.5t49.5 59t13.5 87q0 46 -30.5 78.5t-74.5 53t-93 30 t-86 9.5v42q45 4 83 16t66 31.5t43.5 47.5t15.5 65q0 16 -0.5 37t-6 42.5t-20 42t-42 36.5t-72 26t-110.5 10v-757z" />
<glyph unicode="C" horiz-adv-x="842" d="M626 735q36 -16 62 -39t53 -53q20 -23 29.5 -48.5t13.5 -47.5q4 -26 4 -51h-41q-21 49 -47.5 91.5t-59.5 74t-73.5 49.5t-90.5 18q-47 0 -87.5 -32t-71.5 -84.5t-48.5 -120.5t-17.5 -140q0 -76 17.5 -144t48.5 -119.5t71.5 -82t87.5 -30.5q56 0 96 9t71 26.5t56.5 41.5 t53.5 54l28 -28q-8 -11 -17 -20q-29 -29 -61 -51.5t-68 -38.5q-77 -33 -159 -33q-83 0 -159 33q-36 16 -68 38.5t-61 51.5q-55 57 -86 132t-31 161t31 161q30 74 86 132q57 58 129 90q76 33 159 33q42 0 77 -8t73 -25z" />
<glyph unicode="D" horiz-adv-x="913" d="M720 645q56 -58 86 -132q32 -78 32 -161t-32 -161q-31 -75 -86 -132q-28 -29 -60 -51.5t-69 -38.5q-75 -33 -158 -33h-319l1 832h318q83 0 158 -33q73 -32 129 -90zM433 -23q46 0 87 30t72 81.5t48.5 119.5t17.5 144q0 72 -17.5 140t-48.5 120.5t-72 84t-87 31.5h-134 v-752h36.5t30.5 0.5t30.5 0.5h36.5z" />
<glyph unicode="E" horiz-adv-x="827" d="M618 -24q13 0 24 9t20 24t16 34t12 39q12 47 19 106h42q0 -63 -6.5 -106t-17.5 -71t-24.5 -43.5t-28.5 -22.5t-29.5 -8t-26.5 -1h-490v832h490q39 0 57.5 -23t25.5 -50q8 -32 6 -72h-41q0 33 -6.5 54t-14.5 32q-9 13 -20 19h-312v-352h306v-40h-306v-360h305v0z" />
<glyph unicode="F" horiz-adv-x="706" d="M581 768q39 0 57.5 -23t25.5 -50q8 -32 6 -72h-42v3q0 34 -7.5 54t-16.5 31q-11 12 -23 17h-305v-332h280v-50h-280v-410h-185v832h490v0z" />
<glyph unicode="G" horiz-adv-x="927" d="M603 270q0 19 10.5 33.5t27 24.5t38 16.5t44.5 9.5q53 8 120 5v-41h-3q-17 -1 -27 -6.5t-15.5 -13t-7.5 -15t-2 -13.5v-191q-8 -12 -18 -20q-28 -29 -60 -51.5t-68 -38.5q-77 -33 -159 -33q-84 0 -159 33q-72 32 -129 90q-55 57 -86 132t-31 161t31 161q30 74 86 132 q28 29 60.5 51.5t68.5 38.5q75 33 159 33q45 0 99.5 -13.5t101.5 -45t79 -83.5t32 -130h-41q-21 49 -47.5 91.5t-59.5 74t-73.5 49.5t-90.5 18q-47 0 -87.5 -32t-71.5 -84.5t-48.5 -120.5t-17.5 -140q0 -76 17.5 -144t48.5 -119.5t71.5 -82t87.5 -30.5q26 0 57 4.5t63 15.5 v274v0z" />
<glyph unicode="H" horiz-adv-x="932" d="M812 19q0 -23 16 -34.5t39 -13.5v-41q-7 -1 -16 -1h-17.5t-21.5 1v-1l-1 1q-27 1 -59 4.5t-59.5 13.5t-46.5 27t-19 44v311h-304v-401h-185v842h185v-402h304v402h185v-752v0z" />
<glyph unicode="I" horiz-adv-x="420" d="M294 18q0 -23 16 -34.5t39 -13.5v-40q-15 -2 -39 -3t-50.5 1.5t-53.5 9t-48.5 19.5t-35 33t-13.5 49v732h185v-753v0z" />
<glyph unicode="J" horiz-adv-x="377" d="M106 771h185v-930q0 -25 -10.5 -44.5t-27 -34.5t-38.5 -25t-44 -17q-53 -17 -120 -20h-86v41h86h3q16 1 26.5 14.5t16 31t7.5 33.5t2 21v930z" />
<glyph unicode="K" horiz-adv-x="838" d="M387 408q55 -53 98.5 -99.5t82 -89.5t75 -83t77.5 -80q11 -11 26.5 -25t30.5 -28l36 -32v-41h-115q-19 0 -35 4.5t-35.5 16.5t-44.5 34t-61 57.5t-86.5 86t-119.5 120.5v-320h-185v831l194 1l1 -354q91 95 153.5 162t104.5 110t69 62.5t48 19.5h48v-41q-17 0 -32 -1 q-13 -1 -25 -3t-17 -6l-288 -302v0z" />
<glyph unicode="L" horiz-adv-x="694" d="M308 761v-791h371v-41h-556v832h185v0z" />
<glyph unicode="M" horiz-adv-x="1158" d="M1017 19q0 -6 2 -13.5t7.5 -15t15.5 -13t27 -6.5h3v-41q-10 -1 -28 -1h-108q-38 0 -59 20t-31 44q-11 28 -14 65v474l-218 -601l1 -2h-2h-163l-236 651v-651h-41v831l160 1l271 -735l265 735h3h145v-742v0z" />
<glyph unicode="N" horiz-adv-x="872" d="M743 19q0 -13 7 -22t17 -14.5t22.5 -8.5t24.5 -3v-41h-92q-42 0 -71 10.5t-46 24.5q-20 16 -32 36l-379 622v-694h-62v842h214l340 -572v572h57v-752v0z" />
<glyph unicode="O" horiz-adv-x="1000" d="M812 639q61 -59 92 -132q35 -79 35 -161q0 -83 -35 -162q-31 -73 -92 -132q-60 -57 -139 -90q-81 -33 -171 -33q-89 0 -170 33q-79 33 -139 90q-61 59 -92 132q-35 79 -35 162q0 82 35 161q31 73 92 132q60 57 139 90q81 33 170 33q90 0 171 -33q79 -33 139 -90zM502 -31 q51 0 95 30.5t77 82t52 120t19 144.5q0 72 -19 139.5t-52 120t-77 84.5t-95 32q-50 0 -94 -32t-77 -84.5t-52 -120t-19 -139.5q0 -76 19 -144.5t52 -120t77 -82t94 -30.5z" />
<glyph unicode="P" horiz-adv-x="749" d="M437 763q134 0 206.5 -60.5t72.5 -191.5q0 -84 -33 -139.5t-88 -87.5t-127.5 -44t-151.5 -9v-302h-185v832zM316 274q36 1 79.5 10t81.5 35t64 72t26 120q0 111 -63 164.5t-188 46.5v-448z" />
<glyph unicode="Q" horiz-adv-x="938" d="M700 -152q-38 0 -64.5 11.5t-43.5 27.5t-27 33t-16 28q-40 -8 -77 -8q-80 0 -153.5 33t-129.5 89.5t-89.5 132t-33.5 161.5q0 83 31.5 158t86.5 132t129 91t159 36q83 -2 156.5 -35.5t129 -90t87.5 -131.5t32 -160q0 -96 -42 -182t-118 -149q31 -50 52.5 -77t34.5 -40 t19.5 -15.5t9.5 -2.5v-41l-130 -1h-3zM472 -20q39 0 71 18.5t57 49t43.5 70t30 81t17.5 82.5t6 75q0 72 -17.5 140t-48.5 120.5t-72 84.5t-87 32q-47 0 -88 -32t-72 -84.5t-48.5 -120.5t-17.5 -140q0 -75 17.5 -143.5t48.5 -120t72 -82t88 -30.5z" />
<glyph unicode="R" horiz-adv-x="852" d="M348 360q34 1 74 12.5t74.5 34.5t57.5 58.5t23 85.5q0 58 -27 92.5t-67 52.5t-85 23.5t-82 5.5v-786h-186v832l306 2q49 0 98.5 -15.5t90 -45.5t66 -73t25.5 -98q0 -39 -14.5 -73.5t-39.5 -62.5t-58.5 -48t-71.5 -31q34 -61 60 -106t45.5 -79t34.5 -58.5t28 -43.5 q14 -24 29 -35.5t28 -16.5q15 -5 29 -5h36v-41l-156 -1q-38 0 -64 10.5t-42 24.5q-18 16 -29 36z" />
<glyph unicode="S" horiz-adv-x="685" d="M358 -79q-36 0 -85.5 7.5t-94.5 26.5t-77 51t-34 80v146h39q4 -67 29 -121.5t64.5 -91t91 -51t110.5 -0.5q27 8 47 34t29 59t4.5 67t-25.5 59q-8 9 -20 19t-37.5 27t-69 43.5t-113.5 68.5q-31 18 -58 40t-47.5 49t-32 60t-11.5 72q0 50 20.5 91t55 70t79.5 45t95 16 q36 0 83 -8t89.5 -26.5t72.5 -50t32 -77.5v-147h-41q-6 34 -14 68.5t-18.5 64.5t-22.5 52.5t-25 34.5q-17 15 -44 27t-57.5 17.5t-61.5 4.5t-56 -11t-40.5 -30.5t-15.5 -52.5t14.5 -59t34.5 -48.5t40.5 -36.5t33.5 -22q36 -21 80.5 -44t86.5 -51t76.5 -62t50.5 -77 q20 -68 9 -128t-46.5 -105.5t-92 -72t-127.5 -27.5z" />
<glyph unicode="T" horiz-adv-x="695" d="M461 730v-790h-185v790h-166q-5 0 -13 -2t-15.5 -7.5t-13 -16t-6.5 -26.5v-3h-41q-3 27 5 48q7 18 26 33.5t58 15.5h576v-42h-225z" />
<glyph unicode="U" horiz-adv-x="832" d="M741 280q0 -67 -17.5 -129t-52.5 -110t-88.5 -76.5t-126.5 -28.5q-71 0 -133 27t-108 74t-73.5 109.5t-29.5 133.5v401q0 23 -16 34.5t-39 13.5v41q67 3 120 -5q22 -3 44 -9.5t38.5 -16.5t27 -24.5t10.5 -33.5v-401q0 -33 13.5 -71.5t40.5 -71.5t66.5 -55t91.5 -22 q54 0 91 22t59.5 55t32 71.5t9.5 71.5v493h40v-493v0z" />
<glyph unicode="V" horiz-adv-x="846" d="M785 771h47l-381 -835h-40l-326 738q-2 5 -6.5 13.5t-13 17.5t-20.5 16t-28 8h-3v41q57 4 108 -3q22 -3 44.5 -9.5t43 -16.5t37.5 -24.5t29 -35.5l227 -510z" />
<glyph unicode="W" horiz-adv-x="1234" d="M1164 771h47l-285 -835h-70l-226 514l-143 -514h-70l-326 738q-11 22 -27.5 37t-43.5 17v42q57 5 108 -3q22 -3 44 -9.5t42.5 -17t37.5 -25t29 -35.5l221 -513l99 347l-70 160q-11 22 -28 37t-44 17v42q33 3 70.5 1t73.5 -11.5t67 -28.5t51 -51l232 -514z" />
<glyph unicode="X" horiz-adv-x="831" d="M812 771l-311 -390l311 -445h-122h-70l-222 318l-254 -318h-64l294 362l-238 332q-5 8 -17 24.5t-27 33t-30.5 28.5t-28.5 12h-3v42q57 5 108 -3q22 -3 44.5 -9.5t43 -17t37.5 -25t29 -35.5l186 -243l272 334h62z" />
<glyph unicode="Y" horiz-adv-x="860" d="M823 770l-296 -452v-382h-185v321q-78 138 -130 229t-85 144.5t-51.5 75.5t-31.5 22h-3v41q57 5 108 -4q22 -4 44.5 -11.5t43 -20t37.5 -30.5t29 -43l186 -303l276 413h58z" />
<glyph unicode="Z" horiz-adv-x="698" d="M219 -20h445v-42h-633v53l427 736h-327q-5 0 -14.5 -4.5t-18.5 -15.5t-16.5 -31t-8.5 -51v-3h-41q-3 40 5 72q3 13 9 26.5t15.5 24t23.5 17t33 7.5h549z" />
<glyph unicode="[" horiz-adv-x="363" d="M346 786h-75v-919h75v-19h-75h-35h-121v957h121h35h75v-19z" />
<glyph unicode="\" horiz-adv-x="966" d="M815 381h101v-19h-104l-64 -411h-138h-18h-1l-62 411h-71l-64 -411h-137h-19v0l-62 411h-113v19h110l-41 274h19l41 -274h113l43 274h137h19l41 -274h114l43 274h156zM247 13l55 349h-107zM461 381h65l-32 212zM601 10l55 352h-108z" />
<glyph unicode="]" horiz-adv-x="363" d="M139 -134v919h-75v19h75h35h121v-957h-121h-35h-75v19h75z" />
<glyph unicode="^" horiz-adv-x="682" d="M642 233h-133l-147 300l-147 -300h-203l225 459h46h87h46z" />
<glyph unicode="_" horiz-adv-x="545" d="M6 25h536v-44h-536v44z" />
<glyph unicode="`" horiz-adv-x="242" d="M32 723v1q1 35 25.5 59.5t59.5 24.5q18 0 33.5 -7t27 -18.5t18.5 -27t7 -33.5q0 -35 -25 -59.5t-60 -25.5h1v-57q-24 7 -43 25q-17 15 -30.5 42.5t-13.5 73.5v1v1z" />
<glyph unicode="a" horiz-adv-x="646" d="M299 543q65 0 110 -8t75 -21.5t47 -30.5t25 -35t10 -35.5t2 -31.5v-444h-131l-23 56q-35 -27 -78.5 -41.5t-85.5 -14.5q-39 0 -75.5 11.5t-64.5 34.5t-45 57.5t-17 80.5q0 48 28 80.5t69.5 53.5t90 33t89.5 18t67 8.5t24 5.5v61q-3 31 -18 57q-13 21 -39 39t-74 18 q-40 0 -64.5 -12t-38.5 -27.5t-19 -31.5t-6 -24h-77q0 11 2 23q2 11 6 24t12 27q9 15 28.5 27.5t46.5 21.5t59 14.5t65 5.5zM221 133q0 -32 9 -56t24 -40t34.5 -24t40.5 -8q22 0 44.5 12t42.5 37v200q2 3 -11 4.5t-35 -1t-48 -9.5t-48.5 -21.5t-37.5 -37.5t-15 -56z" />
<glyph unicode="b" horiz-adv-x="705" d="M92 750h152v-250q24 17 59 30.5t77 13.5q66 0 116 -26.5t84 -70t51.5 -101t17.5 -118.5q0 -66 -20.5 -118.5t-59 -89.5t-93.5 -57t-125 -20q-31 0 -58.5 6.5t-48.5 20.5q-5 -8 -11 -15.5t-12 -18.5h-129v814zM329 477q-27 0 -47.5 -11.5t-37.5 -34.5v-402q11 -20 25 -31 t36 -11q46 0 80 22t56.5 57t34 78t11.5 84q0 40 -7 84t-24.5 80.5t-48 60.5t-78.5 24z" />
<glyph unicode="c" horiz-adv-x="642" d="M368 -64q-59 0 -116 23t-101 64t-71 97t-27 121q0 29 5.5 58t18.5 59q16 40 45 74.5t67 59t83.5 38.5t95.5 14q29 0 59.5 -5t59 -15.5t53.5 -26t43 -36.5l-1 -1q20 -22 25.5 -55t5.5 -58v-23h-59q-17 38 -35.5 70.5t-41 56.5t-49.5 37.5t-60 13.5q-36 0 -63.5 -25.5 t-46 -64.5t-28.5 -85t-10 -86q0 -43 8.5 -89.5t26.5 -85.5t46 -64.5t67 -25.5q26 0 51 2.5t50 10.5t50.5 22.5t52.5 39.5l22 -21q-45 -45 -102.5 -69.5t-123.5 -24.5z" />
<glyph unicode="d" horiz-adv-x="705" d="M470 -32q-17 -13 -45 -19t-63 -6q-65 0 -120 19t-95 55.5t-62 89.5t-22 121q0 59 16 116t49 101.5t84 71.5t121 27q43 0 77.5 -14t58.5 -31v251h151v-814h-128zM472 456q-41 31 -74.5 36.5t-61 -8t-48 -41.5t-34.5 -64t-21 -75.5t-7 -75.5q0 -41 10.5 -83.5t33 -77.5 t57 -57t82.5 -22q27 0 39.5 15t22.5 41z" />
<glyph unicode="e" horiz-adv-x="725" d="M245 -40q-42 18 -77.5 47.5t-61 66.5t-39.5 79.5t-14 87.5q0 58 24 112.5t66 97t100 68t126 25.5q25 0 58 -4t67.5 -14.5t68 -28.5t60 -46.5t42.5 -69t16 -95.5v-63l-449 -2q8 -118 47 -180t90 -62q21 0 45.5 2.5t50.5 11t52.5 24.5t52.5 43l28 -29q-71 -69 -163.5 -86.5 t-189.5 15.5zM379 504q-64 0 -100 -58.5t-47 -168.5l292 -1q0 68 -14.5 112.5t-36.5 70t-47.5 35.5t-46.5 10z" />
<glyph unicode="f" horiz-adv-x="460" d="M120 473h-91v44h91v101q0 53 12 88.5t32 56.5t46 29.5t54 8.5q31 0 60.5 -7t53.5 -16.5t41.5 -19t25.5 -13.5l-19 -36q-32 19 -50 25.5t-31 6.5q-26 0 -40.5 -21t-21.5 -53.5t-9 -72t-2 -77.5h143v-44h-143v-533h-152v533z" />
<glyph unicode="g" horiz-adv-x="711" d="M70 315q0 51 24 91t61.5 68.5t84.5 45.5t94 22h303v-44h-93q15 -21 31.5 -41.5t30 -42t22.5 -46t9 -53.5q0 -53 -26 -95t-67 -71t-91 -45t-99 -17q-29 0 -48.5 -1t-32.5 -2.5t-21 -4t-14 -6.5q-11 -6 -12.5 -17.5t-1.5 -19.5q0 -22 13.5 -34.5t33 -18.5t42.5 -7.5 t41 -1.5q31 0 69.5 -5t77.5 -15.5t75.5 -27t65 -40.5t46 -55t17.5 -71q0 -59 -36 -102t-89.5 -70.5t-114.5 -41t-111 -13.5q-35 0 -74.5 5.5t-79 17t-75 29.5t-63 43t-44 58t-16.5 74q0 33 13.5 60.5t35.5 52t50.5 47.5t58.5 48q-40 40 -40 68q0 18 4 29.5t12 21.5t20 20.5 t27 27.5q-23 15 -43 34t-36 41.5t-25 48.5t-9 56zM545 -240q0 60 -28.5 99t-71 57.5t-92 17.5t-92 -21t-71 -58.5t-28.5 -94.5q0 -36 14 -70t39.5 -60.5t61 -42.5t77.5 -16q47 0 82.5 16t59.5 42.5t36.5 60.5t12.5 70zM354 500q-26 0 -49 -15t-40 -40.5t-27 -59t-10 -70.5 q0 -36 10 -70t27 -59.5t40 -41t49 -15.5t48.5 15.5t39.5 41t27 59.5t10 70q0 37 -10 70.5t-27 59t-39.5 40.5t-48.5 15z" />
<glyph unicode="h" horiz-adv-x="682" d="M244 814v-287q19 5 51 9t58 4q115 0 178.5 -63t65.5 -178v-358h-152v427q0 59 -31.5 91.5t-77.5 32.5q-26 0 -50.5 -15t-41.5 -47v-493h-151v877h151z" />
<glyph unicode="i" horiz-adv-x="347" d="M256 542v-605h-151v605h151zM180 651q-35 0 -60.5 19t-25.5 47q0 27 25.5 46.5t60.5 19.5q37 0 62.5 -19.5t25.5 -46.5q0 -28 -25.5 -47t-62.5 -19z" />
<glyph unicode="j" horiz-adv-x="311" d="M150 651q-37 0 -62.5 19t-25.5 47q0 27 25.5 46t62.5 19q35 0 60.5 -19t25.5 -46q0 -28 -25.5 -47t-60.5 -19zM226 -82q0 -23 -15 -41t-38.5 -31t-50.5 -22t-51.5 -14.5t-41.5 -7.5t-20 -1v40q15 9 27.5 20t20.5 22t12.5 20.5t4.5 14.5v623l152 1v-624z" />
<glyph unicode="k" horiz-adv-x="636" d="M98 814h150v-477q28 42 55 81.5t56 81.5q13 15 30 26q14 10 33.5 18t42.5 8h132v-31h-25q-21 0 -38.5 -9.5t-43 -38.5t-65.5 -83t-104 -144v-13l156 -217q12 -15 38 -31.5t67 -16.5h25v-31h-142q-23 0 -41 5.5t-31.5 13t-22 14t-10.5 9.5l-112 163v-205h-150v877z" />
<glyph unicode="l" horiz-adv-x="354" d="M41 774v40h221v-877h-151v837h-70z" />
<glyph unicode="m" horiz-adv-x="1058" d="M721 550q121 0 184 -65t65 -186v-359h-163v446q0 59 -29.5 91.5t-71.5 32.5q-34 0 -60 -22t-40 -61q8 -31 10.5 -57.5t2.5 -52.5v-377h-163v446q0 59 -29.5 91.5t-71.5 32.5t-72.5 -32.5t-30.5 -91.5v-449h-152v605h152v-16q16 7 35 12q16 5 37.5 8.5t46.5 3.5 q88 0 157 -58q42 30 88.5 44t104.5 14z" />
<glyph unicode="n" horiz-adv-x="697" d="M365 550q117 0 179.5 -64.5t67.5 -186.5v-359h-161v444q0 59 -29.5 91.5t-72.5 32.5q-44 0 -73 -32.5t-29 -91.5v-447h-153v605h153v-13q23 11 57 16t61 5z" />
<glyph unicode="o" horiz-adv-x="695" d="M352 556q62 0 116.5 -25t95 -67.5t64 -99t23.5 -118.5q0 -60 -23 -116t-63.5 -99.5t-95 -69.5t-117.5 -26q-59 0 -113.5 25t-96 67.5t-66 99t-24.5 119.5q0 60 23.5 116t64 99t95 69t117.5 26zM352 -24q68 0 106 70.5t38 199.5q0 56 -10 105t-28.5 85.5t-45 57.5 t-60.5 21t-60.5 -20.5t-45 -56.5t-28.5 -85t-10 -107q0 -57 10 -106.5t28.5 -85.5t45 -57t60.5 -21z" />
<glyph unicode="p" horiz-adv-x="705" d="M238 511q76 31 148.5 25.5t129.5 -40.5t92 -97.5t35 -146.5q0 -58 -16 -114.5t-49 -101t-84 -72t-120 -27.5q-44 0 -78 14.5t-58 32.5v-253h-152v813h129zM238 26q40 -32 73.5 -38t60.5 7.5t47.5 42t34.5 64.5t21 75.5t7 74.5q0 37 -11 78.5t-33.5 76t-57 57t-80.5 22.5 q-21 0 -35.5 -11.5t-26.5 -31.5v-417z" />
<glyph unicode="q" horiz-adv-x="705" d="M496 544h130v-813h-152v253q-23 -17 -59.5 -32t-75.5 -15q-66 0 -116.5 25.5t-84.5 68.5t-51.5 100.5t-17.5 120.5q0 64 21.5 117t60.5 91t94 58.5t122 20.5q30 0 58 -6.5t49 -20.5zM230 252q0 -33 6.5 -73t19.5 -77.5t33 -67.5t47.5 -43.5t61.5 -6.5t76 45v436 q-34 29 -65 34t-58 -8.5t-49.5 -40.5t-38 -60.5t-24.5 -69.5t-9 -68z" />
<glyph unicode="r" horiz-adv-x="556" d="M374 543q31 0 57.5 -10.5t47.5 -25t34.5 -28t18.5 -19.5l-23 -26q-20 16 -41 28q-18 11 -39 20t-39 9q-17 0 -37.5 -10t-40.5 -28.5t-37 -44.5t-26 -58v-415h-152v606h152v-45q25 20 57 33.5t68 13.5zM533 460h-1q2 3 2.5 3.5t-1.5 -3.5z" />
<glyph unicode="s" horiz-adv-x="573" d="M484 210q48 -45 48 -107q0 -54 -29 -89.5t-74 -54.5t-101 -22.5t-110 6.5t-100 32t-71 55q7 6 9.5 9t4.5 5.5t4.5 5.5t9.5 9q11 -13 34 -27t50.5 -26t56 -19.5t50.5 -7.5q24 0 51.5 14.5t44.5 37t19 50t-25 54.5q-20 19 -51 35t-65.5 31t-69.5 32t-62.5 38t-45 49 t-17.5 65q0 44 21 75t54 51t73.5 29t80.5 9q24 0 51 -1.5t54 -6.5t51.5 -15t44.5 -27q32 -30 35 -55q2 -15 3 -36.5t1 -47.5h-76q-6 29 -16 56t-26.5 48t-40.5 33.5t-57 12.5q-18 0 -35.5 -8t-31 -22t-21.5 -32t-8 -39q0 -30 15.5 -51t41 -37t56.5 -28.5t62.5 -24.5 t59.5 -26t47 -32z" />
<glyph unicode="t" horiz-adv-x="429" d="M247 109q1 -33 8 -59q6 -23 19.5 -41t39.5 -18q12 0 34 10.5t51 25.5l11 -16.5t10 -15.5q-30 -16 -61 -28q-26 -11 -58.5 -19.5t-62.5 -8.5q-28 0 -54 8.5t-45.5 29.5t-31 56.5t-11.5 89.5v373l-68 1v45h68v163h151v-163h128v-45l-128 -1v-387v0z" />
<glyph unicode="u" horiz-adv-x="694" d="M459 544h152v-579h-112l-34 62q-12 -13 -25 -26t-28.5 -23t-35.5 -16.5t-46 -6.5q-72 0 -118 20t-72.5 54t-36.5 80t-10 99v333l93 1q21 0 32 -6t16 -13q6 -8 7 -18v-297q0 -27 3.5 -63t15.5 -68.5t34 -55t60 -22.5q22 0 41 9.5t33 27t22.5 41t8.5 51.5v416z" />
<glyph unicode="v" horiz-adv-x="672" d="M564 533h98l-262 -576h-83q-59 134 -101.5 228t-72.5 157.5t-49 100.5t-32 56.5t-22 25.5t-18 8q3 1 12.5 2t24.5 1q23 0 55 -2.5t63.5 -11.5t59 -25t42.5 -43l119 -264zM21 533v-3t-1 4l2 -1h-1z" />
<glyph unicode="w" horiz-adv-x="1113" d="M991 533h100l-264 -576h-81l-174 388l-57 -125q-32 -69 -61.5 -134t-57.5 -129h-82l-229 513q-3 5 -8 15t-13 19.5t-19 18t-25 10.5q2 1 10.5 2t24.5 1q23 0 55 -2.5t63.5 -11.5t59 -25t42.5 -43l119 -264l131 276q-19 24 -35 43.5t-39 23.5q3 1 11.5 2t23.5 1 q23 0 54.5 -2.5t63 -10.5t58.5 -23.5t41 -41.5l123 -268z" />
<glyph unicode="x" horiz-adv-x="620" d="M591 533l-207 -278l209 -298h-152l-142 203q-40 -51 -79 -100.5t-79 -102.5h-105l209 281q-44 63 -76 109t-54.5 77.5t-37 51t-24 31t-15 17t-10.5 9.5q26 0 57 -1.5t60 -7.5t51.5 -17t32.5 -29l102 -147q4 6 10 13.5t21.5 27.5t45 57.5t80.5 103.5h103z" />
<glyph unicode="y" horiz-adv-x="644" d="M630 532q-64 -150 -109 -254t-75 -173t-47 -108.5t-26 -60t-12 -27.5t-4 -11q-10 -19 -28 -32.5t-41 -23t-49 -15.5t-51 -10v12q26 8 51.5 32t44.5 62l51 138q-54 95 -94 166.5t-69.5 122.5t-49.5 84t-34 52.5t-24 27t-18 7.5h-20v10q8 0 16 1q7 0 13.5 0.5t11.5 0.5 q25 0 59 -3.5t68 -14t63 -30.5t44 -54v-1l108 -190q30 75 59 146t60 146h102z" />
<glyph unicode="z" horiz-adv-x="596" d="M208 5h355v-50h-520v22l323 505h-251q-7 0 -19 -10t-17 -45h-36q1 28 9 51q7 20 20.5 36t39.5 18h427z" />
<glyph unicode="{" horiz-adv-x="383" d="M239 476q0 -29 -2.5 -53t-10 -42.5t-21.5 -32t-38 -22.5q24 -9 38 -22.5t21.5 -32.5t10 -42.5t2.5 -52.5v-176q0 -17 3.5 -37t11.5 -36.5t22.5 -27.5t37.5 -11h53v-38h-179q-36 0 -57.5 15t-33.5 37t-16 46.5t-4 43.5v166q0 21 -2.5 43t-9.5 41t-19.5 34t-31.5 22v56 q19 7 31.5 22t19.5 34t9.5 41t2.5 43v166q0 19 4 43.5t16 46.5t33.5 37t57.5 15h179v-38h-53q-23 0 -37.5 -11t-22.5 -27.5t-11.5 -36.5t-3.5 -37v-176z" />
<glyph unicode="|" horiz-adv-x="274" d="M45 761h183v-919h-183v919z" />
<glyph unicode="}" horiz-adv-x="368" d="M141 176q0 29 2.5 52.5t10 42.5t21.5 32.5t38 22.5q-24 9 -38 22.5t-21.5 32t-10 42.5t-2.5 53v176q0 17 -3.5 37t-11.5 36.5t-23 27.5t-37 11h-53v38h179q36 0 57.5 -15t33.5 -37t16 -46.5t4 -43.5v-166q0 -21 2.5 -43t9.5 -41t19 -34t32 -22v-56q-20 -7 -32 -22 t-19 -34t-9.5 -41t-2.5 -43v-166q0 -19 -4 -43.5t-16 -46.5t-33.5 -37t-57.5 -15h-179v38h53q22 0 37 11t23 27.5t11.5 36.5t3.5 37v176z" />
<glyph unicode="~" horiz-adv-x="803" d="M799 424q-9 -21 -22.5 -56t-34.5 -68.5t-50.5 -58t-70.5 -24.5q-36 0 -62.5 5.5t-50 15t-46.5 22t-52 25.5q-57 27 -94.5 41t-70.5 14q-28 0 -62.5 -21.5t-69.5 -52.5l-34 30q17 18 37 50.5t46.5 63.5t61.5 54t82 23q39 0 71 -8.5t58 -20.5t47 -24t39 -18q35 -14 66 -26 t50 -12q30 0 63.5 19t65.5 49z" />
<glyph unicode="&#xad;" horiz-adv-x="607" d="M572 364h-536v49h536v-49z" />
<glyph unicode="&#x2000;" horiz-adv-x="427" />
<glyph unicode="&#x2001;" horiz-adv-x="854" />
<glyph unicode="&#x2002;" horiz-adv-x="427" />
<glyph unicode="&#x2003;" horiz-adv-x="854" />
<glyph unicode="&#x2004;" horiz-adv-x="284" />
<glyph unicode="&#x2005;" horiz-adv-x="213" />
<glyph unicode="&#x2006;" horiz-adv-x="142" />
<glyph unicode="&#x2007;" horiz-adv-x="142" />
<glyph unicode="&#x2008;" horiz-adv-x="106" />
<glyph unicode="&#x2009;" horiz-adv-x="170" />
<glyph unicode="&#x200a;" horiz-adv-x="47" />
<glyph unicode="&#x2010;" horiz-adv-x="607" d="M572 364h-536v49h536v-49z" />
<glyph unicode="&#x2011;" horiz-adv-x="607" d="M572 364h-536v49h536v-49z" />
<glyph unicode="&#x2012;" horiz-adv-x="607" d="M572 364h-536v49h536v-49z" />
<glyph unicode="&#x2013;" horiz-adv-x="571" d="M536 364h-500v49h500v-49z" />
<glyph unicode="&#x2014;" horiz-adv-x="1071" d="M1036 364h-1000v49h1000v-49z" />
<glyph unicode="&#x202f;" horiz-adv-x="170" />
<glyph unicode="&#x205f;" horiz-adv-x="213" />
<glyph unicode="&#x25fc;" horiz-adv-x="535" d="M0 535h535v-535h-535v535z" />
<glyph unicode="&#xac00;" horiz-adv-x="877" d="M820 478q29 0 49.5 -20.5t20.5 -49.5h-160v-369q0 -32 -24.5 -52t-53.5 -30q-34 -12 -78 -18v823l-55 6q-9 2 -9 10q0 9 10 9h1l209 -20v-326h28q9 17 25.5 27t36.5 10zM478 686q0 -102 -34 -191t-95 -160.5t-144.5 -123t-183.5 -77.5l-12 18q83 40 137 90t87.5 102.5 t49 104.5t21.5 95.5t5 76t-1 46.5h-184l-49 -26l-49 26v19h284l84 39z" />
<glyph unicode="&#xac01;" horiz-adv-x="872" d="M737 50q0 -24 -13 -41.5t-32 -29.5t-41 -20t-41.5 -12.5t-33 -6.5t-14.5 -2v256h-294l-85 -38l-84 38v19h638v-163zM826 556q29 0 49.5 -20.5t20.5 -49.5h-160v-143q0 -32 -24.5 -52t-53.5 -30q-34 -12 -78 -18v520l-55 6q-4 0 -6.5 3t-2.5 6q0 10 10 10h1l209 -20v-249 h28q9 17 25.5 27t36.5 10zM478 693q0 -151 -34 -213t-95 -101t-144.5 -63.5t-183.5 -50.5l-17 24q83 35 138 69t89 66.5t50 63.5t22 81.5t5.5 70.5t-0.5 34h-184l-49 -25l-49 25v19h284l84 39z" />
<glyph unicode="&#xac04;" horiz-adv-x="867" d="M826 556q29 0 49.5 -20.5t20.5 -49.5h-160v-193q0 -32 -24.5 -52t-53.5 -30q-34 -12 -78 -18v570l-55 6q-4 0 -6.5 3t-2.5 6q0 10 10 10h1l209 -20v-249h28q9 17 25.5 27t36.5 10zM478 693q0 -151 -34 -213t-95 -101t-144.5 -63.5t-183.5 -50.5l-17 24q83 35 138 69 t89 66.5t50 63.5t22 81.5t5.5 70.5t-0.5 34h-184l-49 -25l-49 25v19h284l84 39zM210 -48q-22 0 -33 9t-16 20q-6 13 -7 30v185h-50q-10 0 -10 10t10 10h122q19 1 36 -7.5t29.5 -22t20 -29.5t7.5 -31v-136q0 -6 2 -10q4 -9 16 -9h257l84 39l84 -39v-19h-552z" />
<glyph unicode="&#xac07;" horiz-adv-x="870" d="M826 556q29 0 49.5 -20.5t20.5 -49.5h-160v-103q0 -32 -24.5 -52t-53.5 -30q-34 -12 -78 -18v480l-55 6q-4 0 -6.5 3t-2.5 6q0 10 10 10h1l209 -20v-249h28q9 17 25.5 27t36.5 10zM478 693q0 -151 -34 -213t-95 -101t-144.5 -63.5t-183.5 -50.5l-17 24q83 35 138 69 t89 66.5t50 63.5t22 81.5t5.5 70.5t-0.5 34h-184l-49 -25l-49 25v19h284l84 39zM315 -23q0 -6 2 -10q4 -9 16 -9h247l84 39l84 -39v-19h-545q-26 0 -39 10t-18 23q-6 14 -6 33v188h-50q-10 0 -10 10t10 10h490l84 39l84 -39v-20h-433v-216z" />
<glyph unicode="&#xac08;" horiz-adv-x="877" d="M826 556q29 0 49.5 -20.5t20.5 -49.5h-160v-73q0 -32 -24.5 -52t-53.5 -30q-34 -12 -78 -18v450l-55 6q-4 0 -6.5 3t-2.5 6q0 10 10 10h1l209 -20v-249h28q9 17 25.5 27t36.5 10zM478 703q0 -141 -34 -203t-95 -101t-144.5 -63.5t-183.5 -50.5l-17 24q83 35 138 69 t89 66.5t50 63.5t21.5 76.5t5.5 65.5v34h-184l-49 -25l-49 25v19h284l84 39zM748 -42v-19h-557q-24 0 -36.5 9.5t-17.5 21.5q-6 13 -7 31v112h-30q-10 0 -10 10t10 10h482v110h-314l-84 -39l-84 39v19h470l84 39l84 -39v-148h-156h-287v-137q0 -6 2 -10q4 -9 16 -9h210 l112 53z" />
<glyph unicode="&#xac09;" horiz-adv-x="877" d="M826 556q29 0 49.5 -20.5t20.5 -49.5h-160v-73q0 -32 -24.5 -52t-53.5 -30q-34 -12 -78 -18v450l-55 6q-4 0 -6.5 3t-2.5 6q0 10 10 10h1l209 -20v-249h28q9 17 25.5 27t36.5 10zM448 -42v-19h-267q-24 0 -36.5 9.5t-17.5 21.5q-6 13 -7 31v112h-30q-10 0 -10 10t10 10 h192v110h-22h-2l-84 -39l-84 39v19h180l84 39l84 -39v-19v-121v-8h-156h-7v-31v-5v-101h14l76 34zM478 703q0 -141 -34 -203t-95 -101t-144.5 -63.5t-183.5 -50.5l-17 24q83 35 138 69t89 66.5t50 63.5t21.5 76.5t5.5 65.5v34h-184l-49 -25l-49 25v19h284l84 39zM737 50 q0 -24 -13 -41.5t-32 -29.5t-41 -20t-41.5 -12.5t-33 -6.5t-14.5 -2v306h-4l-65 -38l-74 38v19h318v-213z" />
<glyph unicode="&#xac0a;" horiz-adv-x="870" d="M826 556q29 0 49.5 -20.5t20.5 -49.5h-160v-83q0 -32 -24.5 -52t-53.5 -30q-34 -12 -78 -18v460l-55 6q-4 0 -6.5 3t-2.5 6q0 10 10 10h1l209 -20v-249h28q9 17 25.5 27t36.5 10zM478 693q0 -151 -34 -213t-95 -101t-144.5 -63.5t-183.5 -50.5l-17 24q83 35 138 69 t89 66.5t50 63.5t22 81.5t5.5 70.5t-0.5 34h-184l-49 -25l-49 25v19h284l84 39zM428 -42v-19h-267q-24 0 -36.5 9.5t-17.5 21.5q-6 13 -7 31v112h-30q-10 0 -10 10t10 10h202v110h-32h-2l-84 -39l-84 39v19h180l84 39l84 -39v-140v-8h-183v-137h34l76 34zM802 -15 q7 -2 12 -7t5 -12t-5 -12t-12 -5h-257q-17 -15 -36 -23t-36 -11q-19 -4 -39 -4v365h136h66l72 38l74 -39v-283zM570 243v-242q0 -10 -3 -19h79v261h-76z" />
<glyph unicode="&#xac10;" horiz-adv-x="867" d="M826 556q29 0 49.5 -20.5t20.5 -49.5h-160v-93q0 -32 -24.5 -52t-53.5 -30q-34 -12 -78 -18v470l-55 6q-4 0 -6.5 3t-2.5 6q0 10 10 10h1l209 -20v-249h28q9 17 25.5 27t36.5 10zM772 -8q7 0 12 -4.5t5 -11.5t-5 -12t-12 -5h-497q-17 -15 -39.5 -24.5t-42.5 -14.5 q-24 -6 -49 -9v320l-55 6q-4 0 -6.5 3t-2.5 6q0 10 10 10h1l209 -20h266l82 38l84 -39v-233zM300 203v-192q0 -10 -3 -19h279v211h-276zM478 703q0 -141 -34 -203t-95 -101t-144.5 -63.5t-183.5 -50.5l-17 24q83 35 138 69t89 66.5t50 63.5t21.5 66.5t5.5 65.5v44h-184 l-49 -25l-49 25v19h284l84 39z" />
<glyph unicode="&#xac11;" horiz-adv-x="864" d="M826 556q29 0 49.5 -20.5t20.5 -49.5h-160v-63q0 -32 -24.5 -52t-53.5 -30q-34 -12 -78 -18v440l-55 6q-4 0 -6.5 3t-2.5 6q0 10 10 10h1l209 -20v-249h28q9 17 25.5 27t36.5 10zM478 693q0 -101 -34 -163t-95 -101t-144.5 -63.5t-183.5 -50.5l-17 24q83 35 138 69 t89 66.5t50 63.5t22 56.5t5.5 45.5t-0.5 34h-184l-49 -25l-49 25v19h284l84 39zM741 272v-265q0 -32 -24.5 -52t-53.5 -30q-34 -12 -78 -18v48h-341q-17 -15 -39.5 -24.5t-42.5 -14.5q-24 -6 -49 -9v360l-55 6q-4 0 -6.5 3t-2.5 6q0 10 10 10h1l209 -20v-94h316v89l-55 6 q-4 0 -6.5 3t-2.5 6q0 10 10 10h1zM585 -12v157h-316v-138q0 -10 -3 -19h319z" />
<glyph unicode="&#xac12;" horiz-adv-x="864" d="M826 556q29 0 49.5 -20.5t20.5 -49.5h-160v-68q0 -32 -24.5 -52t-53.5 -30q-34 -12 -78 -18v445l-55 6q-4 0 -6.5 3t-2.5 6q0 10 10 10h1l209 -20v-249h28q9 17 25.5 27t36.5 10zM478 693q0 -131 -34 -193t-95 -101t-144.5 -63.5t-183.5 -50.5l-17 24q83 35 138 69 t89 66.5t50 63.5t22 71.5t5.5 60.5t-0.5 34h-184l-49 -25l-49 25v19h284l84 39zM688 108q15 -9 41.5 -29.5t52 -46t43.5 -53t17 -49.5q-2 -26 -16 -36.5t-32 -11t-35.5 6t-24.5 14.5q-6 6 -13.5 24t-17 40t-20.5 45t-22 39l-16 -23q-23 -27 -54 -50.5t-68 -43t-77 -34.5 t-81 -27l-12 14q56 24 93.5 57t60 69t33.5 73.5t15 71t4 61t1 43.5h-52q-10 0 -10 7t10 7h52h2l140 1q19 0 21.5 -19.5t-3 -47t-15.5 -56t-17 -46.5zM451 282v-275q0 -32 -21 -51.5t-47 -30.5q-30 -12 -68 -18v48h-111q-17 -15 -36 -24.5t-36 -14.5q-19 -6 -39 -9v320l-55 6 q-4 0 -6.5 3t-2.5 6q0 10 10 10h1l189 -20v-74h86v119l-55 6q-4 0 -6.5 3t-2.5 6q0 10 10 10h1zM315 -12v137h-86v-118q0 -10 -3 -19h89z" />
<glyph unicode="&#xac13;" horiz-adv-x="870" d="M826 556q29 0 49.5 -20.5t20.5 -49.5h-160v-143q0 -32 -24.5 -52t-53.5 -30q-34 -12 -78 -18v520l-55 6q-4 0 -6.5 3t-2.5 6q0 10 10 10h1l209 -20v-249h28q9 17 25.5 27t36.5 10zM478 693q0 -151 -34 -213t-95 -101t-144.5 -63.5t-183.5 -50.5l-17 24q83 35 138 69 t89 66.5t50 63.5t22 81.5t5.5 70.5t-0.5 34h-184l-49 -25l-49 25v19h284l84 39zM439 307q17 0 34 -5.5t29.5 -15t19 -23.5t3.5 -31q-3 -13 -4.5 -20.5t-4 -14.5t-5.5 -14t-8 -18q10 -5 34 -14.5t53.5 -21.5t61 -26t57.5 -29t42 -30t15 -29q-2 -24 -16 -41.5t-33.5 -25.5 t-41 -5.5t-39.5 17.5q-6 6 -29.5 26.5t-51 46t-53.5 50.5t-37 40q-30 -33 -79.5 -59t-106 -46.5t-112 -35.5t-97.5 -26l-12 13q86 33 143.5 80t92 94t49 88t16.5 63h-43q-10 0 -10 7q0 6 10 6h123z" />
<glyph unicode="&#xac14;" horiz-adv-x="874" d="M826 556q29 0 49.5 -20.5t20.5 -49.5h-160v-56q0 -32 -24.5 -52t-53.5 -30q-34 -12 -78 -18v433l-55 6q-4 0 -6.5 3t-2.5 6q0 10 10 10h1l209 -20v-249h28q9 17 25.5 27t36.5 10zM478 693q0 -131 -34 -193t-95 -101t-144.5 -63.5t-183.5 -50.5l-17 24q83 35 138 69 t89 66.5t50 63.5t22 51.5t5.5 60.5t-0.5 54h-184l-49 -25l-49 25v19h284l84 39zM636 165q15 -9 43 -26.5t55.5 -39.5t47 -46.5t18.5 -47.5q-2 -27 -17.5 -43t-36 -21t-41.5 1t-34 21q-5 7 -13 20.5t-18 30.5t-22 35t-25 33q-45 -57 -110.5 -102t-146.5 -69l-11 15 q23 13 42.5 27t35.5 28q-5 7 -11 21t-13.5 32t-16.5 37t-20 35l-15 -24q-23 -28 -55.5 -54t-70.5 -48t-79.5 -39.5t-81.5 -29.5l-12 15q69 37 110.5 85t64 95.5t30.5 89t10 66.5h-32q-10 0 -10 8q0 7 10 7h32h2h72q39 0 54.5 -10.5t19.5 -23.5q4 -15 -4 -33q-3 -6 -4.5 -10 t-3.5 -8.5t-4 -10.5t-6 -16q10 -6 23.5 -16t27.5 -23t28 -27.5t25 -28.5q15 29 23 57t11 53.5t3.5 46.5t0.5 35h-33q-10 0 -10 8q0 7 10 7h31h2h72q38 0 53 -12t18 -26q4 -17 -4 -38q-3 -8 -6 -16.5t-8 -19.5z" />
<glyph unicode="&#xac15;" horiz-adv-x="874" d="M826 556q29 0 49.5 -20.5t20.5 -49.5h-160v-113q0 -32 -24.5 -52t-53.5 -30q-34 -12 -78 -18v490l-55 6q-4 0 -6.5 3t-2.5 6q0 10 10 10h1l209 -20v-249h28q9 17 25.5 27t36.5 10zM478 693q0 -151 -34 -213t-95 -101t-144.5 -63.5t-183.5 -50.5l-17 24q83 35 138 69 t89 66.5t50 63.5t22 81.5t5.5 70.5t-0.5 34h-184l-49 -25l-49 25v19h284l84 39zM508 300q47 -6 87.5 -22t70.5 -40.5t47 -56.5t17 -68q0 -39 -21 -71.5t-57 -56t-84.5 -36.5t-103.5 -13t-103.5 13t-84.5 36.5t-57 56t-21 71.5q0 44 24.5 79t63 59.5t86 37.5t92.5 13 q11 0 22 -0.5t22 -1.5zM464 -34q31 0 52.5 11.5t35 31.5t19.5 47t6 57q0 31 -6 59.5t-19.5 50.5t-35 35.5t-52.5 13.5q-32 0 -53.5 -13.5t-34.5 -35.5t-19 -50.5t-6 -59.5q0 -30 6 -57t19 -47t34.5 -31.5t53.5 -11.5z" />
<glyph unicode="&#xac16;" horiz-adv-x="870" d="M826 556q29 0 49.5 -20.5t20.5 -49.5h-160v-63q0 -32 -24.5 -52t-53.5 -30q-34 -12 -78 -18v440l-55 6q-4 0 -6.5 3t-2.5 6q0 10 10 10h1l209 -20v-249h28q9 17 25.5 27t36.5 10zM478 693q0 -101 -34 -163t-95 -101t-144.5 -63.5t-183.5 -50.5l-17 24q83 35 138 69 t89 66.5t50 63.5t22 56.5t5.5 45.5t-0.5 34h-184l-49 -25l-49 25v19h284l84 39zM498 169q10 -6 34 -15t54 -21.5t61.5 -26.5t57.5 -29t42.5 -30t15.5 -29q-2 -24 -16 -41.5t-33.5 -25.5t-41 -5.5t-39.5 17.5q-6 6 -29.5 26.5t-51 46t-53.5 50.5t-37 40l-17 -21 q-23 -25 -69.5 -47t-101 -40.5t-110 -33t-97.5 -25.5l-12 13q67 25 116.5 60.5t85 73.5t57 75.5t32.5 67.5h-1h-170l-49 -26l-49 26v20h507h11l78 36l78 -36v-20h-167h-61h-55q24 -5 39 -10t13 -16q-1 -4 -4 -11.5t-6.5 -16t-6.5 -15.5t-5 -11z" />
<glyph unicode="&#xac17;" horiz-adv-x="870" d="M826 556q29 0 49.5 -20.5t20.5 -49.5h-160v-73q0 -32 -24.5 -52t-53.5 -30q-34 -12 -78 -18v450l-55 6q-4 0 -6.5 3t-2.5 6q0 10 10 10h1l209 -20v-249h28q9 17 25.5 27t36.5 10zM478 693q0 -101 -34 -163t-95 -101t-144.5 -63.5t-183.5 -50.5l-17 24q83 35 138 69 t89 66.5t50 63.5t22 56.5t5.5 45.5t-0.5 34h-184l-49 -25l-49 25v19h284l84 39zM498 169q10 -6 34 -15t54 -21.5t61.5 -26.5t57.5 -29t42.5 -30t15.5 -29q-2 -24 -16 -41.5t-33.5 -25.5t-41 -5.5t-39.5 17.5q-6 6 -29.5 26.5t-51 46t-53.5 50.5t-37 40l-17 -21 q-23 -25 -69.5 -47t-101 -40.5t-110 -33t-97.5 -25.5l-12 13q67 25 116.5 52.5t85 56.5t57 58.5t32.5 59.5h-1h-170l-49 -26l-49 26v20h507h11l78 36l78 -36v-20h-167h-61h-55q29 -8 32 -15.5t-2 -14.5zM512 315q15 -17 5 -33t-31.5 -25.5t-47.5 -10t-42 13.5q-6 5 -16 13.5 t-22 19.5t-24 24t-22 28q35 15 70 18q30 2 65 -7t65 -41z" />
<glyph unicode="&#xac19;" horiz-adv-x="874" d="M826 556q29 0 49.5 -20.5t20.5 -49.5h-160v-93q0 -32 -24.5 -52t-53.5 -30q-34 -12 -78 -18v470l-55 6q-4 0 -6.5 3t-2.5 6q0 10 10 10h1l209 -20v-249h28q9 17 25.5 27t36.5 10zM478 693q0 -151 -34 -213t-95 -101t-144.5 -63.5t-183.5 -50.5l-17 24q83 35 138 69 t89 66.5t50 63.5t22 81.5t5.5 70.5t-0.5 34h-184l-49 -25l-49 25v19h284l84 39zM306 220v-125h242l84 38l84 -38v-19h-410v-121h262l104 58l94 -58v-19h-460h-134q-15 0 -23 5.5t-12 13.5q-4 9 -5 20v244h-38q-10 0 -10 10t10 10h212h262l84 38l84 -38v-19h-430z" />
<glyph unicode="&#xac1a;" horiz-adv-x="874" d="M826 556q29 0 49.5 -20.5t20.5 -49.5h-160v-73q0 -32 -24.5 -52t-53.5 -30q-34 -12 -78 -18v450l-55 6q-4 0 -6.5 3t-2.5 6q0 10 10 10h1l209 -20v-249h28q9 17 25.5 27t36.5 10zM478 693q0 -151 -34 -213t-95 -101t-144.5 -63.5t-183.5 -50.5l-17 24q83 35 138 69 t89 66.5t50 63.5t22 81.5t5.5 70.5t-0.5 34h-184l-49 -25l-49 25v19h284l84 39zM395 3q-3 -27 -25 -36.5t-48 -1.5t-48 32.5t-24 63.5q-2 10 -3 34.5t-2 50.5q-1 30 -2 65q24 0 53 -12.5t52.5 -38t37.5 -64.5t9 -93zM215 237l-49 -26l-49 26v20h428l98 36l88 -36v-20h-516z M761 -47v-20h-556l-49 -26l-49 26v20h654zM555 -47l103 47l103 -47h-206zM545 -57q-1 0 -19.5 -1.5t-40 -2t-38.5 0t-15 4.5q18 31 29 67.5t17 71.5t7.5 66t1.5 51q60 -1 101 -11q18 -4 33 -10.5t24 -16.5t10.5 -23.5t-8.5 -31.5q-7 -12 -23.5 -39t-33.5 -54.5t-30.5 -49 t-14.5 -21.5z" />
<glyph unicode="&#xac1b;" horiz-adv-x="867" d="M826 556q29 0 49.5 -20.5t20.5 -49.5h-160v-73q0 -32 -24.5 -52t-53.5 -30q-34 -12 -78 -18v450l-55 6q-4 0 -6.5 3t-2.5 6q0 10 10 10h1l209 -20v-249h28q9 17 25.5 27t36.5 10zM478 693q0 -111 -34 -173t-95 -101t-144.5 -63.5t-183.5 -50.5l-17 24q83 35 138 69 t89 66.5t50 63.5t22 61.5t5.5 50.5t-0.5 34h-184l-49 -25l-49 25v19h284l84 39zM512 325q15 -17 5 -33t-31.5 -25.5t-47.5 -10t-42 13.5q-6 5 -16 13.5t-22 19.5t-24 24t-22 28q35 15 70 18q30 2 65 -7t65 -41zM174 218l-49 -26l-49 26v20h518l78 36l78 -36v-20h-576z M456 218q47 -4 87.5 -17t70.5 -32t47 -44t17 -53q0 -31 -21 -57t-57 -44.5t-84 -28.5t-103 -10t-103 10t-84 28.5t-57 44.5t-21 57q0 34 24.5 61.5t62.5 46.5t85.5 29.5t92.5 10.5q11 0 21.5 -0.5t21.5 -1.5zM413 -44q31 0 52.5 9t35 25t19.5 37t6 45t-6 46.5t-19.5 39.5 t-35 27.5t-52.5 10.5q-32 0 -53.5 -10.5t-34.5 -27.5t-19 -39.5t-6 -46.5t6 -45t19 -37t34.5 -25t53.5 -9z" />
<glyph unicode="&#xac1c;" d="M824 408h-180v-329q0 -32 -21 -51.5t-47 -30.5q-30 -12 -68 -18v753l-55 6q-9 2 -9 10q0 9 10 9h1l189 -20v-296h178zM854 19q0 -32 -21 -51.5t-47 -30.5q-30 -12 -68 -18v843l-55 6q-9 2 -9 10q0 9 10 9h1l189 -20v-748zM435 683q0 -102 -21.5 -187.5t-67.5 -152.5 t-117 -115t-171 -74l-12 18q61 31 101 75.5t64.5 94.5t36 101t15.5 95.5t3 78t-1 47.5h-104l-49 -26l-49 26v19h204l84 39z" />
<glyph unicode="&#xac1d;" d="M820 498h-170v-149q0 -32 -21 -51.5t-47 -30.5q-30 -12 -68 -18v483l-55 6q-9 2 -9 10q0 9 10 9h1l189 -20v-206h168zM850 349q0 -32 -21 -51.5t-47 -30.5q-30 -12 -68 -18v513l-55 6q-9 2 -9 10q0 9 10 9h1l189 -20v-418zM441 693q0 -102 -21.5 -171.5t-67.5 -118 t-117 -81t-171 -58.5l-12 18q61 31 101 68t64.5 76t36 77.5t15.5 71.5t3 59t-1 40h-124l-49 -26l-49 26v19h224l84 39zM838 50q0 -24 -13 -41.5t-32 -29.5t-41 -20t-41.5 -12.5t-33 -6.5t-14.5 -2v256h-294l-85 -38l-84 38v19h638v-163z" />
<glyph unicode="&#xac20;" d="M819 498h-170v-199q0 -32 -21 -51.5t-47 -30.5q-30 -12 -68 -18v533l-55 6q-9 2 -9 10q0 9 10 9h1l189 -20v-206h168zM849 299q0 -32 -21 -51.5t-47 -30.5q-30 -12 -68 -18v563l-55 6q-9 2 -9 10q0 9 10 9h1l189 -20v-468zM440 693q0 -102 -21.5 -173.5t-67.5 -121.5 t-117 -84t-171 -60l-12 18q61 31 101 68.5t64.5 77.5t36 80t15.5 74.5t3 61t-1 40.5h-124l-49 -26l-49 26v19h224l84 39zM330 -48q-22 0 -33 9t-16 20q-6 13 -7 30v185h-50q-10 0 -10 10t10 10h122q19 1 36 -7.5t29.5 -22t20 -29.5t7.5 -31v-136q0 -6 2 -10q4 -9 16 -9h227 l84 39l84 -39v-19h-522z" />
<glyph unicode="&#xac24;" d="M816 498h-170v-89q0 -32 -21 -51.5t-47 -30.5q-30 -12 -68 -18v423l-55 6q-9 2 -9 10q0 9 10 9h1l189 -20v-206h168zM846 409q0 -32 -21 -51.5t-47 -30.5q-30 -12 -68 -18v453l-55 6q-9 2 -9 10q0 9 10 9h1l189 -20v-358zM437 693q0 -102 -21.5 -173.5t-67.5 -121.5 t-117 -84t-171 -60l-12 18q61 31 101 68.5t64.5 77.5t36 80t15.5 74.5t3 61t-1 40.5h-124l-49 -26l-49 26v19h224l84 39zM855 -42v-19h-567q-24 0 -36.5 9.5t-17.5 21.5q-6 13 -7 31v112h-30q-10 0 -10 10t10 10h482v110h-314l-84 -39l-84 39v19h470l84 39l84 -39v-148h-443 v-137q0 -6 2 -10q4 -9 16 -9h200l122 73z" />
<glyph unicode="&#xac2c;" d="M795 508h-170v-119q0 -32 -21 -51.5t-47 -30.5q-30 -12 -68 -18v443l-55 6q-9 2 -9 10q0 9 10 9h1l189 -20v-196h168zM825 389q0 -32 -21 -51.5t-47 -30.5q-30 -12 -68 -18v473l-55 6q-9 2 -9 10q0 9 10 9h1l189 -20v-378zM416 693q0 -102 -21.5 -173.5t-67.5 -121.5 t-117 -84t-171 -60l-12 18q61 31 101 68.5t64.5 77.5t36 80t15.5 74.5t3 61t-1 40.5h-124l-49 -26l-49 26v19h224l84 39zM858 -8q7 0 12 -4.5t5 -11.5t-5 -12t-12 -5h-497q-17 -15 -39.5 -24.5t-42.5 -14.5q-24 -6 -49 -9v320l-55 6q-4 0 -6.5 3t-2.5 6q0 10 10 10h1 l209 -20h266l82 38l84 -39v-233zM386 203v-192q0 -10 -3 -19h279v211h-276z" />
<glyph unicode="&#xac2d;" d="M820 508h-170v-119q0 -32 -21 -51.5t-47 -30.5q-30 -12 -68 -18v443l-55 6q-9 2 -9 10q0 9 10 9h1l189 -20v-196h168zM850 389q0 -32 -21 -51.5t-47 -30.5q-30 -12 -68 -18v473l-55 6q-9 2 -9 10q0 9 10 9h1l189 -20v-378zM441 693q0 -102 -21.5 -173.5t-67.5 -121.5 t-117 -84t-171 -60l-12 18q61 31 101 68.5t64.5 77.5t36 80t15.5 74.5t3 61t-1 40.5h-124l-49 -26l-49 26v19h224l84 39zM845 272v-265q0 -32 -24.5 -52t-53.5 -30q-34 -12 -78 -18v48h-291q-17 -15 -39.5 -24.5t-42.5 -14.5q-24 -6 -49 -9v340l-55 6q-4 0 -6.5 3t-2.5 6 q0 10 10 10h1l209 -20v-74h266v89l-55 6q-4 0 -6.5 3t-2.5 6q0 10 10 10h1zM689 -12v157h-266v-138q0 -10 -3 -19h269z" />
<glyph unicode="&#xac2f;" d="M820 518h-170v-99q0 -32 -21 -51.5t-47 -30.5q-30 -12 -68 -18v413l-55 6q-9 2 -9 10q0 9 10 9h1l189 -20v-186h168zM850 389q0 -32 -21 -51.5t-47 -30.5q-30 -12 -68 -18v473l-55 6q-9 2 -9 10q0 9 10 9h1l189 -20v-378zM441 693q0 -102 -21.5 -178t-67.5 -132 t-117 -94.5t-171 -64.5l-12 18q61 31 101 71t64.5 83.5t36 87t15.5 81t3 66.5t-1 43h-124l-49 -26l-49 26v19h224l84 39zM519 307q17 0 34 -5.5t29.5 -15t19 -23.5t3.5 -31q-3 -13 -4.5 -20.5t-4 -14.5t-5.5 -14t-8 -18q10 -5 34 -14.5t53.5 -21.5t61 -26t57.5 -29t42 -30 t15 -29q-2 -24 -16 -41.5t-33.5 -25.5t-41 -5.5t-39.5 17.5q-6 6 -29.5 26.5t-51 46t-53.5 50.5t-37 40q-30 -33 -79.5 -59t-106 -46.5t-112 -35.5t-97.5 -26l-12 13q86 33 143.5 80t92 94t49 88t16.5 63h-43q-10 0 -10 7q0 6 10 6h123z" />
<glyph unicode="&#xac30;" d="M797 508h-170v-99q0 -32 -21 -51.5t-47 -30.5q-30 -12 -68 -18v423l-55 6q-9 2 -9 10q0 9 10 9h1l189 -20v-196h168zM827 409q0 -32 -21 -51.5t-47 -30.5q-30 -12 -68 -18v453l-55 6q-9 2 -9 10q0 9 10 9h1l189 -20v-358zM418 693q0 -102 -21.5 -175t-67.5 -125 t-117 -87.5t-171 -61.5l-12 18q61 31 101 69.5t64.5 79.5t36 82t15.5 76.5t3 63t-1 41.5h-124l-49 -26l-49 26v19h224l84 39zM716 165q15 -9 43 -26.5t55.5 -39.5t47 -46.5t18.5 -47.5q-2 -27 -17.5 -43t-36 -21t-41.5 1t-34 21q-5 7 -13 20.5t-18 30.5t-22 35t-25 33 q-45 -57 -110.5 -102t-146.5 -69l-11 15q23 13 42.5 27t35.5 28q-5 7 -11 21t-13.5 32t-16.5 37t-20 35l-15 -24q-23 -28 -55.5 -54t-70.5 -48t-79.5 -39.5t-81.5 -29.5l-12 15q69 37 110.5 85t64 95.5t30.5 89t10 66.5h-32q-10 0 -10 8q0 7 10 7h32h2h72q39 0 54.5 -10.5 t19.5 -23.5q4 -15 -4 -33q-3 -6 -4.5 -10t-3.5 -8.5t-4 -10.5t-6 -16q10 -6 23.5 -16t27.5 -23t28 -27.5t25 -28.5q15 29 23 57t11 53.5t3.5 46.5t0.5 35h-33q-10 0 -10 8q0 7 10 7h31h2h72q38 0 53 -12t18 -26q4 -17 -4 -38q-3 -8 -6 -16.5t-8 -19.5z" />
<glyph unicode="&#xac31;" d="M820 508h-170v-99q0 -32 -21 -51.5t-47 -30.5q-30 -12 -68 -18v423l-55 6q-9 2 -9 10q0 9 10 9h1l189 -20v-196h168zM850 389q0 -32 -21 -51.5t-47 -30.5q-30 -12 -68 -18v473l-55 6q-9 2 -9 10q0 9 10 9h1l189 -20v-378zM441 693q0 -102 -21.5 -175t-67.5 -125 t-117 -87.5t-171 -61.5l-12 18q61 31 101 69.5t64.5 79.5t36 82t15.5 76.5t3 63t-1 41.5h-124l-49 -26l-49 26v19h224l84 39zM618 300q47 -6 87.5 -22t70.5 -40.5t47 -56.5t17 -68q0 -39 -21 -71.5t-57 -56t-84.5 -36.5t-103.5 -13t-103.5 13t-84.5 36.5t-57 56t-21 71.5 q0 44 24.5 79t63 59.5t86 37.5t92.5 13q11 0 22 -0.5t22 -1.5zM574 -34q31 0 52.5 11.5t35 31.5t19.5 47t6 57q0 31 -6 59.5t-19.5 50.5t-35 35.5t-52.5 13.5q-32 0 -53.5 -13.5t-34.5 -35.5t-19 -50.5t-6 -59.5q0 -30 6 -57t19 -47t34.5 -31.5t53.5 -11.5z" />
<glyph unicode="&#xac38;" d="M820 568q29 0 49.5 -20.5t20.5 -49.5h-180v-168h69q9 17 25.5 27t36.5 10q29 0 49.5 -20.5t20.5 -49.5h-201v-258q0 -32 -24.5 -52t-53.5 -30q-34 -12 -78 -18v823l-55 6q-9 2 -9 10q0 9 10 9h1l209 -20v-236h48q9 17 25.5 27t36.5 10zM478 686q0 -102 -34 -191 t-95 -160.5t-144.5 -123t-183.5 -77.5l-12 18q83 40 137 90t87.5 102.5t49 104.5t21.5 95.5t5 76t-1 46.5h-184l-49 -26l-49 26v19h284l84 39z" />
<glyph unicode="&#xac39;" d="M724 50q0 -24 -13 -41.5t-32 -29.5t-41 -20t-41.5 -12.5t-33 -6.5t-14.5 -2v256h-294l-85 -38l-84 38v19h638v-163zM465 693q0 -151 -34 -213t-95 -101t-144.5 -63.5t-183.5 -50.5l-17 24q83 35 138 69t89 66.5t50 63.5t22 81.5t5.5 70.5t-0.5 34h-184l-49 -25l-49 25v19 h284l84 39zM813 666q29 0 49.5 -20.5t20.5 -49.5h-160v-136h55q9 17 25.5 27t36.5 10q29 0 49.5 -20.5t20.5 -49.5h-187v-84q0 -32 -24.5 -52t-53.5 -30q-34 -12 -78 -18v520l-55 6q-4 0 -6.5 3t-2.5 6q0 10 10 10h1l209 -20v-139h28q9 17 25.5 27t36.5 10z" />
<glyph unicode="&#xac3c;" d="M465 693q0 -151 -34 -213t-95 -101t-144.5 -63.5t-183.5 -50.5l-17 24q83 35 138 69t89 66.5t50 63.5t22 81.5t5.5 70.5t-0.5 34h-184l-49 -25l-49 25v19h284l84 39zM813 666q29 0 49.5 -20.5t20.5 -49.5h-160v-136h55q9 17 25.5 27t36.5 10q29 0 49.5 -20.5t20.5 -49.5 h-187v-174q0 -32 -24.5 -52t-53.5 -30q-34 -12 -78 -18v610l-55 6q-4 0 -6.5 3t-2.5 6q0 10 10 10h1l209 -20v-139h28q9 17 25.5 27t36.5 10zM200 -48q-22 0 -33 9t-16 20q-6 13 -7 30v185h-50q-10 0 -10 10t10 10h122q19 1 36 -7.5t29.5 -22t20 -29.5t7.5 -31v-136 q0 -6 2 -10q4 -9 16 -9h257l84 39l84 -39v-19h-552z" />
<glyph unicode="&#xac40;" d="M735 -42v-19h-557q-24 0 -36.5 9.5t-17.5 21.5q-6 13 -7 31v112h-30q-10 0 -10 10t10 10h482v110h-162h-152l-84 -39l-84 39v19h470l84 39l84 -39v-19v-121v-8h-156h-287v-31v-5v-101q0 -6 2 -10q4 -9 16 -9h210l112 53zM465 693q0 -151 -34 -213t-95 -101t-144.5 -63.5 t-183.5 -50.5l-17 24q83 35 138 69t89 66.5t50 63.5t22 81.5t5.5 70.5t-0.5 34h-184l-49 -25l-49 25v19h284l84 39zM813 686q29 0 49.5 -20.5t20.5 -49.5h-160v-136h55q9 17 25.5 27t36.5 10q29 0 49.5 -20.5t20.5 -49.5h-187v-34q0 -32 -24.5 -52t-53.5 -30 q-34 -12 -78 -18v450l-55 6q-4 0 -6.5 3t-2.5 6q0 10 10 10h1l209 -20v-119h28q9 17 25.5 27t36.5 10z" />
<glyph unicode="&#xac4b;" d="M465 693q0 -151 -34 -213t-95 -101t-144.5 -63.5t-183.5 -50.5l-17 24q83 35 138 69t89 66.5t50 63.5t22 81.5t5.5 70.5t-0.5 34h-184l-49 -25l-49 25v19h284l84 39zM813 686q29 0 49.5 -20.5t20.5 -49.5h-160v-136h55q9 17 25.5 27t36.5 10q29 0 49.5 -20.5t20.5 -49.5 h-187v-84q0 -32 -24.5 -52t-53.5 -30q-34 -12 -78 -18v500l-55 6q-4 0 -6.5 3t-2.5 6q0 10 10 10h1l209 -20v-119h28q9 17 25.5 27t36.5 10zM439 307q17 0 34 -5.5t29.5 -15t19 -23.5t3.5 -31q-3 -13 -4.5 -20.5t-4 -14.5t-5.5 -14t-8 -18q10 -5 34 -14.5t53.5 -21.5t61 -26 t57.5 -29t42 -30t15 -29q-2 -24 -16 -41.5t-33.5 -25.5t-41 -5.5t-39.5 17.5q-6 6 -29.5 26.5t-51 46t-53.5 50.5t-37 40q-30 -33 -79.5 -59t-106 -46.5t-112 -35.5t-97.5 -26l-12 13q86 33 143.5 80t92 94t49 88t16.5 63h-43q-10 0 -10 7q0 6 10 6h123z" />
<glyph unicode="&#xac4d;" d="M488 272q47 -5 87 -19.5t69.5 -36.5t46.5 -50.5t17 -61.5q0 -35 -20.5 -64t-56.5 -50t-84 -33t-102 -12t-102 12t-84 33t-56.5 50t-20.5 64q0 39 24 70.5t62.5 53.5t85 34t91.5 12q11 0 21.5 -0.5t21.5 -1.5zM445 -28q31 0 52 10.5t34.5 28.5t19.5 42t6 51q0 28 -6 53.5 t-19.5 45.5t-34.5 32t-52 12t-52.5 -12t-34.5 -32t-19 -45.5t-6 -53.5q0 -27 6 -51t19 -42t34.5 -28.5t52.5 -10.5zM465 693q0 -151 -34 -213t-95 -101t-144.5 -63.5t-183.5 -50.5l-17 24q83 35 138 69t89 66.5t50 63.5t22 81.5t5.5 70.5t-0.5 34h-184l-49 -25l-49 25v19 h284l84 39zM813 686q29 0 49.5 -20.5t20.5 -49.5h-160v-136h55q9 17 25.5 27t36.5 10q29 0 49.5 -20.5t20.5 -49.5h-187v-64q0 -32 -24.5 -52t-53.5 -30q-34 -12 -78 -18v480l-55 6q-4 0 -6.5 3t-2.5 6q0 10 10 10h1l209 -20v-119h28q9 17 25.5 27t36.5 10z" />
<glyph unicode="&#xac54;" d="M824 498h-180v-419q0 -32 -21 -51.5t-47 -30.5q-30 -12 -68 -18v753l-55 6q-9 2 -9 10q0 9 10 9h1l189 -20v-206h178zM854 19q0 -32 -21 -51.5t-47 -30.5q-30 -12 -68 -18v843l-55 6q-9 2 -9 10q0 9 10 9h1l189 -20v-748zM634 322h178l2 -33h-180v33zM435 683 q0 -102 -21.5 -187.5t-67.5 -152.5t-117 -115t-171 -74l-12 18q61 31 101 75.5t64.5 94.5t36 101t15.5 95.5t3 78t-1 47.5h-104l-49 -26l-49 26v19h204l84 39z" />
<glyph unicode="&#xac58;" d="M819 561h-170v-262q0 -32 -21 -51.5t-47 -30.5q-30 -12 -68 -18v533l-55 6q-9 2 -9 10q0 9 10 9h1l189 -20v-143h168zM849 299q0 -32 -21 -51.5t-47 -30.5q-30 -12 -68 -18v563l-55 6q-9 2 -9 10q0 9 10 9h1l189 -20v-468zM440 693q0 -102 -21.5 -173.5t-67.5 -121.5 t-117 -84t-171 -60l-12 18q61 31 101 68.5t64.5 77.5t36 80t15.5 74.5t3 61t-1 40.5h-124l-49 -26l-49 26v19h224l84 39zM609 435h178l2 -33h-180v33zM330 -48q-22 0 -33 9t-16 20q-6 13 -7 30v185h-50q-10 0 -10 10t10 10h122q19 1 36 -7.5t29.5 -22t20 -29.5t7.5 -31v-136 q0 -6 2 -10q4 -9 16 -9h227l84 39l84 -39v-19h-522z" />
<glyph unicode="&#xac5c;" d="M437 693q0 -102 -21.5 -173.5t-67.5 -121.5t-117 -84t-171 -60l-12 18q61 31 101 68.5t64.5 77.5t36 80t15.5 74.5t3 61t-1 40.5h-124l-49 -26l-49 26v19h224l84 39zM606 475h178l2 -33h-180v33zM816 601h-170v-192q0 -32 -21 -51.5t-47 -30.5q-30 -12 -68 -18v423l-55 6 q-9 2 -9 10q0 9 10 9h1l189 -20v-103h168zM846 409q0 -32 -21 -51.5t-47 -30.5q-30 -12 -68 -18v453l-55 6q-9 2 -9 10q0 9 10 9h1l189 -20v-358zM855 -42v-19h-567q-24 0 -36.5 9.5t-17.5 21.5q-6 13 -7 31v112h-30q-10 0 -10 10t10 10h482v110h-314l-84 -39l-84 39v19h470 l84 39l84 -39v-148h-443v-137q0 -6 2 -10q4 -9 16 -9h200l122 73z" />
<glyph unicode="&#xac70;" d="M525 686q0 -102 -34 -191t-95 -160.5t-144.5 -123t-183.5 -77.5l-12 18q83 40 137 90t87.5 102.5t49 104.5t21.5 95.5t5 76t-1 46.5h-184l-49 -26l-49 26v19h284l84 39zM648 434h-20q-9 -17 -25.5 -27t-36.5 -10q-29 0 -49.5 20.5t-20.5 49.5h152v295l-55 6q-9 2 -9 10 q0 9 10 9h1l209 -20v-728q0 -32 -24.5 -52t-53.5 -30q-34 -12 -78 -18v495z" />
<glyph unicode="&#xac71;" d="M525 693q0 -151 -34 -213t-95 -101t-144.5 -63.5t-183.5 -50.5l-17 24q83 35 138 69t89 66.5t50 63.5t22 81.5t5.5 70.5t-0.5 34h-184l-49 -25l-49 25v19h284l84 39zM834 50q0 -24 -13 -41.5t-32 -29.5t-41 -20t-41.5 -12.5t-33 -6.5t-14.5 -2v256h-294l-85 -38l-84 38 v19h638v-163zM833 343q0 -32 -24.5 -52t-53.5 -30q-34 -12 -78 -18v280h-22q-9 -17 -25.5 -27t-36.5 -10q-29 0 -49.5 20.5t-20.5 49.5h154v207l-55 6q-4 0 -6.5 3t-2.5 6q0 10 10 10h1l209 -20v-425z" />
<glyph unicode="&#xac74;" d="M833 288q0 -32 -24.5 -52t-53.5 -30q-34 -12 -78 -18v575l-55 6q-4 0 -6.5 3t-2.5 6q0 10 10 10h1l209 -20v-480zM525 693q0 -151 -34 -213t-95 -101t-144.5 -63.5t-183.5 -50.5l-17 24q83 35 138 69t89 66.5t50 63.5t22 81.5t5.5 70.5t-0.5 34h-184l-49 -25l-49 25v19 h284l84 39zM723 523h-68q-9 -17 -25.5 -27t-36.5 -10q-29 0 -49.5 20.5t-20.5 49.5h200v-33zM270 -48q-22 0 -33 9t-16 20q-6 13 -7 30v185h-50q-10 0 -10 10t10 10h122q19 1 36 -7.5t29.5 -22t20 -29.5t7.5 -31v-136q0 -6 2 -10q4 -9 16 -9h257l84 39l84 -39v-19h-552z" />
<glyph unicode="&#xac77;" horiz-adv-x="887" d="M833 368q0 -32 -24.5 -52t-53.5 -30q-34 -12 -78 -18v495l-55 6q-4 0 -6.5 3t-2.5 6q0 10 10 10h1l209 -20v-400zM525 693q0 -151 -34 -213t-95 -101t-144.5 -63.5t-183.5 -50.5l-17 24q83 35 138 69t89 66.5t50 63.5t22 81.5t5.5 70.5t-0.5 34h-184l-49 -25l-49 25v19 h284l84 39zM723 523h-68q-9 -17 -25.5 -27t-36.5 -10q-29 0 -49.5 20.5t-20.5 49.5h200v-33zM395 -23q0 -6 2 -10q4 -9 16 -9h247l84 39l84 -39v-19h-545q-26 0 -39 10t-18 23q-6 14 -6 33v188h-50q-10 0 -10 10t10 10h490l84 39l84 -39v-20h-433v-216z" />
<glyph unicode="&#xac78;" d="M833 408q0 -32 -24.5 -52t-53.5 -30q-34 -12 -78 -18v455l-55 6q-4 0 -6.5 3t-2.5 6q0 10 10 10h1l209 -20v-360zM525 693q0 -151 -34 -213t-95 -101t-144.5 -63.5t-183.5 -50.5l-17 24q83 35 138 69t89 66.5t50 63.5t22 81.5t5.5 70.5t-0.5 34h-184l-49 -25l-49 25v19 h284l84 39zM723 523h-68q-9 -17 -25.5 -27t-36.5 -10q-29 0 -49.5 20.5t-20.5 49.5h200v-33zM838 -42v-19h-557q-24 0 -36.5 9.5t-17.5 21.5q-6 13 -7 31v112h-30q-10 0 -10 10t10 10h482v110h-314l-84 -39l-84 39v19h470l84 39l84 -39v-148h-156h-287v-137q0 -6 2 -10 q4 -9 16 -9h210l112 53z" />
<glyph unicode="&#xac7a;" d="M833 412q0 -32 -24.5 -52t-53.5 -30q-34 -12 -78 -18v451l-55 6q-4 0 -6.5 3t-2.5 6q0 10 10 10h1l209 -20v-356zM525 693q0 -151 -34 -213t-95 -101t-144.5 -63.5t-183.5 -50.5l-17 24q83 35 138 69t89 66.5t50 63.5t22 81.5t5.5 70.5t-0.5 34h-184l-49 -25l-49 25v19 h284l84 39zM723 523h-68q-9 -17 -25.5 -27t-36.5 -10q-29 0 -49.5 20.5t-20.5 49.5h200v-33zM478 -42v-19h-267q-24 0 -36.5 9.5t-17.5 21.5q-6 13 -7 31v112h-30q-10 0 -10 10t10 10h202v110h-32h-2l-84 -39l-84 39v19h180l84 39l84 -39v-140v-8h-183v-137h34l76 34z M852 -15q7 -2 12 -7t5 -12t-5 -12t-12 -5h-257q-17 -15 -36 -23t-36 -11q-19 -4 -39 -4v365h136h66l72 38l74 -39v-283zM620 243v-242q0 -10 -3 -19h79v261h-76z" />
<glyph unicode="&#xac80;" d="M833 368q0 -32 -24.5 -52t-53.5 -30q-34 -12 -78 -18v495l-55 6q-4 0 -6.5 3t-2.5 6q0 10 10 10h1l209 -20v-400zM525 693q0 -151 -34 -213t-95 -101t-144.5 -63.5t-183.5 -50.5l-17 24q83 35 138 69t89 66.5t50 63.5t22 81.5t5.5 70.5t-0.5 34h-184l-49 -25l-49 25v19 h284l84 39zM723 523h-68q-9 -17 -25.5 -27t-36.5 -10q-29 0 -49.5 20.5t-20.5 49.5h200v-33zM872 -8q7 0 12 -4.5t5 -11.5t-5 -12t-12 -5h-497q-17 -15 -39.5 -24.5t-42.5 -14.5q-24 -6 -49 -9v320l-55 6q-4 0 -6.5 3t-2.5 6q0 10 10 10h1l209 -20h266l82 38l84 -39v-233z M400 213v-212q0 -10 -3 -19h279v231h-276z" />
<glyph unicode="&#xac81;" d="M833 408q0 -32 -24.5 -52t-53.5 -30q-34 -12 -78 -18v455l-55 6q-4 0 -6.5 3t-2.5 6q0 10 10 10h1l209 -20v-360zM525 693q0 -151 -34 -213t-95 -101t-144.5 -63.5t-183.5 -50.5l-17 24q83 35 138 69t89 66.5t50 63.5t22 81.5t5.5 70.5t-0.5 34h-184l-49 -25l-49 25v19 h284l84 39zM723 523h-68q-9 -17 -25.5 -27t-36.5 -10q-29 0 -49.5 20.5t-20.5 49.5h200v-33zM831 272v-265q0 -32 -24.5 -52t-53.5 -30q-34 -12 -78 -18v48h-341q-17 -15 -39.5 -24.5t-42.5 -14.5q-24 -6 -49 -9v320l-55 6q-4 0 -6.5 3t-2.5 6q0 10 10 10h1l209 -20v-54h316 v89l-55 6q-4 0 -6.5 3t-2.5 6q0 10 10 10h1zM675 -12v157h-316v-138q0 -10 -3 -19h319z" />
<glyph unicode="&#xac83;" d="M833 343q0 -32 -24.5 -52t-53.5 -30q-34 -12 -78 -18v520l-55 6q-4 0 -6.5 3t-2.5 6q0 10 10 10h1l209 -20v-425zM525 693q0 -151 -34 -213t-95 -101t-144.5 -63.5t-183.5 -50.5l-17 24q83 35 138 69t89 66.5t50 63.5t22 81.5t5.5 70.5t-0.5 34h-184l-49 -25l-49 25v19 h284l84 39zM723 523h-68q-9 -17 -25.5 -27t-36.5 -10q-29 0 -49.5 20.5t-20.5 49.5h200v-33zM519 307q17 0 34 -5.5t29.5 -15t19 -23.5t3.5 -31q-3 -13 -4.5 -20.5t-4 -14.5t-5.5 -14t-8 -18q10 -5 34 -14.5t53.5 -21.5t61 -26t57.5 -29t42 -30t15 -29q-2 -24 -16 -41.5 t-33.5 -25.5t-41 -5.5t-39.5 17.5q-6 6 -29.5 26.5t-51 46t-53.5 50.5t-37 40q-30 -33 -79.5 -59t-106 -46.5t-112 -35.5t-97.5 -26l-12 13q86 33 143.5 80t92 94t49 88t16.5 63h-43q-10 0 -10 7q0 6 10 6h123z" />
<glyph unicode="&#xac84;" d="M833 388q0 -32 -24.5 -52t-53.5 -30q-34 -12 -78 -18v475l-55 6q-4 0 -6.5 3t-2.5 6q0 10 10 10h1l209 -20v-380zM525 693q0 -151 -34 -213t-95 -101t-144.5 -63.5t-183.5 -50.5l-17 24q83 35 138 69t89 66.5t50 63.5t22 81.5t5.5 70.5t-0.5 34h-184l-49 -25l-49 25v19 h284l84 39zM723 523h-68q-9 -17 -25.5 -27t-36.5 -10q-29 0 -49.5 20.5t-20.5 49.5h200v-33zM686 165q15 -9 43 -26.5t55.5 -39.5t47 -46.5t18.5 -47.5q-2 -27 -17.5 -43t-36 -21t-41.5 1t-34 21q-5 7 -13 20.5t-18 30.5t-22 35t-25 33q-45 -57 -110.5 -102t-146.5 -69 l-11 15q23 13 42.5 27t35.5 28q-5 7 -11 21t-13.5 32t-16.5 37t-20 35l-15 -24q-23 -28 -55.5 -54t-70.5 -48t-79.5 -39.5t-81.5 -29.5l-12 15q69 37 110.5 85t64 95.5t30.5 89t10 66.5h-32q-10 0 -10 8q0 7 10 7h32h2h72q39 0 54.5 -10.5t19.5 -23.5q4 -15 -4 -33 q-3 -6 -4.5 -10t-3.5 -8.5t-4 -10.5t-6 -16q10 -6 23.5 -16t27.5 -23t28 -27.5t25 -28.5q15 29 23 57t11 53.5t3.5 46.5t0.5 35h-33q-10 0 -10 8q0 7 10 7h31h2h72q38 0 53 -12t18 -26q4 -17 -4 -38q-3 -8 -6 -16.5t-8 -19.5z" />
<glyph unicode="&#xac85;" d="M833 328q0 -32 -24.5 -52t-53.5 -30q-34 -12 -78 -18v535l-55 6q-4 0 -6.5 3t-2.5 6q0 10 10 10h1l209 -20v-440zM525 693q0 -151 -34 -213t-95 -101t-144.5 -63.5t-183.5 -50.5l-17 24q83 35 138 69t89 66.5t50 63.5t22 81.5t5.5 70.5t-0.5 34h-184l-49 -25l-49 25v19 h284l84 39zM723 523h-68q-9 -17 -25.5 -27t-36.5 -10q-29 0 -49.5 20.5t-20.5 49.5h200v-33zM608 300q47 -6 87.5 -22t70.5 -40.5t47 -56.5t17 -68q0 -39 -21 -71.5t-57 -56t-84.5 -36.5t-103.5 -13t-103.5 13t-84.5 36.5t-57 56t-21 71.5q0 44 24.5 79t63 59.5t86 37.5 t92.5 13q11 0 22 -0.5t22 -1.5zM564 -34q31 0 52.5 11.5t35 31.5t19.5 47t6 57q0 31 -6 59.5t-19.5 50.5t-35 35.5t-52.5 13.5q-32 0 -53.5 -13.5t-34.5 -35.5t-19 -50.5t-6 -59.5q0 -30 6 -57t19 -47t34.5 -31.5t53.5 -11.5z" />
<glyph unicode="&#xac86;" horiz-adv-x="825" d="M776 408q0 -32 -24.5 -52t-53.5 -30q-34 -12 -78 -18v455l-55 6q-4 0 -6.5 3t-2.5 6q0 10 10 10h1l209 -20v-360zM468 693q0 -151 -34 -213t-95 -101t-144.5 -63.5t-183.5 -50.5l-17 24q83 35 138 69t89 66.5t50 63.5t22 81.5t5.5 70.5t-0.5 34h-184l-49 -25l-49 25v19 h284l84 39zM666 523h-68q-9 -17 -25.5 -27t-36.5 -10q-29 0 -49.5 20.5t-20.5 49.5h200v-33zM531 169q10 -6 34 -15t54 -21.5t61.5 -26.5t57.5 -29t42.5 -30t15.5 -29q-2 -24 -16 -41.5t-33.5 -25.5t-41 -5.5t-39.5 17.5q-6 6 -29.5 26.5t-51 46t-53.5 50.5t-37 40l-17 -21 q-23 -25 -69.5 -47t-101 -40.5t-110 -33t-97.5 -25.5l-12 13q67 25 116.5 60.5t85 73.5t57 75.5t32.5 67.5h-1h-170l-49 -26l-49 26v20h507h11l78 36l78 -36v-20h-167h-61h-55q24 -5 39 -10t13 -16q-1 -4 -4 -11.5t-6.5 -16t-6.5 -15.5t-5 -11z" />
<glyph unicode="&#xac89;" d="M833 378q0 -32 -24.5 -52t-53.5 -30q-34 -12 -78 -18v485l-55 6q-4 0 -6.5 3t-2.5 6q0 10 10 10h1l209 -20v-390zM525 693q0 -151 -34 -213t-95 -101t-144.5 -63.5t-183.5 -50.5l-17 24q83 35 138 69t89 66.5t50 63.5t22 81.5t5.5 70.5t-0.5 34h-184l-49 -25l-49 25v19 h284l84 39zM723 523h-68q-9 -17 -25.5 -27t-36.5 -10q-29 0 -49.5 20.5t-20.5 49.5h200v-33zM406 220v-125h143h99l84 38l84 -38v-19h-265h-145v-74v-29v-18h262l104 58l94 -58v-19h-460h-134q-15 0 -23 5.5t-12 13.5q-4 9 -5 20v81v19v144h-38q-10 0 -10 10t10 10h38h21h74 h79h262l84 38l84 -38v-19h-430z" />
<glyph unicode="&#xac8a;" d="M833 408q0 -32 -24.5 -52t-53.5 -30q-34 -12 -78 -18v455l-55 6q-4 0 -6.5 3t-2.5 6q0 10 10 10h1l209 -20v-360zM525 693q0 -151 -34 -213t-95 -101t-144.5 -63.5t-183.5 -50.5l-17 24q83 35 138 69t89 66.5t50 63.5t22 81.5t5.5 70.5t-0.5 34h-184l-49 -25l-49 25v19 h284l84 39zM723 523h-68q-9 -17 -25.5 -27t-36.5 -10q-29 0 -49.5 20.5t-20.5 49.5h200v-33zM485 3q-3 -27 -25 -36.5t-48 -1.5t-48 32.5t-24 63.5q-2 10 -3 34.5t-2 50.5q-1 30 -2 65q24 0 53 -12.5t52.5 -38t37.5 -64.5t9 -93zM305 237l-49 -26l-49 26v20h428l98 36 l88 -36v-20h-516zM851 -47v-20h-556l-49 -26l-49 26v20h654zM635 -57q-1 0 -19.5 -1.5t-40 -2t-38.5 0t-15 4.5q18 31 29 67.5t17 71.5t7.5 66t1.5 51q60 -1 101 -11q18 -4 33 -10.5t24 -16.5t10.5 -23.5t-8.5 -31.5q-7 -12 -23.5 -39t-33.5 -54.5t-30.5 -49t-14.5 -21.5z " />
<glyph unicode="&#xac8b;" d="M833 428q0 -32 -24.5 -52t-53.5 -30q-34 -12 -78 -18v435l-55 6q-4 0 -6.5 3t-2.5 6q0 10 10 10h1l209 -20v-340zM525 693q0 -151 -34 -213t-95 -101t-144.5 -63.5t-183.5 -50.5l-17 24q83 35 138 69t89 66.5t50 63.5t22 81.5t5.5 70.5t-0.5 34h-184l-49 -25l-49 25v19 h284l84 39zM723 523h-68q-9 -17 -25.5 -27t-36.5 -10q-29 0 -49.5 20.5t-20.5 49.5h200v-33zM602 325q15 -17 5 -33t-31.5 -25.5t-47.5 -10t-42 13.5q-6 5 -16 13.5t-22 19.5t-24 24t-22 28q35 15 70 18q30 2 65 -7t65 -41zM264 218l-49 -26l-49 26v20h518l78 36l78 -36v-20 h-576zM546 218q47 -4 87.5 -17t70.5 -32t47 -44t17 -53q0 -31 -21 -57t-57 -44.5t-84 -28.5t-103 -10t-103 10t-84 28.5t-57 44.5t-21 57q0 34 24.5 61.5t62.5 46.5t85.5 29.5t92.5 10.5q11 0 21.5 -0.5t21.5 -1.5zM503 -44q31 0 52.5 9t35 25t19.5 37t6 45t-6 46.5 t-19.5 39.5t-35 27.5t-52.5 10.5q-32 0 -53.5 -10.5t-34.5 -27.5t-19 -39.5t-6 -46.5t6 -45t19 -37t34.5 -25t53.5 -9z" />
<glyph unicode="&#xac8c;" horiz-adv-x="866" d="M630 79q0 -32 -21 -51.5t-47 -30.5q-30 -12 -68 -18v753l-55 6q-9 2 -9 10q0 9 10 9h1l189 -20v-658zM820 19q0 -32 -21 -51.5t-47 -30.5q-30 -12 -68 -18v843l-55 6q-9 2 -9 10q0 9 10 9h1l189 -20v-748zM549 408h-68q-9 -17 -25.5 -27t-36.5 -10q-29 0 -49.5 20.5 t-20.5 49.5h200v-33zM435 683q0 -102 -21.5 -187.5t-67.5 -152.5t-117 -115t-171 -74l-12 18q61 31 101 75.5t64.5 94.5t36 101t15.5 95.5t3 78t-1 47.5h-104l-49 -26l-49 26v19h204l84 39z" />
<glyph unicode="&#xac90;" d="M649 299q0 -32 -21 -51.5t-47 -30.5q-30 -12 -68 -18v533l-55 6q-9 2 -9 10q0 9 10 9h1l189 -20v-438zM849 299q0 -32 -21 -51.5t-47 -30.5q-30 -12 -68 -18v563l-55 6q-9 2 -9 10q0 9 10 9h1l189 -20v-468zM440 693q0 -102 -21.5 -173.5t-67.5 -121.5t-117 -84t-171 -60 l-12 18q61 31 101 68.5t64.5 77.5t36 80t15.5 74.5t3 61t-1 40.5h-124l-49 -26l-49 26v19h224l84 39zM330 -48q-22 0 -33 9t-16 20q-6 13 -7 30v185h-50q-10 0 -10 10t10 10h122q19 1 36 -7.5t29.5 -22t20 -29.5t7.5 -31v-136q0 -6 2 -10q4 -9 16 -9h227l84 39l84 -39v-19 h-522zM539 498h-68q-9 -17 -25.5 -27t-36.5 -10q-29 0 -49.5 20.5t-20.5 49.5h200v-33z" />
<glyph unicode="&#xac94;" d="M649 399q0 -32 -21 -51.5t-47 -30.5q-30 -12 -68 -18v433l-55 6q-9 2 -9 10q0 9 10 9h1l189 -20v-338zM849 419q0 -32 -21 -51.5t-47 -30.5q-30 -12 -68 -18v443l-55 6q-9 2 -9 10q0 9 10 9h1l189 -20v-348zM440 693q0 -102 -21.5 -173.5t-67.5 -121.5t-117 -84t-171 -60 l-12 18q61 31 101 68.5t64.5 77.5t36 80t15.5 74.5t3 61t-1 40.5h-124l-49 -26l-49 26v19h224l84 39zM539 498h-68q-9 -17 -25.5 -27t-36.5 -10q-29 0 -49.5 20.5t-20.5 49.5h200v-33zM855 -42v-19h-567q-24 0 -36.5 9.5t-17.5 21.5q-6 13 -7 31v112h-30q-10 0 -10 10t10 10 h482v110h-314l-84 -39l-84 39v19h470l84 39l84 -39v-148h-443v-137q0 -6 2 -10q4 -9 16 -9h200l122 73z" />
<glyph unicode="&#xac9c;" d="M649 369q0 -32 -21 -51.5t-47 -30.5q-30 -12 -68 -18v463l-55 6q-9 2 -9 10q0 9 10 9h1l189 -20v-368zM849 389q0 -32 -21 -51.5t-47 -30.5q-30 -12 -68 -18v473l-55 6q-9 2 -9 10q0 9 10 9h1l189 -20v-378zM440 693q0 -102 -21.5 -173.5t-67.5 -121.5t-117 -84t-171 -60 l-12 18q61 31 101 68.5t64.5 77.5t36 80t15.5 74.5t3 61t-1 40.5h-124l-49 -26l-49 26v19h224l84 39zM539 498h-68q-9 -17 -25.5 -27t-36.5 -10q-29 0 -49.5 20.5t-20.5 49.5h200v-33zM888 -8q7 0 12 -4.5t5 -11.5t-5 -12t-12 -5h-497q-17 -15 -39.5 -24.5t-42.5 -14.5 q-24 -6 -49 -9v320l-55 6q-4 0 -6.5 3t-2.5 6q0 10 10 10h1l209 -20h266l82 38l84 -39v-233zM416 203v-192q0 -10 -3 -19h279v211h-276z" />
<glyph unicode="&#xac9d;" d="M649 389q0 -32 -21 -51.5t-47 -30.5q-30 -12 -68 -18v443l-55 6q-9 2 -9 10q0 9 10 9h1l189 -20v-348zM849 409q0 -32 -21 -51.5t-47 -30.5q-30 -12 -68 -18v453l-55 6q-9 2 -9 10q0 9 10 9h1l189 -20v-358zM440 693q0 -102 -21.5 -173.5t-67.5 -121.5t-117 -84t-171 -60 l-12 18q61 31 101 68.5t64.5 77.5t36 80t15.5 74.5t3 61t-1 40.5h-124l-49 -26l-49 26v19h224l84 39zM539 498h-68q-9 -17 -25.5 -27t-36.5 -10q-29 0 -49.5 20.5t-20.5 49.5h200v-33zM845 272v-265q0 -32 -24.5 -52t-53.5 -30q-34 -12 -78 -18v48h-291q-17 -15 -39.5 -24.5 t-42.5 -14.5q-24 -6 -49 -9v340l-55 6q-4 0 -6.5 3t-2.5 6q0 10 10 10h1l209 -20v-74h266v89l-55 6q-4 0 -6.5 3t-2.5 6q0 10 10 10h1zM689 -12v157h-266v-138q0 -10 -3 -19h269z" />
<glyph unicode="&#xac9f;" d="M649 419q0 -32 -21 -51.5t-47 -30.5q-30 -12 -68 -18v413l-55 6q-9 2 -9 10q0 9 10 9h1l189 -20v-318zM849 399q0 -32 -21 -51.5t-47 -30.5q-30 -12 -68 -18v463l-55 6q-9 2 -9 10q0 9 10 9h1l189 -20v-368zM440 693q0 -102 -21.5 -173.5t-67.5 -121.5t-117 -84t-171 -60 l-12 18q61 31 101 68.5t64.5 77.5t36 80t15.5 74.5t3 61t-1 40.5h-124l-49 -26l-49 26v19h224l84 39zM539 498h-68q-9 -17 -25.5 -27t-36.5 -10q-29 0 -49.5 20.5t-20.5 49.5h200v-33zM529 307q17 0 34 -5.5t29.5 -15t19 -23.5t3.5 -31q-3 -13 -4.5 -20.5t-4 -14.5t-5.5 -14 t-8 -18q10 -5 34 -14.5t53.5 -21.5t61 -26t57.5 -29t42 -30t15 -29q-2 -24 -16 -41.5t-33.5 -25.5t-41 -5.5t-39.5 17.5q-6 6 -29.5 26.5t-51 46t-53.5 50.5t-37 40q-30 -33 -79.5 -59t-106 -46.5t-112 -35.5t-97.5 -26l-12 13q86 33 143.5 80t92 94t49 88t16.5 63h-43 q-10 0 -10 7q0 6 10 6h123z" />
<glyph unicode="&#xaca0;" d="M706 195q15 -9 43 -26.5t55.5 -39.5t47 -46.5t18.5 -47.5q-2 -27 -17.5 -43t-36 -21t-41.5 1t-34 21q-5 7 -13 20.5t-18 30.5t-22 35t-25 33q-45 -57 -110.5 -102t-146.5 -69l-11 15q23 13 42.5 27t35.5 28q-5 7 -11 21t-13.5 32t-16.5 37t-20 35l-15 -24 q-23 -28 -55.5 -54t-70.5 -48t-79.5 -39.5t-81.5 -29.5l-12 15q69 37 110.5 85t64 95.5t30.5 89t10 66.5h-32q-10 0 -10 8q0 7 10 7h32h2h72q39 0 54.5 -10.5t19.5 -23.5q4 -15 -4 -33q-3 -6 -4.5 -10t-3.5 -8.5t-4 -10.5t-6 -16q10 -6 23.5 -16t27.5 -23t28 -27.5t25 -28.5 q15 29 23 57t11 53.5t3.5 46.5t0.5 35h-33q-10 0 -10 8q0 7 10 7h31h2h72q38 0 53 -12t18 -26q4 -17 -4 -38q-3 -8 -6 -16.5t-8 -19.5zM649 419q0 -32 -21 -51.5t-47 -30.5q-30 -12 -68 -18v413l-55 6q-9 2 -9 10q0 9 10 9h1l189 -20v-318zM849 419q0 -32 -21 -51.5 t-47 -30.5q-30 -12 -68 -18v443l-55 6q-9 2 -9 10q0 9 10 9h1l189 -20v-348zM440 693q0 -102 -21.5 -173.5t-67.5 -121.5t-117 -84t-171 -60l-12 18q61 31 101 68.5t64.5 77.5t36 80t15.5 74.5t3 61t-1 40.5h-124l-49 -26l-49 26v19h224l84 39zM539 498h-68 q-9 -17 -25.5 -27t-36.5 -10q-29 0 -49.5 20.5t-20.5 49.5h200v-33z" />
<glyph unicode="&#xaca1;" d="M649 419q0 -32 -21 -51.5t-47 -30.5q-30 -12 -68 -18v413l-55 6q-9 2 -9 10q0 9 10 9h1l189 -20v-318zM849 399q0 -32 -21 -51.5t-47 -30.5q-30 -12 -68 -18v463l-55 6q-9 2 -9 10q0 9 10 9h1l189 -20v-368zM440 693q0 -102 -21.5 -173.5t-67.5 -121.5t-117 -84t-171 -60 l-12 18q61 31 101 68.5t64.5 77.5t36 80t15.5 74.5t3 61t-1 40.5h-124l-49 -26l-49 26v19h224l84 39zM539 498h-68q-9 -17 -25.5 -27t-36.5 -10q-29 0 -49.5 20.5t-20.5 49.5h200v-33zM618 300q47 -6 87.5 -22t70.5 -40.5t47 -56.5t17 -68q0 -39 -21 -71.5t-57 -56 t-84.5 -36.5t-103.5 -13t-103.5 13t-84.5 36.5t-57 56t-21 71.5q0 44 24.5 79t63 59.5t86 37.5t92.5 13q11 0 22 -0.5t22 -1.5zM574 -34q31 0 52.5 11.5t35 31.5t19.5 47t6 57q0 31 -6 59.5t-19.5 50.5t-35 35.5t-52.5 13.5q-32 0 -53.5 -13.5t-34.5 -35.5t-19 -50.5 t-6 -59.5q0 -30 6 -57t19 -47t34.5 -31.5t53.5 -11.5z" />
<glyph unicode="&#xaca8;" d="M648 762l-55 6q-9 2 -9 10q0 9 10 9h1l209 -20v-728q0 -32 -24.5 -52t-53.5 -30q-34 -12 -78 -18v823zM688 497h-80q-9 -17 -25.5 -27t-36.5 -10q-29 0 -49.5 20.5t-20.5 49.5h212v-33zM525 686q0 -102 -34 -191t-95 -160.5t-144.5 -123t-183.5 -77.5l-12 18 q83 40 137 90t87.5 102.5t49 104.5t21.5 95.5t5 76t-1 46.5h-184l-49 -26l-49 26v19h284l84 39zM657 297h-88q-9 -17 -25.5 -27t-36.5 -10q-29 0 -49.5 20.5t-20.5 49.5h220v-33z" />
<glyph unicode="&#xaca9;" d="M735 603h-80q-9 -17 -25.5 -27t-36.5 -10q-29 0 -49.5 20.5t-20.5 49.5h212v-33zM704 403h-88q-9 -17 -25.5 -27t-36.5 -10q-29 0 -49.5 20.5t-20.5 49.5h220v-33zM833 343q0 -32 -24.5 -52t-53.5 -30q-34 -12 -78 -18v520l-55 6q-4 0 -6.5 3t-2.5 6q0 10 10 10h1 l209 -20v-425zM525 693q0 -151 -34 -213t-95 -101t-144.5 -63.5t-183.5 -50.5l-17 24q83 35 138 69t89 66.5t50 63.5t22 81.5t5.5 70.5t-0.5 34h-184l-49 -25l-49 25v19h284l84 39zM834 50q0 -24 -13 -41.5t-32 -29.5t-41 -20t-41.5 -12.5t-33 -6.5t-14.5 -2v256h-294 l-85 -38l-84 38v19h638v-163z" />
<glyph unicode="&#xacaa;" d="M735 603h-80q-9 -17 -25.5 -27t-36.5 -10q-29 0 -49.5 20.5t-20.5 49.5h212v-33zM704 403h-88q-9 -17 -25.5 -27t-36.5 -10q-29 0 -49.5 20.5t-20.5 49.5h220v-33zM833 343q0 -32 -24.5 -52t-53.5 -30q-34 -12 -78 -18v520l-55 6q-4 0 -6.5 3t-2.5 6q0 10 10 10h1 l209 -20v-425zM525 693q0 -151 -34 -213t-95 -101t-144.5 -63.5t-183.5 -50.5l-17 24q83 35 138 69t89 66.5t50 63.5t22 81.5t5.5 70.5t-0.5 34h-184l-49 -25l-49 25v19h284l84 39zM834 50q0 -24 -13 -41.5t-32 -29.5t-41 -20t-41.5 -12.5t-33 -6.5t-14.5 -2v256h-54 l-85 -38l-84 38v19h398v-163zM524 50q0 -24 -13 -41.5t-32 -29.5t-41 -20t-41.5 -12.5t-33 -6.5t-14.5 -2v256h-34l-85 -38l-84 38v19h378v-163z" />
<glyph unicode="&#xacac;" d="M735 603h-80q-9 -17 -25.5 -27t-36.5 -10q-29 0 -49.5 20.5t-20.5 49.5h212v-33zM704 403h-88q-9 -17 -25.5 -27t-36.5 -10q-29 0 -49.5 20.5t-20.5 49.5h220v-33zM833 253q0 -32 -24.5 -52t-53.5 -30q-34 -12 -78 -18v610l-55 6q-4 0 -6.5 3t-2.5 6q0 10 10 10h1 l209 -20v-515zM525 693q0 -151 -34 -213t-95 -101t-144.5 -63.5t-183.5 -50.5l-17 24q83 35 138 69t89 66.5t50 63.5t22 81.5t5.5 70.5t-0.5 34h-184l-49 -25l-49 25v19h284l84 39zM270 -48q-22 0 -33 9t-16 20q-6 13 -7 30v185h-50q-10 0 -10 10t10 10h122q19 1 36 -7.5 t29.5 -22t20 -29.5t7.5 -31v-136q0 -6 2 -10q4 -9 16 -9h257l84 39l84 -39v-19h-552z" />
<glyph unicode="&#xacaf;" d="M735 603h-80q-9 -17 -25.5 -27t-36.5 -10q-29 0 -49.5 20.5t-20.5 49.5h212v-33zM704 403h-88q-9 -17 -25.5 -27t-36.5 -10q-29 0 -49.5 20.5t-20.5 49.5h220v-33zM833 363q0 -32 -24.5 -52t-53.5 -30q-34 -12 -78 -18v500l-55 6q-4 0 -6.5 3t-2.5 6q0 10 10 10h1 l209 -20v-405zM525 693q0 -151 -34 -213t-95 -101t-144.5 -63.5t-183.5 -50.5l-17 24q83 35 138 69t89 66.5t50 63.5t22 81.5t5.5 70.5t-0.5 34h-184l-49 -25l-49 25v19h284l84 39zM395 -23q0 -6 2 -10q4 -9 16 -9h247l84 39l84 -39v-19h-545q-26 0 -39 10t-18 23 q-6 14 -6 33v188h-50q-10 0 -10 10t10 10h490l84 39l84 -39v-20h-433v-216z" />
<glyph unicode="&#xacb0;" d="M735 603h-80q-9 -17 -25.5 -27t-36.5 -10q-29 0 -49.5 20.5t-20.5 49.5h212v-33zM704 403h-88q-9 -17 -25.5 -27t-36.5 -10q-29 0 -49.5 20.5t-20.5 49.5h220v-33zM833 423q0 -32 -24.5 -52t-53.5 -30q-34 -12 -78 -18v440l-55 6q-4 0 -6.5 3t-2.5 6q0 10 10 10h1 l209 -20v-345zM525 693q0 -151 -34 -213t-95 -101t-144.5 -63.5t-183.5 -50.5l-17 24q83 35 138 69t89 66.5t50 63.5t22 81.5t5.5 70.5t-0.5 34h-184l-49 -25l-49 25v19h284l84 39zM846 -42v-19h-557q-24 0 -36.5 9.5t-17.5 21.5q-6 13 -7 31v112h-30q-10 0 -10 10t10 10 h482v110h-314l-84 -39l-84 39v19h470l84 39l84 -39v-148h-156h-287v-137q0 -6 2 -10q4 -9 16 -9h210l112 53z" />
<glyph unicode="&#xacb8;" d="M735 603h-80q-9 -17 -25.5 -27t-36.5 -10q-29 0 -49.5 20.5t-20.5 49.5h212v-33zM704 403h-88q-9 -17 -25.5 -27t-36.5 -10q-29 0 -49.5 20.5t-20.5 49.5h220v-33zM833 383q0 -32 -24.5 -52t-53.5 -30q-34 -12 -78 -18v480l-55 6q-4 0 -6.5 3t-2.5 6q0 10 10 10h1 l209 -20v-385zM525 693q0 -151 -34 -213t-95 -101t-144.5 -63.5t-183.5 -50.5l-17 24q83 35 138 69t89 66.5t50 63.5t22 81.5t5.5 70.5t-0.5 34h-184l-49 -25l-49 25v19h284l84 39zM862 -8q7 0 12 -4.5t5 -11.5t-5 -12t-12 -5h-497q-17 -15 -39.5 -24.5t-42.5 -14.5 q-24 -6 -49 -9v320l-55 6q-4 0 -6.5 3t-2.5 6q0 10 10 10h1l209 -20h266l82 38l84 -39v-233zM390 203v-192q0 -10 -3 -19h279v211h-276z" />
<glyph unicode="&#xacb9;" d="M735 603h-80q-9 -17 -25.5 -27t-36.5 -10q-29 0 -49.5 20.5t-20.5 49.5h212v-33zM704 403h-88q-9 -17 -25.5 -27t-36.5 -10q-29 0 -49.5 20.5t-20.5 49.5h220v-33zM833 413q0 -32 -24.5 -52t-53.5 -30q-34 -12 -78 -18v450l-55 6q-4 0 -6.5 3t-2.5 6q0 10 10 10h1 l209 -20v-355zM525 693q0 -151 -34 -193t-95 -81t-144.5 -63.5t-183.5 -50.5l-17 24q83 35 138 69t89 66.5t50 63.5t22 61.5t5.5 50.5t-0.5 34h-184l-49 -25l-49 25v19h284l84 39zM831 272v-265q0 -32 -24.5 -52t-53.5 -30q-34 -12 -78 -18v48h-341q-17 -15 -39.5 -24.5 t-42.5 -14.5q-24 -6 -49 -9v360l-55 6q-4 0 -6.5 3t-2.5 6q0 10 10 10h1l209 -20v-94h316v89l-55 6q-4 0 -6.5 3t-2.5 6q0 10 10 10h1zM675 -12v157h-316v-138q0 -10 -3 -19h319z" />
<glyph unicode="&#xacbb;" d="M735 603h-80q-9 -17 -25.5 -27t-36.5 -10q-29 0 -49.5 20.5t-20.5 49.5h212v-33zM704 403h-88q-9 -17 -25.5 -27t-36.5 -10q-29 0 -49.5 20.5t-20.5 49.5h220v-33zM833 403q0 -32 -24.5 -52t-53.5 -30q-34 -12 -78 -18v460l-55 6q-4 0 -6.5 3t-2.5 6q0 10 10 10h1 l209 -20v-365zM525 693q0 -151 -34 -213t-95 -101t-144.5 -63.5t-183.5 -50.5l-17 24q83 35 138 69t89 66.5t50 63.5t22 81.5t5.5 70.5t-0.5 34h-184l-49 -25l-49 25v19h284l84 39zM529 307q17 0 34 -5.5t29.5 -15t19 -23.5t3.5 -31q-3 -13 -4.5 -20.5t-4 -14.5t-5.5 -14 t-8 -18q10 -5 34 -14.5t53.5 -21.5t61 -26t57.5 -29t42 -30t15 -29q-2 -24 -16 -41.5t-33.5 -25.5t-41 -5.5t-39.5 17.5q-6 6 -29.5 26.5t-51 46t-53.5 50.5t-37 40q-30 -33 -79.5 -59t-106 -46.5t-112 -35.5t-97.5 -26l-12 13q86 33 143.5 80t92 94t49 88t16.5 63h-43 q-10 0 -10 7q0 6 10 6h123z" />
<glyph unicode="&#xacbc;" d="M735 603h-80q-9 -17 -25.5 -27t-36.5 -10q-29 0 -49.5 20.5t-20.5 49.5h212v-33zM704 403h-88q-9 -17 -25.5 -27t-36.5 -10q-29 0 -49.5 20.5t-20.5 49.5h220v-33zM833 393q0 -32 -24.5 -52t-53.5 -30q-34 -12 -78 -18v470l-55 6q-4 0 -6.5 3t-2.5 6q0 10 10 10h1 l209 -20v-375zM525 693q0 -151 -34 -213t-95 -101t-144.5 -63.5t-183.5 -50.5l-17 24q83 35 138 69t89 66.5t50 63.5t22 81.5t5.5 70.5t-0.5 34h-184l-49 -25l-49 25v19h284l84 39zM706 165q15 -9 43 -26.5t55.5 -39.5t47 -46.5t18.5 -47.5q-2 -27 -17.5 -43t-36 -21 t-41.5 1t-34 21q-5 7 -13 20.5t-18 30.5t-22 35t-25 33q-45 -57 -110.5 -102t-146.5 -69l-11 15q23 13 42.5 27t35.5 28q-5 7 -11 21t-13.5 32t-16.5 37t-20 35l-15 -24q-23 -28 -55.5 -54t-70.5 -48t-79.5 -39.5t-81.5 -29.5l-12 15q69 37 110.5 85t64 95.5t30.5 89 t10 66.5h-32q-10 0 -10 8q0 7 10 7h32h2h72q39 0 54.5 -10.5t19.5 -23.5q4 -15 -4 -33q-3 -6 -4.5 -10t-3.5 -8.5t-4 -10.5t-6 -16q10 -6 23.5 -16t27.5 -23t28 -27.5t25 -28.5q15 29 23 57t11 53.5t3.5 46.5t0.5 35h-33q-10 0 -10 8q0 7 10 7h31h2h72q38 0 53 -12t18 -26 q4 -17 -4 -38q-3 -8 -6 -16.5t-8 -19.5z" />
<glyph unicode="&#xacbd;" d="M735 603h-80q-9 -17 -25.5 -27t-36.5 -10q-29 0 -49.5 20.5t-20.5 49.5h212v-33zM704 403h-88q-9 -17 -25.5 -27t-36.5 -10q-29 0 -49.5 20.5t-20.5 49.5h220v-33zM833 373q0 -32 -24.5 -52t-53.5 -30q-34 -12 -78 -18v490l-55 6q-4 0 -6.5 3t-2.5 6q0 10 10 10h1 l209 -20v-395zM525 693q0 -151 -34 -213t-95 -101t-144.5 -63.5t-183.5 -50.5l-17 24q83 35 138 69t89 66.5t50 63.5t22 81.5t5.5 70.5t-0.5 34h-184l-49 -25l-49 25v19h284l84 39zM608 300q47 -6 87.5 -22t70.5 -40.5t47 -56.5t17 -68q0 -39 -21 -71.5t-57 -56t-84.5 -36.5 t-103.5 -13t-103.5 13t-84.5 36.5t-57 56t-21 71.5q0 44 24.5 79t63 59.5t86 37.5t92.5 13q11 0 22 -0.5t22 -1.5zM564 -34q31 0 52.5 11.5t35 31.5t19.5 47t6 57q0 31 -6 59.5t-19.5 50.5t-35 35.5t-52.5 13.5q-32 0 -53.5 -13.5t-34.5 -35.5t-19 -50.5t-6 -59.5 q0 -30 6 -57t19 -47t34.5 -31.5t53.5 -11.5z" />
<glyph unicode="&#xacc1;" horiz-adv-x="885" d="M735 603h-80q-9 -17 -25.5 -27t-36.5 -10q-29 0 -49.5 20.5t-20.5 49.5h212v-33zM704 403h-88q-9 -17 -25.5 -27t-36.5 -10q-29 0 -49.5 20.5t-20.5 49.5h220v-33zM833 383q0 -32 -24.5 -52t-53.5 -30q-34 -12 -78 -18v480l-55 6q-4 0 -6.5 3t-2.5 6q0 10 10 10h1 l209 -20v-385zM525 693q0 -151 -34 -213t-95 -101t-144.5 -63.5t-183.5 -50.5l-17 24q83 35 138 69t89 66.5t50 63.5t22 81.5t5.5 70.5t-0.5 34h-184l-49 -25l-49 25v19h284l84 39zM386 220v-125h242l84 38l84 -38v-19h-410v-121h262l104 58l94 -58v-19h-594q-15 0 -23 5.5 t-12 13.5q-4 9 -5 20v244h-38q-10 0 -10 10t10 10h474l84 38l84 -38v-19h-430z" />
<glyph unicode="&#xacc4;" horiz-adv-x="832" d="M596 79q0 -32 -21 -51.5t-47 -30.5q-30 -12 -68 -18v309h-33q-9 -17 -25.5 -27t-36.5 -10q-29 0 -49.5 20.5t-20.5 49.5h165v167h-13q-9 -17 -25.5 -27t-36.5 -10q-29 0 -49.5 20.5t-20.5 49.5h145v211l-55 6q-9 2 -9 10q0 9 10 9h1l189 -20v-658zM786 19 q0 -32 -21 -51.5t-47 -30.5q-30 -12 -68 -18v843l-55 6q-9 2 -9 10q0 9 10 9h1l189 -20v-748zM367 683q0 -102 -21.5 -187.5t-67.5 -152.5t-117 -115t-171 -74l-12 18q61 31 101 75.5t64.5 94.5t36 101t15.5 95.5t3 78t-1 47.5h-104l-49 -26l-49 26v19h204l84 39z" />
<glyph unicode="&#xacc8;" d="M649 269q0 -32 -21 -51.5t-47 -30.5q-30 -12 -68 -18v563l-55 6q-9 2 -9 10q0 9 10 9h1l189 -20v-468zM849 269q0 -32 -21 -51.5t-47 -30.5q-30 -12 -68 -18v593l-55 6q-9 2 -9 10q0 9 10 9h1l189 -20v-498zM440 693q0 -102 -21.5 -173.5t-67.5 -121.5t-117 -84t-171 -60 l-12 18q61 31 101 68.5t64.5 77.5t36 80t15.5 74.5t3 61t-1 40.5h-124l-49 -26l-49 26v19h224l84 39zM330 -48q-22 0 -33 9t-16 20q-6 13 -7 30v185h-50q-10 0 -10 10t10 10h122q19 1 36 -7.5t29.5 -22t20 -29.5t7.5 -31v-136q0 -6 2 -10q4 -9 16 -9h227l84 39l84 -39v-19 h-522zM539 578h-68q-9 -17 -25.5 -27t-36.5 -10q-29 0 -49.5 20.5t-20.5 49.5h200v-33zM539 378h-68q-9 -17 -25.5 -27t-36.5 -10q-29 0 -49.5 20.5t-20.5 49.5h200v-33z" />
<glyph unicode="&#xaccc;" d="M649 399q0 -32 -21 -51.5t-47 -30.5q-30 -12 -68 -18v433l-55 6q-9 2 -9 10q0 9 10 9h1l189 -20v-338zM849 399q0 -32 -21 -51.5t-47 -30.5q-30 -12 -68 -18v463l-55 6q-9 2 -9 10q0 9 10 9h1l189 -20v-368zM440 693q0 -102 -21.5 -173.5t-67.5 -121.5t-117 -84t-171 -60 l-12 18q61 31 101 68.5t64.5 77.5t36 80t15.5 74.5t3 61t-1 40.5h-124l-49 -26l-49 26v19h224l84 39zM539 578h-68q-9 -17 -25.5 -27t-36.5 -10q-29 0 -49.5 20.5t-20.5 49.5h200v-33zM539 378h-68q-9 -17 -25.5 -27t-36.5 -10q-29 0 -49.5 20.5t-20.5 49.5h200v-33z M865 -42v-19h-567q-24 0 -36.5 9.5t-17.5 21.5q-6 13 -7 31v112h-30q-10 0 -10 10t10 10h482v110h-314l-84 -39l-84 39v19h470l84 39l84 -39v-148h-443v-137q0 -6 2 -10q4 -9 16 -9h200l122 73z" />
<glyph unicode="&#xacd5;" d="M649 399q0 -32 -21 -51.5t-47 -30.5q-30 -12 -68 -18v433l-55 6q-9 2 -9 10q0 9 10 9h1l189 -20v-338zM849 399q0 -32 -21 -51.5t-47 -30.5q-30 -12 -68 -18v463l-55 6q-9 2 -9 10q0 9 10 9h1l189 -20v-368zM440 693q0 -102 -21.5 -173.5t-67.5 -121.5t-117 -84t-171 -60 l-12 18q61 31 101 68.5t64.5 77.5t36 80t15.5 74.5t3 61t-1 40.5h-124l-49 -26l-49 26v19h224l84 39zM539 578h-68q-9 -17 -25.5 -27t-36.5 -10q-29 0 -49.5 20.5t-20.5 49.5h200v-33zM539 378h-68q-9 -17 -25.5 -27t-36.5 -10q-29 0 -49.5 20.5t-20.5 49.5h200v-33z M845 272v-265q0 -32 -24.5 -52t-53.5 -30q-34 -12 -78 -18v48h-291q-17 -15 -39.5 -24.5t-42.5 -14.5q-24 -6 -49 -9v340l-55 6q-4 0 -6.5 3t-2.5 6q0 10 10 10h1l209 -20v-74h266v89l-55 6q-4 0 -6.5 3t-2.5 6q0 10 10 10h1zM689 -12v157h-266v-138q0 -10 -3 -19h269z" />
<glyph unicode="&#xacd7;" d="M649 419q0 -32 -21 -51.5t-47 -30.5q-30 -12 -68 -18v413l-55 6q-9 2 -9 10q0 9 10 9h1l189 -20v-318zM849 399q0 -32 -21 -51.5t-47 -30.5q-30 -12 -68 -18v463l-55 6q-9 2 -9 10q0 9 10 9h1l189 -20v-368zM440 693q0 -102 -21.5 -173.5t-67.5 -121.5t-117 -84t-171 -60 l-12 18q61 31 101 68.5t64.5 77.5t36 80t15.5 74.5t3 61t-1 40.5h-124l-49 -26l-49 26v19h224l84 39zM539 578h-68q-9 -17 -25.5 -27t-36.5 -10q-29 0 -49.5 20.5t-20.5 49.5h200v-33zM539 378h-68q-9 -17 -25.5 -27t-36.5 -10q-29 0 -49.5 20.5t-20.5 49.5h200v-33z M549 307q17 0 34 -5.5t29.5 -15t19 -23.5t3.5 -31q-3 -13 -4.5 -20.5t-4 -14.5t-5.5 -14t-8 -18q10 -5 34 -14.5t53.5 -21.5t61 -26t57.5 -29t42 -30t15 -29q-2 -24 -16 -41.5t-33.5 -25.5t-41 -5.5t-39.5 17.5q-6 6 -29.5 26.5t-51 46t-53.5 50.5t-37 40q-30 -33 -79.5 -59 t-106 -46.5t-112 -35.5t-97.5 -26l-12 13q86 33 143.5 80t92 94t49 88t16.5 63h-43q-10 0 -10 7q0 6 10 6h123z" />
<glyph unicode="&#xace0;" horiz-adv-x="874" d="M818 686q0 -102 -4.5 -184.5t-29 -147.5t-76.5 -112t-147 -78l-12 18q31 45 50 94.5t30 99t15.5 95.5t5 85t-0.5 68t-1 43h-454l-49 -26l-49 26v19h554l84 39zM470 99h226l98 66l98 -66v-20h-766l-59 -26l-59 26v20h306v353q44 -6 78 -18q15 -5 29 -12.5t25 -17.5 t17.5 -23t6.5 -29v-253z" />
<glyph unicode="&#xace1;" horiz-adv-x="888" d="M797 50q0 -24 -13 -41.5t-32 -29.5t-41 -20t-41.5 -12.5t-33 -6.5t-14.5 -2v256h-354l-85 -38l-84 38v19h698v-163zM126 319l-59 -26l-59 26v20h688l98 66l98 -66v-20h-766zM818 726q-12 -86 -34 -143t-54 -95t-74.5 -63t-94.5 -46l-12 18q40 64 60.5 113t29 85.5t9 63.5 t0.5 48h-444l-49 -26l-49 26v19h544l84 39zM470 339h-156v233q44 -6 78 -18q15 -5 29 -12.5t25 -17.5t17.5 -23t6.5 -29v-133z" />
<glyph unicode="&#xace4;" d="M210 -58q-22 0 -33 9t-16 20q-6 13 -7 30v185h-50q-10 0 -10 10t10 10h122q19 1 36 -7.5t29.5 -22t20 -29.5t7.5 -31v-136q0 -6 2 -10q4 -9 16 -9h307l84 39l84 -39v-19h-602zM126 319l-59 -26l-59 26v20h688l98 66l98 -66v-20h-766zM818 726q-12 -86 -34 -143t-54 -95 t-74.5 -63t-94.5 -46l-12 18q40 64 60.5 113t29 85.5t9 63.5t0.5 48h-444l-49 -26l-49 26v19h544l84 39zM470 339h-156v233q44 -6 78 -18q15 -5 29 -12.5t25 -17.5t17.5 -23t6.5 -29v-133z" />
<glyph unicode="&#xace7;" horiz-adv-x="888" d="M315 -33q0 -6 2 -10q4 -9 16 -9h297l84 39l84 -39v-19h-595q-26 0 -39 10t-18 23q-6 14 -6 33v188h-50q-10 0 -10 10t10 10h540l84 39l84 -39v-20h-483v-216zM126 319l-59 -26l-59 26v20h688l98 66l98 -66v-20h-766zM818 726q-12 -86 -34 -143t-54 -95t-74.5 -63 t-94.5 -46l-12 18q40 64 60.5 113t29 85.5t9 63.5t0.5 48h-444l-49 -26l-49 26v19h544l84 39zM470 339h-156v233q44 -6 78 -18q15 -5 29 -12.5t25 -17.5t17.5 -23t6.5 -29v-133z" />
<glyph unicode="&#xace8;" horiz-adv-x="882" d="M798 -52v-19h-587q-24 0 -36.5 9.5t-17.5 21.5q-6 13 -7 31v102h-30q-10 0 -10 10t10 10h512v120h-344l-84 -39l-84 39v19h500l84 39l84 -39v-158h-156h-317v-127q0 -6 2 -10q4 -9 16 -9h240l112 53zM126 319l-59 -26l-59 26v20h688l98 66l98 -66v-20h-766zM818 726 q-12 -86 -34 -143t-54 -95t-74.5 -63t-94.5 -46l-12 18q40 64 60.5 113t29 85.5t9 63.5t0.5 48h-444l-49 -26l-49 26v19h544l84 39zM470 339h-156v233q44 -6 78 -18q15 -5 29 -12.5t25 -17.5t17.5 -23t6.5 -29v-133z" />
<glyph unicode="&#xacea;" horiz-adv-x="888" d="M448 -52v-19h-267q-24 0 -36.5 9.5t-17.5 21.5q-6 13 -7 31v112h-30q-10 0 -10 10t10 10h202v110h-32h-2l-84 -39l-84 39v19h180l84 39l84 -39v-140v-8h-183v-137h34l76 34zM822 -25q7 -2 12 -7t5 -12t-5 -12t-12 -5h-257q-17 -15 -36 -23t-36 -11q-19 -4 -39 -4v365h136 h66l72 38l74 -39v-283zM590 233v-242q0 -10 -3 -19h79v261h-76zM126 319l-59 -26l-59 26v20h688l98 66l98 -66v-20h-766zM818 726q-12 -86 -34 -143t-54 -95t-74.5 -63t-94.5 -46l-12 18q40 64 60.5 113t29 85.5t9 63.5t0.5 48h-444l-49 -26l-49 26v19h544l84 39zM470 339 h-156v233q44 -6 78 -18q15 -5 29 -12.5t25 -17.5t17.5 -23t6.5 -29v-133z" />
<glyph unicode="&#xacec;" d="M448 -52v-19h-267q-24 0 -36.5 9.5t-17.5 21.5q-6 13 -7 31v112h-30q-10 0 -10 10t10 10h202v110h-32h-2l-84 -39l-84 39v19h180l84 39l84 -39v-140v-8h-183v-137h34l76 34zM688 118q15 -9 41.5 -29.5t52 -46t43.5 -53t17 -49.5q-2 -26 -16 -36.5t-32 -11t-35.5 6 t-24.5 14.5q-6 6 -13.5 24t-17 40t-20.5 45t-22 39l-16 -23q-23 -27 -54 -50.5t-68 -43t-77 -34.5t-81 -27l-12 14q56 24 93.5 57t60 69t33.5 73.5t15 71t4 61t1 43.5h-52q-10 0 -10 7t10 7h161q32 0 41.5 -19.5t7 -46.5t-12.5 -55.5t-17 -46.5zM126 319l-59 -26l-59 26v20 h688l98 66l98 -66v-20h-766zM818 726q-12 -86 -34 -143t-54 -95t-74.5 -63t-94.5 -46l-12 18q40 64 60.5 113t29 85.5t9 63.5t0.5 48h-444l-49 -26l-49 26v19h544l84 39zM470 339h-156v233q44 -6 78 -18q15 -5 29 -12.5t25 -17.5t17.5 -23t6.5 -29v-133z" />
<glyph unicode="&#xacef;" d="M448 -52v-19h-267q-24 0 -36.5 9.5t-17.5 21.5q-6 13 -7 31v112h-30q-10 0 -10 10t10 10h202v110h-32h-2l-84 -39l-84 39v19h180l84 39l84 -39v-140v-8h-183v-137h34l76 34zM670 265q10 -15 3 -29t-22 -22.5t-33 -8.5t-29 12q-8 8 -27 28t-32 46q24 12 49 15 q21 2 45.5 -5t45.5 -36zM444 211l-34 -23l-34 23v17h361l54 32l54 -32v-17h-401zM651 216q33 -5 61 -19t48.5 -34.5t32.5 -46.5t12 -56q0 -33 -14.5 -60.5t-39.5 -47t-58.5 -30t-71.5 -10.5t-72 10.5t-59 30t-39.5 47t-14.5 60.5q0 36 17 65.5t43.5 50t59.5 31.5t65 11 q8 0 15 -0.5t15 -1.5zM621 -63q21 0 36 9.5t24.5 26.5t13.5 39t4 48q0 25 -4 49t-13.5 42.5t-24.5 29.5t-36 11q-22 0 -37 -11t-24.5 -29.5t-13.5 -42.5t-4 -49q0 -26 4 -48t13.5 -39t24.5 -26.5t37 -9.5zM126 319l-59 -26l-59 26v20h688l98 66l98 -66v-20h-766zM818 726 q-12 -86 -34 -143t-54 -95t-74.5 -63t-94.5 -46l-12 18q40 64 60.5 113t29 85.5t9 63.5t0.5 48h-444l-49 -26l-49 26v19h544l84 39zM470 339h-156v233q44 -6 78 -18q15 -5 29 -12.5t25 -17.5t17.5 -23t6.5 -29v-133z" />
<glyph unicode="&#xacf0;" d="M802 -18q7 0 12 -4.5t5 -11.5t-5 -12t-12 -5h-527q-17 -15 -39.5 -24.5t-42.5 -14.5q-24 -6 -49 -9v320l-55 6q-4 0 -6.5 3t-2.5 6q0 10 10 10h1l209 -20h296l82 38l84 -39v-233zM300 193v-192q0 -10 -3 -19h309v211h-306zM126 319l-59 -26l-59 26v20h688l98 66l98 -66 v-20h-766zM818 726q-12 -86 -34 -143t-54 -95t-74.5 -63t-94.5 -46l-12 18q40 64 60.5 113t29 85.5t9 63.5t0.5 48h-444l-49 -26l-49 26v19h544l84 39zM470 339h-156v233q44 -6 78 -18q15 -5 29 -12.5t25 -17.5t17.5 -23t6.5 -29v-133z" />
<glyph unicode="&#xacf1;" d="M781 262v-265q0 -32 -24.5 -52t-53.5 -30q-34 -12 -78 -18v48h-341q-17 -15 -39.5 -24.5t-42.5 -14.5q-24 -6 -49 -9v360l-55 6q-4 0 -6.5 3t-2.5 6q0 10 10 10h1l209 -20v-94h316v89l-55 6q-4 0 -6.5 3t-2.5 6q0 10 10 10h1zM625 -22v157h-316v-138q0 -10 -3 -19h319z M126 319l-59 -26l-59 26v20h688l98 66l98 -66v-20h-766zM818 726q-12 -86 -34 -143t-54 -95t-74.5 -63t-94.5 -46l-12 18q40 64 60.5 113t29 85.5t9 63.5t0.5 48h-444l-49 -26l-49 26v19h544l84 39zM470 339h-156v233q44 -6 78 -18q15 -5 29 -12.5t25 -17.5t17.5 -23 t6.5 -29v-133z" />
<glyph unicode="&#xacf3;" d="M459 297q17 0 34 -5.5t29.5 -15t19 -23.5t3.5 -31q-3 -13 -4.5 -20.5t-4 -14.5t-5.5 -14t-8 -18q10 -5 34 -14.5t53.5 -21.5t61 -26t57.5 -29t42 -30t15 -29q-2 -24 -16 -41.5t-33.5 -25.5t-41 -5.5t-39.5 17.5q-6 6 -29.5 26.5t-51 46t-53.5 50.5t-37 40 q-30 -33 -79.5 -59t-106 -46.5t-112 -35.5t-97.5 -26l-12 13q86 33 143.5 80t92 94t49 88t16.5 63h-43q-10 0 -10 7q0 6 10 6h123zM126 319l-59 -26l-59 26v20h688l98 66l98 -66v-20h-766zM818 726q-12 -86 -34 -143t-54 -95t-74.5 -63t-94.5 -46l-12 18q40 64 60.5 113 t29 85.5t9 63.5t0.5 48h-444l-49 -26l-49 26v19h544l84 39zM470 339h-156v233q44 -6 78 -18q15 -5 29 -12.5t25 -17.5t17.5 -23t6.5 -29v-133z" />
<glyph unicode="&#xacf5;" d="M818 726q-12 -86 -34 -143t-54 -95t-74.5 -63t-94.5 -46l-12 18q40 64 60.5 113t29 85.5t9 63.5t0.5 48h-444l-49 -26l-49 26v19h544l84 39zM517 251q58 -5 108 -20.5t86.5 -38.5t57.5 -53t21 -64q0 -36 -25.5 -66.5t-70 -52.5t-104 -34.5t-127.5 -12.5t-127 12.5 t-103.5 34.5t-70 52.5t-25.5 66.5q0 41 30 74t77.5 56t105 35t113.5 12h27t27 -1zM463 -63q38 0 64.5 11t43 29.5t24 43.5t7.5 54t-7.5 56t-24 47.5t-43 33t-64.5 12.5q-39 0 -65 -12.5t-42.5 -33t-23.5 -47.5t-7 -56t7 -54t23.5 -43.5t42.5 -29.5t65 -11zM470 339h226 l98 66l98 -66v-20h-766l-59 -26l-59 26v20h306v233q44 -6 78 -18q15 -5 29 -12.5t25 -17.5t17.5 -23t6.5 -29v-133z" />
<glyph unicode="&#xacf6;" d="M538 159q10 -5 34 -14.5t54 -22t61.5 -26.5t57.5 -29t42.5 -30t15.5 -29q-2 -24 -16 -41.5t-33.5 -25.5t-41 -5.5t-39.5 17.5q-6 6 -29.5 26.5t-51 46t-53.5 50.5t-37 40l-17 -21q-23 -25 -69.5 -47t-101 -40.5t-110 -33t-97.5 -25.5l-12 13q67 25 116.5 60.5t85 73.5 t57 75.5t32.5 67.5h-1h-170l-49 -26l-49 26v20h507h11l78 36l78 -36v-20h-167h-61h-55q24 -5 39 -10t13 -16q-1 -4 -4 -11.5t-6.5 -16t-6.5 -15.5t-5 -11zM126 319l-59 -26l-59 26v20h688l98 66l98 -66v-20h-766zM818 726q-12 -86 -34 -143t-54 -95t-74.5 -63t-94.5 -46 l-12 18q40 64 60.5 113t29 85.5t9 63.5t0.5 48h-444l-49 -26l-49 26v19h544l84 39zM470 339h-156v233q44 -6 78 -18q15 -5 29 -12.5t25 -17.5t17.5 -23t6.5 -29v-133z" />
<glyph unicode="&#xacfc;" horiz-adv-x="915" d="M548 706q0 -102 -3 -181.5t-25.5 -140.5t-73 -105t-145.5 -75l-12 18q46 67 65.5 140.5t25 138.5t2 115t-3.5 71h-224l-49 -26l-49 26v19h324l84 39zM280 99h-146v343q40 -6 73 -18q27 -11 50 -30.5t23 -51.5v-243zM870 478q29 0 49.5 -20.5t20.5 -49.5h-160v-369 q0 -32 -24.5 -52t-53.5 -30q-34 -12 -78 -18v823l-55 6q-9 2 -9 10q0 9 10 9h1l209 -20v-326h28q9 17 25.5 27t36.5 10zM126 89l-59 -26l-59 26v20h423q58 4 95.5 9.5t62 13t38.5 18t24.5 25.5t21.5 35t28 46l7 -10q9 -45 -20 -79q-13 -15 -35 -29t-58 -25t-87 -17.5 t-121 -6.5h-261z" />
<glyph unicode="&#xacfd;" d="M549 716q0 -68 -1.5 -118.5t-8.5 -88.5t-20.5 -65t-38 -48t-61.5 -38.5t-90 -34.5l-10 13q28 51 41 106t17.5 104.5t3 89.5t-1.5 61h-224l-49 -26l-49 26v19h324l84 39zM281 319h-146v243q40 -6 73 -18q27 -11 50 -30.5t23 -51.5v-143zM861 478q29 0 49.5 -20.5 t20.5 -49.5h-160v-57q0 -32 -24.5 -52t-53.5 -30q-34 -12 -78 -18v511l-55 6q-9 2 -9 10q0 9 10 9h1l209 -20v-326h28q9 17 25.5 27t36.5 10zM127 309l-59 -26l-59 26v20h423q58 4 92.5 8t55 10t31.5 15t21.5 23.5t25.5 36.5t44 54l7 -10q9 -45 -20 -79q-13 -15 -35 -29 t-58 -25t-87 -17.5t-121 -6.5h-261zM757 50q0 -24 -13 -41.5t-32 -29.5t-41 -20t-41.5 -12.5t-33 -6.5t-14.5 -2v256h-294l-85 -38l-84 38v19h638v-163z" />
<glyph unicode="&#xad00;" horiz-adv-x="898" d="M549 716q0 -68 -1.5 -118.5t-8.5 -88.5t-20.5 -65t-38 -48t-61.5 -38.5t-90 -34.5l-10 13q28 51 41 106t17.5 104.5t3 89.5t-1.5 61h-224l-49 -26l-49 26v19h324l84 39zM281 319h-146v243q40 -6 73 -18q27 -11 50 -30.5t23 -51.5v-143zM861 478q29 0 49.5 -20.5 t20.5 -49.5h-160v-157q0 -32 -24.5 -52t-53.5 -30q-34 -12 -78 -18v611l-55 6q-9 2 -9 10q0 9 10 9h1l209 -20v-326h28q9 17 25.5 27t36.5 10zM127 309l-59 -26l-59 26v20h423q58 4 92.5 8t55 10t31.5 15t21.5 23.5t25.5 36.5t44 54l7 -10q9 -45 -20 -79q-13 -15 -35 -29 t-58 -25t-87 -17.5t-121 -6.5h-261zM210 -48q-22 0 -33 9t-16 20q-6 13 -7 30v185h-50q-10 0 -10 10t10 10h122q19 1 36 -7.5t29.5 -22t20 -29.5t7.5 -31v-136q0 -6 2 -10q4 -9 16 -9h277l84 39l84 -39v-19h-572z" />
<glyph unicode="&#xad04;" d="M549 716q0 -68 -1.5 -118.5t-8.5 -88.5t-20.5 -65t-38 -48t-61.5 -38.5t-90 -34.5l-10 13q28 51 41 106t17.5 104.5t3 89.5t-1.5 61h-224l-49 -26l-49 26v19h324l84 39zM281 319h-146v243q40 -6 73 -18q27 -11 50 -30.5t23 -51.5v-143zM861 478q29 0 49.5 -20.5 t20.5 -49.5h-160v-7q0 -32 -24.5 -52t-53.5 -30q-34 -12 -78 -18v461l-55 6q-9 2 -9 10q0 9 10 9h1l209 -20v-326h28q9 17 25.5 27t36.5 10zM127 309l-59 -26l-59 26v20h423q58 4 92.5 8t55 10t31.5 15t21.5 23.5t25.5 36.5t44 54l7 -10q9 -45 -20 -79q-13 -15 -35 -29 t-58 -25t-87 -17.5t-121 -6.5h-261zM778 -42v-19h-557q-24 0 -36.5 9.5t-17.5 21.5q-6 13 -7 31v112h-30q-10 0 -10 10t10 10h482v110h-314l-84 -39l-84 39v19h470l84 39l84 -39v-148h-156h-287v-137q0 -6 2 -10q4 -9 16 -9h210l112 53z" />
<glyph unicode="&#xad06;" d="M549 716q0 -68 -1.5 -118.5t-8.5 -88.5t-20.5 -65t-38 -48t-61.5 -38.5t-90 -34.5l-10 13q28 51 41 106t17.5 104.5t3 89.5t-1.5 61h-224l-49 -26l-49 26v19h324l84 39zM418 -42v-19h-267q-24 0 -36.5 9.5t-17.5 21.5q-6 13 -7 31v112h-30q-10 0 -10 10t10 10h202v110 h-32h-2l-84 -39l-84 39v19h180l84 39l84 -39v-140v-8h-183v-137h34l76 34zM792 -15q7 -2 12 -7t5 -12t-5 -12t-12 -5h-257q-17 -15 -36 -23t-36 -11q-19 -4 -39 -4v365h136h66l72 38l74 -39v-283zM560 243v-242q0 -10 -3 -19h79v261h-76zM127 309l-59 -26l-59 26v20h126v233 q40 -6 73 -18q27 -11 50 -30.5t23 -51.5v-133h151q46 3 77 6t51.5 7t33 9.5t21.5 13.5v397l-55 6q-9 2 -9 10q0 9 10 9h1l209 -20v-326h28q9 17 25.5 27t36.5 10q29 0 49.5 -20.5t20.5 -49.5h-160v-7q0 -32 -24.5 -52t-53.5 -30q-34 -12 -78 -18v39q-37 -14 -91.5 -22.5 t-135.5 -8.5h-261z" />
<glyph unicode="&#xad0c;" horiz-adv-x="914" d="M549 716q0 -68 -1.5 -118.5t-8.5 -88.5t-20.5 -65t-38 -48t-61.5 -38.5t-90 -34.5l-10 13q28 51 41 106t17.5 104.5t3 89.5t-1.5 61h-224l-49 -26l-49 26v19h324l84 39zM281 319h-146v243q40 -6 73 -18q27 -11 50 -30.5t23 -51.5v-143zM861 478q29 0 49.5 -20.5 t20.5 -49.5h-160v-17q0 -32 -24.5 -52t-53.5 -30q-34 -12 -78 -18v471l-55 6q-9 2 -9 10q0 9 10 9h1l209 -20v-326h28q9 17 25.5 27t36.5 10zM127 309l-59 -26l-59 26v20h423q58 4 92.5 8t55 10t31.5 15t21.5 23.5t25.5 36.5t44 54l7 -10q9 -45 -20 -79q-13 -15 -35 -29 t-58 -25t-87 -17.5t-121 -6.5h-261zM802 -8q7 0 12 -4.5t5 -11.5t-5 -12t-12 -5h-497q-17 -15 -39.5 -24.5t-42.5 -14.5q-24 -6 -49 -9v320l-55 6q-4 0 -6.5 3t-2.5 6q0 10 10 10h1l209 -20h266l82 38l84 -39v-233zM330 203v-192q0 -10 -3 -19h279v211h-276z" />
<glyph unicode="&#xad0d;" d="M549 716q0 -68 -1.5 -118.5t-8.5 -88.5t-20.5 -65t-38 -48t-61.5 -38.5t-90 -34.5l-10 13q28 51 41 106t17.5 104.5t3 89.5t-1.5 61h-224l-49 -26l-49 26v19h324l84 39zM281 319h-146v243q40 -6 73 -18q27 -11 50 -30.5t23 -51.5v-143zM861 478q29 0 49.5 -20.5 t20.5 -49.5h-160v-7q0 -32 -24.5 -52t-53.5 -30q-34 -12 -78 -18v461l-55 6q-9 2 -9 10q0 9 10 9h1l209 -20v-326h28q9 17 25.5 27t36.5 10zM127 309l-59 -26l-59 26v20h423q58 4 92.5 8t55 10t31.5 15t21.5 23.5t25.5 36.5t44 54l7 -10q9 -45 -20 -79q-13 -15 -35 -29 t-58 -25t-87 -17.5t-121 -6.5h-261zM771 272v-265q0 -32 -24.5 -52t-53.5 -30q-34 -12 -78 -18v48h-341q-17 -15 -39.5 -24.5t-42.5 -14.5q-24 -6 -49 -9v330l-55 6q-4 0 -6.5 3t-2.5 6q0 10 10 10h1l209 -20v-64h316v89l-55 6q-4 0 -6.5 3t-2.5 6q0 10 10 10h1zM615 -12 v157h-316v-138q0 -10 -3 -19h319z" />
<glyph unicode="&#xad0f;" d="M549 716q0 -68 -1.5 -118.5t-8.5 -88.5t-20.5 -65t-38 -48t-61.5 -38.5t-90 -34.5l-10 13q28 51 41 106t17.5 104.5t3 89.5t-1.5 61h-224l-49 -26l-49 26v19h324l84 39zM281 319h-146v243q40 -6 73 -18q27 -11 50 -30.5t23 -51.5v-143zM861 478q29 0 49.5 -20.5 t20.5 -49.5h-160v-7q0 -32 -24.5 -52t-53.5 -30q-34 -12 -78 -18v461l-55 6q-9 2 -9 10q0 9 10 9h1l209 -20v-326h28q9 17 25.5 27t36.5 10zM127 309l-59 -26l-59 26v20h423q58 4 92.5 8t55 10t31.5 15t21.5 23.5t25.5 36.5t44 54l7 -10q9 -45 -20 -79q-13 -15 -35 -29 t-58 -25t-87 -17.5t-121 -6.5h-261zM459 277q17 0 34 -5t29.5 -14t19 -22t3.5 -28q-3 -12 -4.5 -19t-4 -13t-5.5 -13t-8 -17q10 -5 34 -13.5t53.5 -19.5t61 -24t57.5 -26.5t42 -27.5t15 -27q-2 -22 -16 -37.5t-33.5 -23t-41 -5.5t-39.5 16q-6 5 -29.5 24t-51 42.5 t-53.5 46.5t-37 37q-30 -30 -79.5 -54t-106 -43t-112 -32.5t-97.5 -23.5l-12 11q86 31 143.5 74t92 86t49 80.5t16.5 57.5h-43q-10 0 -10 7q0 6 10 6h123z" />
<glyph unicode="&#xad11;" d="M549 716q0 -68 -1.5 -118.5t-8.5 -88.5t-20.5 -65t-38 -48t-61.5 -38.5t-90 -34.5l-10 13q28 51 41 106t17.5 104.5t3 89.5t-1.5 61h-224l-49 -26l-49 26v19h324l84 39zM281 319h-146v243q40 -6 73 -18q27 -11 50 -30.5t23 -51.5v-143zM861 478q29 0 49.5 -20.5 t20.5 -49.5h-160v-7q0 -32 -24.5 -52t-53.5 -30q-34 -12 -78 -18v461l-55 6q-9 2 -9 10q0 9 10 9h1l209 -20v-326h28q9 17 25.5 27t36.5 10zM127 309l-59 -26l-59 26v20h423q58 4 92.5 8t55 10t31.5 15t21.5 23.5t25.5 36.5t44 54l7 -10q9 -45 -20 -79q-13 -15 -35 -29 t-58 -25t-87 -17.5t-121 -6.5h-261zM558 300q47 -6 87.5 -22t70.5 -40.5t47 -56.5t17 -68q0 -39 -21 -71.5t-57 -56t-84.5 -36.5t-103.5 -13t-103.5 13t-84.5 36.5t-57 56t-21 71.5q0 44 24.5 79t63 59.5t86 37.5t92.5 13q11 0 22 -0.5t22 -1.5zM514 -34q31 0 52.5 11.5 t35 31.5t19.5 47t6 57q0 31 -6 59.5t-19.5 50.5t-35 35.5t-52.5 13.5q-32 0 -53.5 -13.5t-34.5 -35.5t-19 -50.5t-6 -59.5q0 -30 6 -57t19 -47t34.5 -31.5t53.5 -11.5z" />
<glyph unicode="&#xad18;" d="M478 696q0 -102 -4.5 -180t-26 -137t-65 -101.5t-121.5 -73.5l-12 18q28 70 41 142t17 134.5t2.5 110t-1.5 68.5h-174l-49 -26l-49 26v19h274l84 39zM126 139l-59 -26l-59 26v20h86v323q40 -6 73 -18q27 -11 50 -30.5t23 -51.5v-223h191l77 6v567l-55 6q-9 2 -9 10 q0 9 10 9h1l189 -20v-296h74v321l-55 6q-9 2 -9 10q0 9 10 9h1l189 -20v-748q0 -32 -21 -51.5t-47 -30.5q-30 -12 -68 -18v489h-74v-329q0 -32 -21 -51.5t-47 -30.5q-30 -12 -68 -18v166q-50 -6 -121 -6h-261z" />
<glyph unicode="&#xad1c;" d="M854 279q0 -32 -21 -51.5t-47 -30.5q-30 -12 -68 -18v309h-74v-199q0 -32 -21 -51.5t-47 -30.5q-30 -12 -68 -18v543l-55 6q-9 2 -9 10q0 9 10 9h1l189 -20v-216h74v241l-55 6q-9 2 -9 10q0 9 10 9h1l189 -20v-488zM280 -48q-22 0 -33 9t-16 20q-6 13 -7 30v185h-50 q-10 0 -10 10t10 10h122q19 1 36 -7.5t29.5 -22t20 -29.5t7.5 -31v-136q0 -6 2 -10q4 -9 16 -9h277l84 39l84 -39v-19h-572zM240 299h27q21 65 30.5 124.5t11.5 109t0.5 86.5t-1.5 58h-174l-49 -26l-49 26v19h274l84 39l84 -39q0 -94 -3.5 -157.5t-19.5 -107t-48 -74 t-89 -58.5h113q51 4 83 7t53 8q17 4 20 6.5t-0.5 6.5t-10 9.5t-8 15t5 23t28.5 33.5q39 -37 33 -65q-3 -12 -15.5 -23.5t-41 -20.5t-75 -14.5t-116.5 -5.5h-261l-59 -26l-59 26v20h86v223q40 -6 73 -18q27 -11 50 -30.5t23 -51.5v-123z" />
<glyph unicode="&#xad20;" d="M854 409q0 -32 -21 -51.5t-47 -30.5q-30 -12 -68 -18v179h-74v-75q0 -32 -21 -51.5t-47 -30.5q-30 -12 -68 -18v419l-55 6q-9 2 -9 10q0 9 10 9h1l189 -20v-216h74v241l-55 6q-9 2 -9 10q0 9 10 9h1l189 -20v-358zM240 319h27q21 65 30.5 121.5t11.5 102t0.5 79.5 t-1.5 55h-174l-49 -26l-49 26v19h274l84 39l84 -39q0 -94 -3.5 -154t-19.5 -100.5t-48 -67.5t-89 -55h113q51 4 83 9t53 10q17 4 20 7.5t0 8.5t-9 12t-7.5 17.5t5 25t28.5 34.5q3 15 14 10t18 -21t4 -38.5t-28 -43.5t-78 -36t-147 -15h-261l-59 -26l-59 26v20h86v223 q40 -6 73 -18q27 -11 50 -30.5t23 -51.5v-123zM875 -42v-19h-567q-24 0 -36.5 9.5t-17.5 21.5q-6 13 -7 31v112h-30q-10 0 -10 10t10 10h482v110h-314l-84 -39l-84 39v19h470l84 39l84 -39v-148h-443v-137q0 -6 2 -10q4 -9 16 -9h200l122 73z" />
<glyph unicode="&#xad29;" d="M854 409q0 -32 -21 -51.5t-47 -30.5q-30 -12 -68 -18v179h-74v-75q0 -32 -21 -51.5t-47 -30.5q-30 -12 -68 -18v419l-55 6q-9 2 -9 10q0 9 10 9h1l189 -20v-216h74v241l-55 6q-9 2 -9 10q0 9 10 9h1l189 -20v-358zM240 319h27q21 65 30.5 121.5t11.5 102t0.5 79.5 t-1.5 55h-174l-49 -26l-49 26v19h274l84 39l84 -39q0 -94 -3.5 -154t-19.5 -100.5t-48 -67.5t-89 -55h113q51 4 83 9t53 10q17 4 20 7.5t0 8.5t-9 12t-7.5 17.5t5 25t28.5 34.5q3 15 14 10t18 -21t4 -38.5t-28 -43.5t-78 -36t-147 -15h-261l-59 -26l-59 26v20h86v223 q40 -6 73 -18q27 -11 50 -30.5t23 -51.5v-123zM845 272v-265q0 -32 -24.5 -52t-53.5 -30q-34 -12 -78 -18v48h-291q-17 -15 -39.5 -24.5t-42.5 -14.5q-24 -6 -49 -9v340l-55 6q-4 0 -6.5 3t-2.5 6q0 10 10 10h1l209 -20v-74h266v89l-55 6q-4 0 -6.5 3t-2.5 6q0 10 10 10h1z M689 -12v157h-266v-138q0 -10 -3 -19h269z" />
<glyph unicode="&#xad2c;" d="M854 409q0 -32 -21 -51.5t-47 -30.5q-30 -12 -68 -18v179h-74v-75q0 -32 -21 -51.5t-47 -30.5q-30 -12 -68 -18v419l-55 6q-9 2 -9 10q0 9 10 9h1l189 -20v-216h74v241l-55 6q-9 2 -9 10q0 9 10 9h1l189 -20v-358zM240 319h27q21 65 30.5 121.5t11.5 102t0.5 79.5 t-1.5 55h-174l-49 -26l-49 26v19h274l84 39l84 -39q0 -94 -3.5 -154t-19.5 -100.5t-48 -67.5t-89 -55h113q51 4 83 9t53 10q17 4 20 7.5t0 8.5t-9 12t-7.5 17.5t5 25t28.5 34.5q3 15 14 10t18 -21t4 -38.5t-28 -43.5t-78 -36t-147 -15h-261l-59 -26l-59 26v20h86v223 q40 -6 73 -18q27 -11 50 -30.5t23 -51.5v-123zM706 178q15 -8 43 -24t55.5 -36.5t47 -43t18.5 -43.5q-2 -25 -17.5 -39.5t-36 -19t-41.5 0.5t-34 19q-5 6 -13 19t-18 28.5t-22 32t-25 30.5q-45 -52 -110.5 -93.5t-146.5 -63.5l-11 13q46 24 78 51q-5 6 -11 19t-13.5 29.5 t-16.5 34t-20 32.5l-15 -22q-23 -26 -55.5 -49.5t-70.5 -44t-79.5 -36.5t-81.5 -27l-12 13q69 34 110.5 78.5t64 88t30.5 81.5t10 61h-32q-10 0 -10 8q0 6 10 6h32h2h72q39 0 54.5 -10t19.5 -21q4 -13 -4 -30q-3 -6 -4.5 -9.5t-3.5 -7.5t-4 -9.5t-6 -15.5q10 -5 23.5 -14.5 t27.5 -21.5t28 -25t25 -26q15 27 23 52.5t11 49t3.5 42.5t0.5 32h-33q-10 0 -10 8q0 6 10 6h31h2h72q38 0 53 -11t18 -24q4 -16 -4 -35q-3 -7 -6 -14.5t-8 -18.5z" />
<glyph unicode="&#xad2d;" d="M854 409q0 -32 -21 -51.5t-47 -30.5q-30 -12 -68 -18v179h-74v-75q0 -32 -21 -51.5t-47 -30.5q-30 -12 -68 -18v419l-55 6q-9 2 -9 10q0 9 10 9h1l189 -20v-216h74v241l-55 6q-9 2 -9 10q0 9 10 9h1l189 -20v-358zM240 319h27q21 65 30.5 121.5t11.5 102t0.5 79.5 t-1.5 55h-174l-49 -26l-49 26v19h274l84 39l84 -39q0 -94 -3.5 -154t-19.5 -100.5t-48 -67.5t-89 -55h113q51 4 83 9t53 10q17 4 20 7.5t0 8.5t-9 12t-7.5 17.5t5 25t28.5 34.5q3 15 14 10t18 -21t4 -38.5t-28 -43.5t-78 -36t-147 -15h-261l-59 -26l-59 26v20h86v223 q40 -6 73 -18q27 -11 50 -30.5t23 -51.5v-123zM621 300q47 -6 87.5 -22t70.5 -40.5t47 -56.5t17 -68q0 -39 -21 -71.5t-57 -56t-84.5 -36.5t-103.5 -13t-103.5 13t-84.5 36.5t-57 56t-21 71.5q0 44 24.5 79t63 59.5t86 37.5t92.5 13q11 0 22 -0.5t22 -1.5zM577 -34 q31 0 52.5 11.5t35 31.5t19.5 47t6 57q0 31 -6 59.5t-19.5 50.5t-35 35.5t-52.5 13.5q-32 0 -53.5 -13.5t-34.5 -35.5t-19 -50.5t-6 -59.5q0 -30 6 -57t19 -47t34.5 -31.5t53.5 -11.5z" />
<glyph unicode="&#xad34;" horiz-adv-x="832" d="M548 706q0 -102 -3 -181.5t-25.5 -140.5t-73 -105t-145.5 -75l-12 18q46 67 65.5 140.5t25 138.5t2 115t-3.5 71h-224l-49 -26l-49 26v19h324l84 39zM280 99h-146v343q40 -6 73 -18q27 -11 50 -30.5t23 -51.5v-243zM780 39q0 -32 -24.5 -52t-53.5 -30q-34 -12 -78 -18 v823l-55 6q-9 2 -9 10q0 9 10 9h1l209 -20v-728zM126 89l-59 -26l-59 26v20h423q58 4 95.5 9.5t62 13t38.5 18t24.5 25.5t21.5 35t28 46l7 -10q9 -45 -20 -79q-13 -15 -35 -29t-58 -25t-87 -17.5t-121 -6.5h-261z" />
<glyph unicode="&#xad35;" horiz-adv-x="852" d="M549 716q0 -68 -1.5 -118.5t-8.5 -88.5t-20.5 -65t-38 -48t-61.5 -38.5t-90 -34.5l-10 13q28 51 41 106t17.5 104.5t3 89.5t-1.5 61h-224l-49 -26l-49 26v19h324l84 39zM797 50q0 -24 -13 -41.5t-32 -29.5t-41 -20t-41.5 -12.5t-33 -6.5t-14.5 -2v256h-294l-85 -38 l-84 38v19h638v-163zM127 309l-59 -26l-59 26v20h126v233q40 -6 73 -18q27 -11 50 -30.5t23 -51.5v-133h151q56 4 94 10t63 14t40 18.5t26 24.5v366l-55 6q-9 2 -9 10q0 9 10 9h1l209 -20v-406q0 -32 -24.5 -52t-53.5 -30q-34 -12 -78 -18v98q-35 -21 -98 -35.5t-169 -14.5 h-261z" />
<glyph unicode="&#xad38;" horiz-adv-x="842" d="M240 -48q-22 0 -33 9t-16 20q-6 13 -7 30v185h-50q-10 0 -10 10t10 10h122q19 1 36 -7.5t29.5 -22t20 -29.5t7.5 -31v-136q0 -6 2 -10q4 -9 16 -9h277l84 39l84 -39v-19h-572zM549 716q0 -68 -1.5 -118.5t-8.5 -88.5t-20.5 -65t-38 -48t-61.5 -38.5t-90 -34.5l-10 13 q28 51 41 106t17.5 104.5t3 89.5t-1.5 61h-224l-49 -26l-49 26v19h324l84 39zM281 319h-146v243q40 -6 73 -18q27 -11 50 -30.5t23 -51.5v-143zM811 271q0 -32 -24.5 -52t-53.5 -30q-34 -12 -78 -18v591l-55 6q-9 2 -9 10q0 9 10 9h1l209 -20v-496zM127 309l-59 -26l-59 26 v20h423q58 5 96 11t63.5 14t40 19.5t25.5 26.5t20.5 33.5t24.5 42.5l7 -10q9 -45 -20 -79q-13 -15 -35 -29t-58 -25t-87 -17.5t-121 -6.5h-261z" />
<glyph unicode="&#xad3c;" horiz-adv-x="842" d="M808 -42v-19h-557q-24 0 -36.5 9.5t-17.5 21.5q-6 13 -7 31v112h-30q-10 0 -10 10t10 10h482v110h-314l-84 -39l-84 39v19h470l84 39l84 -39v-148h-156h-287v-137q0 -6 2 -10q4 -9 16 -9h210l112 53zM549 716q0 -68 -1.5 -118.5t-8.5 -88.5t-20.5 -65t-38 -48 t-61.5 -38.5t-90 -34.5l-10 13q28 51 41 106t17.5 104.5t3 89.5t-1.5 61h-224l-49 -26l-49 26v19h324l84 39zM281 319h-146v243q40 -6 73 -18q27 -11 50 -30.5t23 -51.5v-143zM811 411q0 -32 -24.5 -52t-53.5 -30q-34 -12 -78 -18v451l-55 6q-9 2 -9 10q0 9 10 9h1l209 -20 v-356zM127 309l-59 -26l-59 26v20h423q58 5 96 11t63.5 14t40 19.5t25.5 26.5t20.5 33.5t24.5 42.5l7 -10q9 -45 -20 -79q-13 -15 -35 -29t-58 -25t-87 -17.5t-121 -6.5h-261z" />
<glyph unicode="&#xad44;" horiz-adv-x="835" d="M549 716q0 -68 -1.5 -118.5t-8.5 -88.5t-20.5 -65t-38 -48t-61.5 -38.5t-90 -34.5l-10 13q28 51 41 106t17.5 104.5t3 89.5t-1.5 61h-224l-49 -26l-49 26v19h324l84 39zM281 319h-146v243q40 -6 73 -18q27 -11 50 -30.5t23 -51.5v-143zM832 -8q7 0 12 -4.5t5 -11.5 t-5 -12t-12 -5h-497q-17 -15 -39.5 -24.5t-42.5 -14.5q-24 -6 -49 -9v320l-55 6q-4 0 -6.5 3t-2.5 6q0 10 10 10h1l209 -20h266l82 38l84 -39v-233zM360 203v-192q0 -10 -3 -19h279v211h-276zM811 381q0 -32 -24.5 -52t-53.5 -30q-34 -12 -78 -18v481l-55 6q-9 2 -9 10 q0 9 10 9h1l209 -20v-386zM127 309l-59 -26l-59 26v20h423q58 5 96 11t63.5 14t40 19.5t25.5 26.5t20.5 33.5t24.5 42.5l7 -10q9 -45 -20 -79q-13 -15 -35 -29t-58 -25t-87 -17.5t-121 -6.5h-261z" />
<glyph unicode="&#xad45;" horiz-adv-x="838" d="M549 716q0 -68 -1.5 -118.5t-8.5 -88.5t-20.5 -65t-38 -48t-61.5 -38.5t-90 -34.5l-10 13q28 51 41 106t17.5 104.5t3 89.5t-1.5 61h-224l-49 -26l-49 26v19h324l84 39zM281 319h-146v243q40 -6 73 -18q27 -11 50 -30.5t23 -51.5v-143zM811 411q0 -32 -24.5 -52 t-53.5 -30q-34 -12 -78 -18v451l-55 6q-9 2 -9 10q0 9 10 9h1l209 -20v-356zM127 309l-59 -26l-59 26v20h423q58 5 96 11t63.5 14t40 19.5t25.5 26.5t20.5 33.5t24.5 42.5l7 -10q9 -45 -20 -79q-13 -15 -35 -29t-58 -25t-87 -17.5t-121 -6.5h-261zM801 272v-265 q0 -32 -24.5 -52t-53.5 -30q-34 -12 -78 -18v48h-341q-17 -15 -39.5 -24.5t-42.5 -14.5q-24 -6 -49 -9v340l-55 6q-4 0 -6.5 3t-2.5 6q0 10 10 10h1l209 -20v-74h316v89l-55 6q-4 0 -6.5 3t-2.5 6q0 10 10 10h1zM645 -12v157h-316v-138q0 -10 -3 -19h319z" />
<glyph unicode="&#xad47;" d="M549 716q0 -68 -1.5 -118.5t-8.5 -88.5t-20.5 -65t-38 -48t-61.5 -38.5t-90 -34.5l-10 13q28 51 41 106t17.5 104.5t3 89.5t-1.5 61h-224l-49 -26l-49 26v19h324l84 39zM281 319h-146v243q40 -6 73 -18q27 -11 50 -30.5t23 -51.5v-143zM811 411q0 -32 -24.5 -52 t-53.5 -30q-34 -12 -78 -18v451l-55 6q-9 2 -9 10q0 9 10 9h1l209 -20v-356zM127 309l-59 -26l-59 26v20h423q58 5 96 11t63.5 14t40 19.5t25.5 26.5t20.5 33.5t24.5 42.5l7 -10q9 -45 -20 -79q-13 -15 -35 -29t-58 -25t-87 -17.5t-121 -6.5h-261zM499 288q17 0 34 -5 t29.5 -14.5t19 -23t3.5 -29.5q-3 -12 -4.5 -19.5t-4 -13.5t-5.5 -13t-8 -17q10 -5 34 -14t53.5 -20.5t61 -25t57.5 -27.5t42 -28.5t15 -27.5q-2 -23 -16 -39.5t-33.5 -24.5t-41 -5.5t-39.5 17.5q-6 5 -29.5 25t-51 44t-53.5 48t-37 38q-30 -32 -79.5 -56.5t-106 -44 t-112 -34t-97.5 -24.5l-12 12q86 32 143.5 76.5t92 89.5t49 83.5t16.5 59.5h-43q-10 0 -10 7q0 6 10 6h123z" />
<glyph unicode="&#xad49;" horiz-adv-x="835" d="M549 716q0 -68 -1.5 -118.5t-8.5 -88.5t-20.5 -65t-38 -48t-61.5 -38.5t-90 -34.5l-10 13q28 51 41 106t17.5 104.5t3 89.5t-1.5 61h-224l-49 -26l-49 26v19h324l84 39zM281 319h-146v243q40 -6 73 -18q27 -11 50 -30.5t23 -51.5v-143zM811 361q0 -32 -24.5 -52 t-53.5 -30q-34 -12 -78 -18v501l-55 6q-9 2 -9 10q0 9 10 9h1l209 -20v-406zM127 309l-59 -26l-59 26v20h423q58 5 96 11t63.5 14t40 19.5t25.5 26.5t20.5 33.5t24.5 42.5l7 -10q9 -45 -20 -79q-13 -15 -35 -29t-58 -25t-87 -17.5t-121 -6.5h-261zM578 300q47 -6 87.5 -22 t70.5 -40.5t47 -56.5t17 -68q0 -39 -21 -71.5t-57 -56t-84.5 -36.5t-103.5 -13t-103.5 13t-84.5 36.5t-57 56t-21 71.5q0 44 24.5 79t63 59.5t86 37.5t92.5 13q11 0 22 -0.5t22 -1.5zM534 -34q31 0 52.5 11.5t35 31.5t19.5 47t6 57q0 31 -6 59.5t-19.5 50.5t-35 35.5 t-52.5 13.5q-32 0 -53.5 -13.5t-34.5 -35.5t-19 -50.5t-6 -59.5q0 -30 6 -57t19 -47t34.5 -31.5t53.5 -11.5z" />
<glyph unicode="&#xad50;" horiz-adv-x="848" d="M787 706q0 -102 -4.5 -187.5t-29 -154t-76.5 -119t-147 -81.5l-12 18q31 45 50 96t30 102.5t15.5 100.5t5 90t-0.5 71.5t-1 44.5h-454l-49 -26l-49 26v19h554l84 39zM549 99h116l98 66l98 -66v-20h-766l-59 -26l-59 26v20h186v333q44 -6 78 -18q15 -5 29 -12.5t25 -17.5 t17.5 -23t6.5 -29v-233h74v393q44 -6 78 -18q15 -5 29 -12.5t25 -17.5t17.5 -23t6.5 -29v-293z" />
<glyph unicode="&#xad54;" horiz-adv-x="861" d="M108 289l-59 -26l-59 26v20h688l98 66l98 -66v-20h-766zM800 736q-12 -86 -34 -143t-54 -95t-74.5 -63t-94.5 -46l-12 18q40 64 60.5 113t29 85.5t9 63.5t0.5 48h-444l-49 -26l-49 26v19h544l84 39zM352 309h-156v233q44 -6 78 -18q15 -5 29 -12.5t25 -17.5t17.5 -23 t6.5 -29v-133zM602 309h-156v233q44 -6 78 -18q15 -5 29 -12.5t25 -17.5t17.5 -23t6.5 -29v-133zM192 -58q-22 0 -33 9t-16 20q-6 13 -7 30v185h-50q-10 0 -10 10t10 10h122q19 1 36 -7.5t29.5 -22t20 -29.5t7.5 -31v-136q0 -6 2 -10q4 -9 16 -9h307l84 39l84 -39v-19h-602z " />
<glyph unicode="&#xad58;" horiz-adv-x="863" d="M105 329l-59 -26l-59 26v20h688l98 66l98 -66v-20h-766zM797 736q-12 -86 -34 -143t-54 -95t-74.5 -63t-94.5 -46l-12 18q40 64 60.5 113t29 85.5t9 63.5t0.5 48h-444l-49 -26l-49 26v19h544l84 39zM349 349h-156v233q44 -6 78 -18q15 -5 29 -12.5t25 -17.5t17.5 -23 t6.5 -29v-133zM599 349h-156v233q44 -6 78 -18q15 -5 29 -12.5t25 -17.5t17.5 -23t6.5 -29v-133zM777 -52v-19h-587q-24 0 -36.5 9.5t-17.5 21.5q-6 13 -7 31v102h-30q-10 0 -10 10t10 10h512v120h-344l-84 -39l-84 39v19h500l84 39l84 -39v-158h-156h-317v-127q0 -6 2 -10 q4 -9 16 -9h240l112 53z" />
<glyph unicode="&#xad61;" horiz-adv-x="858" d="M105 329l-59 -26l-59 26v20h688l98 66l98 -66v-20h-766zM797 736q-12 -86 -34 -143t-54 -95t-74.5 -63t-94.5 -46l-12 18q40 64 60.5 113t29 85.5t9 63.5t0.5 48h-444l-49 -26l-49 26v19h544l84 39zM349 349h-156v233q44 -6 78 -18q15 -5 29 -12.5t25 -17.5t17.5 -23 t6.5 -29v-133zM599 349h-156v233q44 -6 78 -18q15 -5 29 -12.5t25 -17.5t17.5 -23t6.5 -29v-133zM781 262v-265q0 -32 -24.5 -52t-53.5 -30q-34 -12 -78 -18v48h-341q-17 -15 -39.5 -24.5t-42.5 -14.5q-24 -6 -49 -9v360l-55 6q-4 0 -6.5 3t-2.5 6q0 10 10 10h1l209 -20v-94 h316v89l-55 6q-4 0 -6.5 3t-2.5 6q0 10 10 10h1zM625 -22v157h-316v-138q0 -10 -3 -19h319z" />
<glyph unicode="&#xad63;" horiz-adv-x="863" d="M105 329l-59 -26l-59 26v20h688l98 66l98 -66v-20h-766zM797 736q-12 -86 -34 -143t-54 -95t-74.5 -63t-94.5 -46l-12 18q40 64 60.5 113t29 85.5t9 63.5t0.5 48h-444l-49 -26l-49 26v19h544l84 39zM349 349h-156v233q44 -6 78 -18q15 -5 29 -12.5t25 -17.5t17.5 -23 t6.5 -29v-133zM599 349h-156v233q44 -6 78 -18q15 -5 29 -12.5t25 -17.5t17.5 -23t6.5 -29v-133zM459 297q17 0 34 -5.5t29.5 -15t19 -23.5t3.5 -31q-3 -13 -4.5 -20.5t-4 -14.5t-5.5 -14t-8 -18q10 -5 34 -14.5t53.5 -21.5t61 -26t57.5 -29t42 -30t15 -29q-2 -24 -16 -41.5 t-33.5 -25.5t-41 -5.5t-39.5 17.5q-6 6 -29.5 26.5t-51 46t-53.5 50.5t-37 40q-30 -33 -79.5 -59t-106 -46.5t-112 -35.5t-97.5 -26l-12 13q86 33 143.5 80t92 94t49 88t16.5 63h-43q-10 0 -10 7q0 6 10 6h123z" />
<glyph unicode="&#xad6c;" horiz-adv-x="879" d="M818 726q0 -102 -5.5 -177.5t-28.5 -132.5t-70.5 -99t-132.5 -76l-12 17q37 66 54 136.5t22.5 133t4 110.5t-1.5 69h-454l-49 -26l-49 26v19h554l84 39zM510 239v-200q0 -32 -24.5 -52t-53.5 -30q-34 -12 -78 -18v300h-228l-59 -26l-59 26v20h688l98 66l98 -66v-20h-382z " />
<glyph unicode="&#xad6d;" horiz-adv-x="879" d="M797 50q0 -24 -13 -41.5t-32 -29.5t-41 -20t-41.5 -12.5t-33 -6.5t-14.5 -2v256h-354l-85 -38l-84 38v19h698v-163zM818 736q-12 -86 -34 -143t-54 -95t-74.5 -63t-94.5 -46l-12 18q40 64 60.5 113t29 85.5t9 63.5t0.5 48h-444l-49 -26l-49 26v19h544l84 39zM540 369v-60 q0 -32 -24.5 -52t-53.5 -30q-34 -12 -78 -18v160h-258l-59 -26l-59 26v20h688l98 66l98 -66v-20h-352z" />
<glyph unicode="&#xad70;" horiz-adv-x="881" d="M126 369l-59 -26l-59 26v20h688l98 66l98 -66v-20h-766zM818 736q-12 -86 -34 -143t-54 -95t-74.5 -63t-94.5 -46l-12 18q40 64 60.5 113t29 85.5t9 63.5t0.5 48h-444l-49 -26l-49 26v19h544l84 39zM540 219q0 -32 -24.5 -52t-53.5 -30q-34 -12 -78 -18v253h156v-153z M210 -48q-22 0 -33 9t-16 20q-6 13 -7 30v185h-50q-10 0 -10 10t10 10h122q19 1 36 -7.5t29.5 -22t20 -29.5t7.5 -31v-136q0 -6 2 -10q4 -9 16 -9h307l84 39l84 -39v-19h-602z" />
<glyph unicode="&#xad73;" horiz-adv-x="884" d="M126 369l-59 -26l-59 26v20h688l98 66l98 -66v-20h-766zM818 736q-12 -86 -34 -143t-54 -95t-74.5 -63t-94.5 -46l-12 18q40 64 60.5 113t29 85.5t9 63.5t0.5 48h-444l-49 -26l-49 26v19h544l84 39zM540 289q0 -32 -24.5 -52t-53.5 -30q-34 -12 -78 -18v183h156v-83z M315 -33q0 -6 2 -10q4 -9 16 -9h297l84 39l84 -39v-19h-595q-26 0 -39 10t-18 23q-6 14 -6 33v188h-50q-10 0 -10 10t10 10h540l84 39l84 -39v-20h-483v-216z" />
<glyph unicode="&#xad74;" horiz-adv-x="879" d="M126 369l-59 -26l-59 26v20h688l98 66l98 -66v-20h-766zM818 736q-12 -86 -34 -143t-54 -95t-74.5 -63t-94.5 -46l-12 18q40 64 60.5 113t29 85.5t9 63.5t0.5 48h-444l-49 -26l-49 26v19h544l84 39zM540 344q0 -32 -24.5 -52t-53.5 -30q-34 -12 -78 -18v128h156v-28z M798 -52v-19h-587q-24 0 -36.5 9.5t-17.5 21.5q-6 13 -7 31v102h-30q-10 0 -10 10t10 10h512v120h-344l-84 -39l-84 39v19h500l84 39l84 -39v-158h-156h-317v-127q0 -6 2 -10q4 -9 16 -9h240l112 53z" />
<glyph unicode="&#xad75;" horiz-adv-x="881" d="M126 369l-59 -26l-59 26v20h688l98 66l98 -66v-20h-766zM818 736q-12 -86 -34 -143t-54 -95t-74.5 -63t-94.5 -46l-12 18q40 64 60.5 113t29 85.5t9 63.5t0.5 48h-444l-49 -26l-49 26v19h544l84 39zM540 369q0 -32 -24.5 -52t-53.5 -30q-34 -12 -78 -18v103h156v-3z M488 -51v-19h-267q-24 0 -36.5 9.5t-17.5 21.5q-6 13 -7 31v112h-30q-10 0 -10 10t10 10h192v110h-22h-2l-84 -39l-84 39v19h180l84 39l84 -39v-19v-121v-8h-156h-7v-31v-5v-101h14l76 34zM777 41q0 -24 -13 -41.5t-32 -29.5t-41 -20t-41.5 -12.5t-33 -6.5t-14.5 -2v306h-4 l-65 -38l-74 38v19h318v-213z" />
<glyph unicode="&#xad76;" horiz-adv-x="884" d="M126 369l-59 -26l-59 26v20h688l98 66l98 -66v-20h-766zM818 736q-12 -86 -34 -143t-54 -95t-74.5 -63t-94.5 -46l-12 18q40 64 60.5 113t29 85.5t9 63.5t0.5 48h-444l-49 -26l-49 26v19h544l84 39zM540 369q0 -32 -24.5 -52t-53.5 -30q-34 -12 -78 -18v103h156v-3z M448 -52v-19h-267q-24 0 -36.5 9.5t-17.5 21.5q-6 13 -7 31v112h-30q-10 0 -10 10t10 10h202v110h-32h-2l-84 -39l-84 39v19h180l84 39l84 -39v-140v-8h-183v-137h34l76 34zM822 -25q7 -2 12 -7t5 -12t-5 -12t-12 -5h-257q-17 -15 -36 -23t-36 -11q-19 -4 -39 -4v365h136h66 l72 38l74 -39v-283zM590 233v-242q0 -10 -3 -19h79v261h-76z" />
<glyph unicode="&#xad7b;" horiz-adv-x="879" d="M126 369l-59 -26l-59 26v20h688l98 66l98 -66v-20h-766zM818 736q-12 -86 -34 -143t-54 -95t-74.5 -63t-94.5 -46l-12 18q40 64 60.5 113t29 85.5t9 63.5t0.5 48h-444l-49 -26l-49 26v19h544l84 39zM540 369q0 -32 -24.5 -52t-53.5 -30q-34 -12 -78 -18v103h156v-3z M448 -52v-19h-267q-24 0 -36.5 9.5t-17.5 21.5q-6 13 -7 31v112h-30q-10 0 -10 10t10 10h202v110h-32h-2l-84 -39l-84 39v19h180l84 39l84 -39v-140v-8h-183v-137h34l76 34zM670 265q10 -15 3 -29t-22 -22.5t-33 -8.5t-29 12q-8 8 -27 28t-32 46q24 12 49 15q21 2 45.5 -5 t45.5 -36zM444 211l-34 -23l-34 23v17h361l54 32l54 -32v-17h-401zM651 216q33 -5 61 -19t48.5 -34.5t32.5 -46.5t12 -56q0 -33 -14.5 -60.5t-39.5 -47t-58.5 -30t-71.5 -10.5t-72 10.5t-59 30t-39.5 47t-14.5 60.5q0 36 17 65.5t43.5 50t59.5 31.5t65 11q8 0 15 -0.5 t15 -1.5zM621 -63q21 0 36 9.5t24.5 26.5t13.5 39t4 48q0 25 -4 49t-13.5 42.5t-24.5 29.5t-36 11q-22 0 -37 -11t-24.5 -29.5t-13.5 -42.5t-4 -49q0 -26 4 -48t13.5 -39t24.5 -26.5t37 -9.5z" />
<glyph unicode="&#xad7c;" horiz-adv-x="879" d="M126 369l-59 -26l-59 26v20h688l98 66l98 -66v-20h-766zM818 736q-12 -86 -34 -143t-54 -95t-74.5 -63t-94.5 -46l-12 18q40 64 60.5 113t29 85.5t9 63.5t0.5 48h-444l-49 -26l-49 26v19h544l84 39zM540 309q0 -32 -24.5 -52t-53.5 -30q-34 -12 -78 -18v163h156v-63z M802 -18q7 0 12 -4.5t5 -11.5t-5 -12t-12 -5h-527q-17 -15 -39.5 -24.5t-42.5 -14.5q-24 -6 -49 -9v320l-55 6q-4 0 -6.5 3t-2.5 6q0 10 10 10h1l209 -20h296l82 38l84 -39v-233zM300 193v-192q0 -10 -3 -19h309v211h-306z" />
<glyph unicode="&#xad7d;" horiz-adv-x="879" d="M126 369l-59 -26l-59 26v20h688l98 66l98 -66v-20h-766zM818 736q-12 -86 -34 -143t-54 -95t-74.5 -63t-94.5 -46l-12 18q40 64 60.5 113t29 85.5t9 63.5t0.5 48h-444l-49 -26l-49 26v19h544l84 39zM540 329q0 -32 -24.5 -52t-53.5 -30q-34 -12 -78 -18v143h156v-43z M781 262v-265q0 -32 -24.5 -52t-53.5 -30q-34 -12 -78 -18v48h-341q-17 -15 -39.5 -24.5t-42.5 -14.5q-24 -6 -49 -9v360l-55 6q-4 0 -6.5 3t-2.5 6q0 10 10 10h1l209 -20v-94h316v89l-55 6q-4 0 -6.5 3t-2.5 6q0 10 10 10h1zM625 -22v157h-316v-138q0 -10 -3 -19h319z" />
<glyph unicode="&#xad7f;" horiz-adv-x="879" d="M126 389l-59 -26l-59 26v20h688l98 66l98 -66v-20h-766zM818 736q-12 -86 -34 -139.5t-54 -88.5t-74.5 -56.5t-94.5 -42.5l-12 18q40 64 60.5 109.5t29 78.5t9 57t0.5 45h-444l-49 -26l-49 26v19h544l84 39zM540 369q0 -16 -6.5 -27.5t-17.5 -19.5t-25 -12.5t-29 -7.5 q-34 -6 -78 -3v93h156v-23zM459 283q17 0 34 -5t29.5 -14.5t19 -23t3.5 -29.5q-3 -12 -4.5 -20t-4 -14t-5.5 -13t-8 -18q10 -5 34 -14t53.5 -21t61 -25.5t57.5 -27.5t42 -29t15 -28q-2 -23 -16 -40t-33.5 -25t-41 -5.5t-39.5 17.5q-6 5 -29.5 25t-51 45t-53.5 49t-37 38 q-30 -32 -79.5 -57t-106 -44.5t-112 -34.5t-97.5 -25l-12 12q86 32 143.5 77.5t92 91t49 85.5t16.5 61h-43q-10 0 -10 7q0 5 10 5h123z" />
<glyph unicode="&#xad81;" horiz-adv-x="879" d="M126 369l-59 -26l-59 26v20h688l98 66l98 -66v-20h-766zM818 736q-12 -86 -34 -143t-54 -95t-74.5 -63t-94.5 -46l-12 18q40 64 60.5 113t29 85.5t9 63.5t0.5 48h-444l-49 -26l-49 26v19h544l84 39zM540 329q0 -32 -24.5 -52t-53.5 -30q-34 -12 -78 -18v143h156v-43z M517 251q58 -5 108 -20.5t86.5 -38.5t57.5 -53t21 -64q0 -36 -25.5 -66.5t-70 -52.5t-104 -34.5t-127.5 -12.5t-127 12.5t-103.5 34.5t-70 52.5t-25.5 66.5q0 41 30 74t77.5 56t105 35t113.5 12h27t27 -1zM463 -63q38 0 64.5 11t43 29.5t24 43.5t7.5 54t-7.5 56t-24 47.5 t-43 33t-64.5 12.5q-39 0 -65 -12.5t-42.5 -33t-23.5 -47.5t-7 -56t7 -54t23.5 -43.5t42.5 -29.5t65 -11z" />
<glyph unicode="&#xad82;" horiz-adv-x="876" d="M126 369l-59 -26l-59 26v20h688l98 66l98 -66v-20h-766zM818 736q-12 -86 -34 -143t-54 -95t-74.5 -63t-94.5 -46l-12 18q40 64 60.5 113t29 85.5t9 63.5t0.5 48h-444l-49 -26l-49 26v19h544l84 39zM540 369q0 -32 -24.5 -52t-53.5 -30q-34 -12 -78 -18v103h156v-3z M538 159q10 -5 34 -14.5t54 -22t61.5 -26.5t57.5 -29t42.5 -30t15.5 -29q-2 -24 -16 -41.5t-33.5 -25.5t-41 -5.5t-39.5 17.5q-6 6 -29.5 26.5t-51 46t-53.5 50.5t-37 40l-17 -21q-23 -25 -69.5 -47t-101 -40.5t-110 -33t-97.5 -25.5l-12 13q67 25 116.5 60.5t85 73.5 t57 75.5t32.5 67.5h-1h-170l-49 -26l-49 26v20h507h11l78 36l78 -36v-20h-167h-61h-55q24 -5 39 -10t13 -16q-1 -4 -4 -11.5t-6.5 -16t-6.5 -15.5t-5 -11z" />
<glyph unicode="&#xad88;" horiz-adv-x="834" d="M548 696q0 -68 -0.5 -121.5t-7 -95.5t-21 -75t-42 -59.5t-70.5 -48.5t-106 -42l-12 18q46 67 65.5 131t25 118t2 94.5t-3.5 61.5h-224l-49 -26l-49 26v19h324l84 39zM648 174h-70q-9 -17 -25.5 -27t-36.5 -10q-29 0 -49.5 20.5t-20.5 49.5h202v118q-35 -20 -97.5 -33 t-163.5 -13h-8v-200q0 -30 -22 -49.5t-49.5 -30.5t-52.5 -15t-31 -5l-1 -3v303h-97l-59 -26l-59 26v20l371 1q119 0 182.5 17.5t86.5 40.5v404l-55 6q-9 2 -9 10q0 9 10 9h1l209 -20v-728q0 -32 -24.5 -52t-53.5 -30q-34 -12 -78 -18v235z" />
<glyph unicode="&#xad89;" horiz-adv-x="832" d="M548 696q0 -68 -9 -113.5t-25.5 -75.5t-39.5 -48.5t-50.5 -31.5t-58.5 -24.5t-64 -28.5l-12 18q34 60 52 104.5t26 77.5t9.5 57.5t1.5 45.5h-224l-49 -26l-49 26v19h324l84 39zM801 50q0 -24 -13 -41.5t-32 -29.5t-41 -20t-41.5 -12.5t-33 -6.5t-14.5 -2v256h-294 l-85 -38l-84 38v19h638v-163zM648 304h-90q-9 -17 -25.5 -27t-36.5 -10q-29 0 -49.5 20.5t-20.5 49.5h222v88q-35 -20 -98.5 -33t-170.5 -13v-50q0 -30 -22 -49.5t-49.5 -30.5t-53 -15t-31.5 -5v150h-97l-59 -26l-59 26v20h423q51 4 87 8.5t61 11.5t41.5 15.5t27.5 20.5v307 l-55 6q-9 2 -9 10q0 9 10 9h1l209 -20v-428q0 -32 -24.5 -52t-53.5 -30q-34 -12 -78 -18v65z" />
<glyph unicode="&#xad8c;" horiz-adv-x="829" d="M548 696q0 -68 -9 -113.5t-25.5 -75.5t-39.5 -48.5t-50.5 -31.5t-58.5 -24.5t-64 -28.5l-12 18q34 60 52 104.5t26 77.5t9.5 57.5t1.5 45.5h-224l-49 -26l-49 26v19h324l84 39zM126 379l-59 -26l-59 26v20h423q58 4 96.5 10t64 14t41 19t26.5 26t20 34t22 44l7 -10 q9 -45 -20 -79q-13 -15 -35 -29t-58 -25t-87 -17.5t-121 -6.5h-261zM648 762l-55 6q-9 2 -9 10q0 9 10 9h1l209 -20v-548q0 -32 -24.5 -52t-53.5 -30q-34 -12 -78 -18v643zM658 304h-100q-9 -17 -25.5 -27t-36.5 -10q-29 0 -49.5 20.5t-20.5 49.5h232v-33zM379 400v-71 q0 -30 -22 -49.5t-49.5 -30.5t-53 -15t-31.5 -5v151zM210 -48q-22 0 -33 9t-16 20q-6 13 -7 30v185h-50q-10 0 -10 10t10 10h122q19 1 36 -7.5t29.5 -22t20 -29.5t7.5 -31v-136q0 -6 2 -10q4 -9 16 -9h277l84 39l84 -39v-19h-572z" />
<glyph unicode="&#xad90;" d="M548 696q0 -68 -9 -113.5t-25.5 -75.5t-39.5 -48.5t-50.5 -31.5t-58.5 -24.5t-64 -28.5l-12 18q34 60 52 104.5t26 77.5t9.5 57.5t1.5 45.5h-224l-49 -26l-49 26v19h324l84 39zM126 379l-59 -26l-59 26v20h423q58 4 96.5 10t64 14t41 19t26.5 26t20 34t22 44l7 -10 q9 -45 -20 -79q-13 -15 -35 -29t-58 -25t-87 -17.5t-121 -6.5h-261zM648 762l-55 6q-9 2 -9 10q0 9 10 9h1l209 -20v-358q0 -32 -24.5 -52t-53.5 -30q-34 -12 -78 -18v453zM648 329h-90q-9 -17 -25.5 -27t-36.5 -10q-29 0 -49.5 20.5t-20.5 49.5h222v-33zM379 400v-21 q0 -30 -22 -49.5t-49.5 -30.5t-53 -15t-31.5 -5v101zM808 -42v-19h-557q-24 0 -36.5 9.5t-17.5 21.5q-6 13 -7 31v112h-30q-10 0 -10 10t10 10h482v110h-314l-84 -39l-84 39v19h470l84 39l84 -39v-148h-156h-287v-137q0 -6 2 -10q4 -9 16 -9h210l112 53z" />
<glyph unicode="&#xad9c;" d="M548 696q0 -68 -9 -113.5t-25.5 -75.5t-39.5 -48.5t-50.5 -31.5t-58.5 -24.5t-64 -28.5l-12 18q34 60 52 104.5t26 77.5t9.5 57.5t1.5 45.5h-224l-49 -26l-49 26v19h324l84 39zM126 379l-59 -26l-59 26v20h423q58 4 96.5 10t64 14t41 19t26.5 26t20 34t22 44l7 -10 q9 -45 -20 -79q-13 -15 -35 -29t-58 -25t-87 -17.5t-121 -6.5h-261zM648 762l-55 6q-9 2 -9 10q0 9 10 9h1l209 -20v-428q0 -32 -24.5 -52t-53.5 -30q-34 -12 -78 -18v523zM658 324h-100q-9 -17 -25.5 -27t-36.5 -10q-29 0 -49.5 20.5t-20.5 49.5h232v-33zM379 400v-71 q0 -30 -22 -49.5t-49.5 -30.5t-53 -15t-31.5 -5v151zM686 165q15 -9 43 -26.5t55.5 -39.5t47 -46.5t18.5 -47.5q-2 -27 -17.5 -43t-36 -21t-41.5 1t-34 21q-5 7 -13 20.5t-18 30.5t-22 35t-25 33q-45 -57 -110.5 -102t-146.5 -69l-11 15q23 13 42.5 27t35.5 28q-5 7 -11 21 t-13.5 32t-16.5 37t-20 35l-15 -24q-23 -28 -55.5 -54t-70.5 -48t-79.5 -39.5t-81.5 -29.5l-12 15q69 37 110.5 85t64 95.5t30.5 89t10 66.5h-32q-10 0 -10 8q0 7 10 7h32h2h72q39 0 54.5 -10.5t19.5 -23.5q4 -15 -4 -33q-3 -6 -4.5 -10t-3.5 -8.5t-4 -10.5t-6 -16 q10 -6 23.5 -16t27.5 -23t28 -27.5t25 -28.5q15 29 23 57t11 53.5t3.5 46.5t0.5 35h-33q-10 0 -10 8q0 7 10 7h31h2h72q38 0 53 -12t18 -26q4 -17 -4 -38q-3 -8 -6 -16.5t-8 -19.5z" />
<glyph unicode="&#xad9d;" d="M548 696q0 -68 -9 -112t-25.5 -72t-39.5 -43.5t-50.5 -26.5t-58.5 -21t-64 -27l-12 18q34 60 52 101.5t26 70.5t9.5 50.5t1.5 42.5h-224l-49 -26l-49 26v19h324l84 39zM126 409l-59 -26l-59 26v20h423q58 4 96.5 10t64 14t41 19t26.5 26t20 34t22 44l7 -10q9 -45 -20 -79 q-13 -15 -35 -29t-58 -25t-87 -17.5t-121 -6.5h-261zM648 762l-55 6q-9 2 -9 10q0 9 10 9h1l209 -20v-428q0 -32 -24.5 -52t-53.5 -30q-34 -12 -78 -18v523zM658 354h-100q-9 -17 -25.5 -27t-36.5 -10q-29 0 -49.5 20.5t-20.5 49.5h232v-33zM379 430v-101q0 -30 -22 -49.5 t-49.5 -30.5t-53 -15t-31.5 -5v181zM588 300q47 -6 87.5 -22t70.5 -40.5t47 -56.5t17 -68q0 -39 -21 -71.5t-57 -56t-84.5 -36.5t-103.5 -13t-103.5 13t-84.5 36.5t-57 56t-21 71.5q0 44 24.5 79t63 59.5t86 37.5t92.5 13q11 0 22 -0.5t22 -1.5zM544 -34q31 0 52.5 11.5 t35 31.5t19.5 47t6 57q0 31 -6 59.5t-19.5 50.5t-35 35.5t-52.5 13.5q-32 0 -53.5 -13.5t-34.5 -35.5t-19 -50.5t-6 -59.5q0 -30 6 -57t19 -47t34.5 -31.5t53.5 -11.5z" />
<glyph unicode="&#xada4;" d="M478 696q0 -68 -1.5 -118.5t-8.5 -88t-20.5 -65t-37.5 -50t-60.5 -41.5t-88.5 -39l-12 18q28 70 41 127.5t17 103.5t2.5 79.5t-1.5 54.5h-174l-49 -26l-49 26v19h274l84 39zM360 309v-210q0 -32 -23 -51.5t-50 -30.5q-33 -12 -73 -18v310h-88l-59 -26l-59 26v20h423 q33 2 58 4.5l45 4.5v394l-55 6q-9 2 -9 10q0 9 10 9h1l189 -20v-658q0 -32 -21 -51.5t-47 -30.5q-30 -12 -68 -18v209h-13q-9 -17 -25.5 -27t-36.5 -10q-29 0 -49.5 20.5t-20.5 49.5h145v98q-27 -5 -63 -7.5t-84 -2.5h-27zM860 19q0 -32 -21 -51.5t-47 -30.5 q-30 -12 -68 -18v843l-55 6q-9 2 -9 10q0 9 10 9h1l189 -20v-748z" />
<glyph unicode="&#xadb7;" d="M478 696q1 -62 -12 -102.5t-40.5 -71.5t-68.5 -57.5t-96 -60.5l-12 18q28 70 41 110.5t17 65.5t2.5 41.5t-1.5 37.5h-154l-49 -26l-49 26v19h254l84 39zM519 307q17 0 34 -5.5t29.5 -15t19 -23.5t3.5 -31q-3 -13 -4.5 -20.5t-4 -14.5t-5.5 -14t-8 -18q10 -5 34 -14.5 t53.5 -21.5t61 -26t57.5 -29t42 -30t15 -29q-2 -24 -16 -41.5t-33.5 -25.5t-41 -5.5t-39.5 17.5q-6 6 -29.5 26.5t-51 46t-53.5 50.5t-37 40q-30 -33 -79.5 -59t-106 -46.5t-112 -35.5t-97.5 -26l-12 13q86 33 143.5 80t92 94t49 88t16.5 63h-43q-10 0 -10 7q0 6 10 6h123z M360 439v-130q0 -32 -23 -51.5t-50 -30.5q-33 -12 -73 -18v230h-88l-59 -26l-59 26v20h423q33 2 58 4.5l45 4.5v264l-55 6q-9 2 -9 10q0 9 10 9h1l189 -20v-368q0 -32 -21 -51.5t-47 -30.5q-30 -12 -68 -18v98h-26q-9 -17 -25.5 -27t-36.5 -10q-29 0 -49.5 20.5t-20.5 49.5 h158v49q-27 -5 -63 -7.5t-84 -2.5h-27zM860 319q0 -32 -21 -51.5t-47 -30.5q-30 -12 -68 -18v543l-55 6q-9 2 -9 10q0 9 10 9h1l189 -20v-448z" />
<glyph unicode="&#xadc0;" horiz-adv-x="810" d="M534 696q0 -68 -0.5 -121.5t-7 -95.5t-21 -75t-42 -59.5t-70.5 -48.5t-106 -42l-12 18q46 67 65.5 131t25 118t2 94.5t-3.5 61.5h-224l-49 -26l-49 26v19h324l84 39zM634 325q-35 -20 -97.5 -33t-163.5 -13h-8v-200q0 -30 -22 -49.5t-49.5 -30.5t-52.5 -15t-31 -5l-1 -3 v303h-97l-59 -26l-59 26v20h423q57 4 93.5 9t60.5 11.5t38 16t25 23.5v403l-55 6q-9 2 -9 10q0 9 10 9h1l209 -20v-728q0 -32 -24.5 -52t-53.5 -30q-34 -12 -78 -18v386z" />
<glyph unicode="&#xadc1;" horiz-adv-x="830" d="M548 696q0 -68 -9 -113.5t-25.5 -75.5t-39.5 -48.5t-50.5 -31.5t-58.5 -24.5t-64 -28.5l-12 18q34 60 52 104.5t26 77.5t9.5 57.5t1.5 45.5h-224l-49 -26l-49 26v19h324l84 39zM801 50q0 -24 -13 -41.5t-32 -29.5t-41 -20t-41.5 -12.5t-33 -6.5t-14.5 -2v256h-294 l-85 -38l-84 38v19h638v-163zM648 425q-35 -20 -97.5 -33t-163.5 -13h-8v-50q0 -30 -22 -49.5t-49.5 -30.5t-53 -15t-31.5 -5v150h-97l-59 -26l-59 26v20h423q51 4 87 8.5t61 11.5t41.5 15.5t27.5 20.5v307l-55 6q-9 2 -9 10q0 9 10 9h1l209 -20v-428q0 -32 -24.5 -52 t-53.5 -30q-34 -12 -78 -18v186z" />
<glyph unicode="&#xadc4;" horiz-adv-x="834" d="M548 696q0 -68 -9 -113.5t-25.5 -75.5t-39.5 -48.5t-50.5 -31.5t-58.5 -24.5t-64 -28.5l-12 18q34 60 52 104.5t26 77.5t9.5 57.5t1.5 45.5h-224l-49 -26l-49 26v19h324l84 39zM126 379l-59 -26l-59 26v20h423q58 4 96.5 10t64 14t41 19t26.5 26t20 34t22 44l7 -10 q9 -45 -20 -79q-13 -15 -35 -29t-58 -25t-87 -17.5t-121 -6.5h-261zM648 762l-55 6q-9 2 -9 10q0 9 10 9h1l209 -20v-548q0 -32 -24.5 -52t-53.5 -30q-34 -12 -78 -18v643zM379 400v-71q0 -30 -22 -49.5t-49.5 -30.5t-53 -15t-31.5 -5v151zM210 -48q-22 0 -33 9t-16 20 q-6 13 -7 30v185h-50q-10 0 -10 10t10 10h122q19 1 36 -7.5t29.5 -22t20 -29.5t7.5 -31v-136q0 -6 2 -10q4 -9 16 -9h277l84 39l84 -39v-19h-572z" />
<glyph unicode="&#xadc8;" horiz-adv-x="834" d="M548 696q0 -68 -9 -113.5t-25.5 -75.5t-39.5 -48.5t-50.5 -31.5t-58.5 -24.5t-64 -28.5l-12 18q34 60 52 104.5t26 77.5t9.5 57.5t1.5 45.5h-224l-49 -26l-49 26v19h324l84 39zM126 379l-59 -26l-59 26v20h423q58 4 96.5 10t64 14t41 19t26.5 26t20 34t22 44l7 -10 q9 -45 -20 -79q-13 -15 -35 -29t-58 -25t-87 -17.5t-121 -6.5h-261zM648 762l-55 6q-9 2 -9 10q0 9 10 9h1l209 -20v-358q0 -32 -24.5 -52t-53.5 -30q-34 -12 -78 -18v453zM379 400v-21q0 -30 -22 -49.5t-49.5 -30.5t-53 -15t-31.5 -5v101zM808 -42v-19h-557 q-24 0 -36.5 9.5t-17.5 21.5q-6 13 -7 31v112h-30q-10 0 -10 10t10 10h482v110h-314l-84 -39l-84 39v19h470l84 39l84 -39v-148h-156h-287v-137q0 -6 2 -10q4 -9 16 -9h210l112 53z" />
<glyph unicode="&#xadd0;" horiz-adv-x="834" d="M548 696q0 -68 -9 -113.5t-25.5 -75.5t-39.5 -48.5t-50.5 -31.5t-58.5 -24.5t-64 -28.5l-12 18q34 60 52 104.5t26 77.5t9.5 57.5t1.5 45.5h-224l-49 -26l-49 26v19h324l84 39zM126 379l-59 -26l-59 26v20h423q58 4 96.5 10t64 14t41 19t26.5 26t20 34t22 44l7 -10 q9 -45 -20 -79q-13 -15 -35 -29t-58 -25t-87 -17.5t-121 -6.5h-261zM648 762l-55 6q-9 2 -9 10q0 9 10 9h1l209 -20v-358q0 -32 -24.5 -52t-53.5 -30q-34 -12 -78 -18v453zM379 400v-61q0 -30 -22 -49.5t-49.5 -30.5t-53 -15t-31.5 -5v141zM832 -8q7 0 12 -4.5t5 -11.5 t-5 -12t-12 -5h-497q-17 -15 -39.5 -24.5t-42.5 -14.5q-24 -6 -49 -9v320l-55 6q-4 0 -6.5 3t-2.5 6q0 10 10 10h1l209 -20h266l82 38l84 -39v-233zM360 203v-192q0 -10 -3 -19h279v211h-276z" />
<glyph unicode="&#xadd1;" horiz-adv-x="834" d="M548 696q0 -68 -9 -113.5t-25.5 -75.5t-39.5 -48.5t-50.5 -31.5t-58.5 -24.5t-64 -28.5l-12 18q34 60 52 104.5t26 77.5t9.5 57.5t1.5 45.5h-224l-49 -26l-49 26v19h324l84 39zM126 379l-59 -26l-59 26v20h423q58 4 96.5 10t64 14t41 19t26.5 26t20 34t22 44l7 -10 q9 -45 -20 -79q-13 -15 -35 -29t-58 -25t-87 -17.5t-121 -6.5h-261zM648 762l-55 6q-9 2 -9 10q0 9 10 9h1l209 -20v-358q0 -32 -24.5 -52t-53.5 -30q-34 -12 -78 -18v453zM379 400v-61q0 -30 -22 -49.5t-49.5 -30.5t-53 -15t-31.5 -5v141zM791 262v-265q0 -32 -24.5 -52 t-53.5 -30q-34 -12 -78 -18v48h-341q-17 -15 -39.5 -24.5t-42.5 -14.5q-24 -6 -49 -9v360l-55 6q-4 0 -6.5 3t-2.5 6q0 10 10 10h1l209 -20v-94h316v89l-55 6q-4 0 -6.5 3t-2.5 6q0 10 10 10h1zM635 -22v157h-316v-138q0 -10 -3 -19h319z" />
<glyph unicode="&#xadd3;" horiz-adv-x="830" d="M548 696q0 -68 -9 -113.5t-25.5 -75.5t-39.5 -48.5t-50.5 -31.5t-58.5 -24.5t-64 -28.5l-12 18q34 60 52 104.5t26 77.5t9.5 57.5t1.5 45.5h-224l-49 -26l-49 26v19h324l84 39zM126 379l-59 -26l-59 26v20h423q58 4 96.5 10t64 14t41 19t26.5 26t20 34t22 44l7 -10 q9 -45 -20 -79q-13 -15 -35 -29t-58 -25t-87 -17.5t-121 -6.5h-261zM648 762l-55 6q-9 2 -9 10q0 9 10 9h1l209 -20v-448q0 -32 -24.5 -52t-53.5 -30q-34 -12 -78 -18v543zM379 400v-61q0 -30 -22 -49.5t-49.5 -30.5t-53 -15t-31.5 -5v141zM469 307q17 0 34 -5.5t29.5 -15 t19 -23.5t3.5 -31q-3 -13 -4.5 -20.5t-4 -14.5t-5.5 -14t-8 -18q10 -5 34 -14.5t53.5 -21.5t61 -26t57.5 -29t42 -30t15 -29q-2 -24 -16 -41.5t-33.5 -25.5t-41 -5.5t-39.5 17.5q-6 6 -29.5 26.5t-51 46t-53.5 50.5t-37 40q-30 -33 -79.5 -59t-106 -46.5t-112 -35.5 t-97.5 -26l-12 13q86 33 143.5 80t92 94t49 88t16.5 63h-43q-10 0 -10 7q0 6 10 6h123z" />
<glyph unicode="&#xaddc;" horiz-adv-x="862" d="M799 726v-124.5t-5 -103.5t-18.5 -85.5t-39.5 -69.5t-68.5 -56.5t-105.5 -45.5l-12 17q46 67 64 138t21.5 133t-1.5 109.5t-5 68.5h-454l-49 -26l-49 26v19h554l84 39zM509 -60v77.5v88v80v53.5h-189v-200q0 -32 -24.5 -52t-53.5 -30q-34 -12 -78 -18v300h-58l-59 -26 l-59 26v20h688l98 66l98 -66v-20h-207v-199q0 -32 -24.5 -52t-53.5 -30q-34 -12 -78 -18z" />
<glyph unicode="&#xade0;" d="M818 736q-12 -86 -34 -143t-54 -95t-74.5 -63t-94.5 -46l-12 18q40 64 60.5 113t29 85.5t9 63.5t0.5 48h-444l-49 -26l-49 26v19h544l84 39zM126 369l-59 -26l-59 26v20h688l98 66l98 -66v-20h-766zM383 374v-151q0 -30 -22 -49.5t-49.5 -30.5t-52.5 -15t-31 -5l-1 -3 v254h156zM667 384v-161q0 -30 -22 -49.5t-49.5 -30.5t-52.5 -15t-31 -5l-1 -3v264h156zM192 -58q-22 0 -33 9t-16 20q-6 13 -7 30v185h-50q-10 0 -10 10t10 10h122q19 1 36 -7.5t29.5 -22t20 -29.5t7.5 -31v-136q0 -6 2 -10q4 -9 16 -9h307l84 39l84 -39v-19h-602z" />
<glyph unicode="&#xade4;" d="M818 736q-12 -86 -34 -143t-54 -95t-74.5 -63t-94.5 -46l-12 18q40 64 60.5 113t29 85.5t9 63.5t0.5 48h-444l-49 -26l-49 26v19h544l84 39zM126 369l-59 -26l-59 26v20h688l98 66l98 -66v-20h-766zM383 374v-41q0 -30 -22 -49.5t-49.5 -30.5t-52.5 -15t-31 -5l-1 -3v144 h156zM667 384v-41q0 -30 -22 -49.5t-49.5 -30.5t-52.5 -15t-31 -5l-1 7v134h156zM798 -52v-19h-587q-24 0 -36.5 9.5t-17.5 21.5q-6 13 -7 31v102h-30q-10 0 -10 10t10 10h512v120h-344l-84 -39l-84 39v19h500l84 39l84 -39v-158h-156h-317v-127q0 -6 2 -10q4 -9 16 -9h240 l112 53z" />
<glyph unicode="&#xadf8;" d="M126 79l-59 -26l-59 26v20h688l98 66l98 -66v-20h-766zM818 706q0 -102 -4.5 -187.5t-29 -154t-76.5 -119t-147 -81.5l-12 18q31 45 50 96t30 102.5t15.5 100.5t5 90t-0.5 71.5t-1 44.5h-454l-49 -26l-49 26v19h554l84 39z" />
<glyph unicode="&#xadf9;" d="M126 359l-59 -46l-59 46v20h688l98 66l98 -66v-20h-766zM818 726q-12 -86 -34 -143t-54 -95t-74.5 -63t-94.5 -46l-12 18q40 64 60.5 113t29 85.5t9 63.5t0.5 48h-444l-49 -26l-49 26v19h544l84 39zM797 50q0 -24 -13 -41.5t-32 -29.5t-41 -20t-41.5 -12.5t-33 -6.5 t-14.5 -2v256h-354l-85 -38l-84 38v19h698v-163z" />
<glyph unicode="&#xadfc;" d="M126 359l-59 -26l-59 26v20h688l98 66l98 -66v-20h-766zM818 726q-12 -86 -34 -143t-54 -95t-74.5 -63t-94.5 -46l-12 18q40 64 60.5 113t29 85.5t9 63.5t0.5 48h-444l-49 -26l-49 26v19h544l84 39zM210 -48q-22 0 -33 9t-16 20q-6 13 -7 30v215h-50q-10 0 -10 10t10 10 h122q19 1 36 -7.5t29.5 -22t20 -29.5t7.5 -31v-166q0 -6 2 -10q4 -9 16 -9h307l84 39l84 -39v-19h-602z" />
<glyph unicode="&#xadff;" d="M315 -33q0 -6 2 -10q4 -9 16 -9h297l84 39l84 -39v-19h-595q-26 0 -39 10t-18 23q-6 14 -6 33v188h-50q-10 0 -10 10t10 10h540l84 39l84 -39v-20h-483v-216zM126 359l-59 -46l-59 46v20h688l98 66l98 -66v-20h-766zM818 726q-12 -86 -34 -143t-54 -95t-74.5 -63 t-94.5 -46l-12 18q40 64 60.5 113t29 85.5t9 63.5t0.5 48h-444l-49 -26l-49 26v19h544l84 39z" />
<glyph unicode="&#xae00;" d="M798 -52v-19h-587q-24 0 -36.5 9.5t-17.5 21.5q-6 13 -7 31v102h-30q-10 0 -10 10t10 10h512v120h-344l-84 -39l-84 39v19h500l84 39l84 -39v-158h-156h-317v-127q0 -6 2 -10q4 -9 16 -9h240l112 53zM126 359l-59 -46l-59 46v20h688l98 66l98 -66v-20h-766zM818 726 q-12 -86 -34 -143t-54 -95t-74.5 -63t-94.5 -46l-12 18q40 64 60.5 113t29 85.5t9 63.5t0.5 48h-444l-49 -26l-49 26v19h544l84 39z" />
<glyph unicode="&#xae01;" d="M126 359l-59 -26l-59 26v20h688l98 66l98 -66v-20h-766zM818 726q-12 -86 -34 -143t-54 -95t-74.5 -63t-94.5 -46l-12 18q40 64 60.5 113t29 85.5t9 63.5t0.5 48h-444l-49 -26l-49 26v19h544l84 39zM488 -51v-19h-267q-24 0 -36.5 9.5t-17.5 21.5q-6 13 -7 31v112h-30 q-10 0 -10 10t10 10h192v110h-22h-2l-84 -39l-84 39v19h180l84 39l84 -39v-19v-121v-8h-156h-7v-31v-5v-101h14l76 34zM777 41q0 -24 -13 -41.5t-32 -29.5t-41 -20t-41.5 -12.5t-33 -6.5t-14.5 -2v306h-4l-65 -38l-74 38v19h318v-213z" />
<glyph unicode="&#xae08;" d="M126 359l-59 -26l-59 26v20h688l98 66l98 -66v-20h-766zM818 726q-12 -86 -34 -143t-54 -95t-74.5 -63t-94.5 -46l-12 18q40 64 60.5 113t29 85.5t9 63.5t0.5 48h-444l-49 -26l-49 26v19h544l84 39zM802 -18q7 0 12 -4.5t5 -11.5t-5 -12t-12 -5h-527q-17 -15 -39.5 -24.5 t-42.5 -14.5q-24 -6 -49 -9v320l-55 6q-4 0 -6.5 3t-2.5 6q0 10 10 10h1l209 -20h296l82 38l84 -39v-233zM300 193v-192q0 -10 -3 -19h309v211h-306z" />
<glyph unicode="&#xae09;" d="M126 359l-59 -26l-59 26v20h688l98 66l98 -66v-20h-766zM818 726q-12 -86 -34 -143t-54 -95t-74.5 -63t-94.5 -46l-12 18q40 64 60.5 113t29 85.5t9 63.5t0.5 48h-444l-49 -26l-49 26v19h544l84 39zM781 262v-265q0 -32 -24.5 -52t-53.5 -30q-34 -12 -78 -18v48h-341 q-17 -15 -39.5 -24.5t-42.5 -14.5q-24 -6 -49 -9v360l-55 6q-4 0 -6.5 3t-2.5 6q0 10 10 10h1l209 -20v-94h316v89l-55 6q-4 0 -6.5 3t-2.5 6q0 10 10 10h1zM625 -22v157h-316v-138q0 -10 -3 -19h319z" />
<glyph unicode="&#xae0b;" d="M126 359l-59 -26l-59 26v20h688l98 66l98 -66v-20h-766zM818 726q-12 -86 -34 -143t-54 -95t-74.5 -63t-94.5 -46l-12 18q40 64 60.5 113t29 85.5t9 63.5t0.5 48h-444l-49 -26l-49 26v19h544l84 39zM459 283q17 0 34 -5t29.5 -14.5t19 -23t3.5 -29.5q-3 -12 -4.5 -20 t-4 -14t-5.5 -13t-8 -18q10 -5 34 -14t53.5 -21t61 -25.5t57.5 -27.5t42 -29t15 -28q-2 -23 -16 -40t-33.5 -25t-41 -5.5t-39.5 17.5q-6 5 -29.5 25t-51 45t-53.5 49t-37 38q-30 -32 -79.5 -57t-106 -44.5t-112 -34.5t-97.5 -25l-12 12q86 32 143.5 77.5t92 91t49 85.5 t16.5 61h-43q-10 0 -10 7q0 5 10 5h123z" />
<glyph unicode="&#xae0d;" d="M126 359l-59 -26l-59 26v20h688l98 66l98 -66v-20h-766zM818 726q-12 -86 -34 -143t-54 -95t-74.5 -63t-94.5 -46l-12 18q40 64 60.5 113t29 85.5t9 63.5t0.5 48h-444l-49 -26l-49 26v19h544l84 39zM517 251q58 -5 108 -20.5t86.5 -38.5t57.5 -53t21 -64 q0 -36 -25.5 -66.5t-70 -52.5t-104 -34.5t-127.5 -12.5t-127 12.5t-103.5 34.5t-70 52.5t-25.5 66.5q0 41 30 74t77.5 56t105 35t113.5 12h27t27 -1zM463 -63q38 0 64.5 11t43 29.5t24 43.5t7.5 54t-7.5 56t-24 47.5t-43 33t-64.5 12.5q-39 0 -65 -12.5t-42.5 -33 t-23.5 -47.5t-7 -56t7 -54t23.5 -43.5t42.5 -29.5t65 -11z" />
<glyph unicode="&#xae14;" horiz-adv-x="805" d="M548 696q0 -102 -3 -180t-25.5 -137t-73 -101.5t-145.5 -73.5l-12 18q46 67 65.5 139t25 135t2 111.5t-3.5 69.5h-224l-49 -26l-49 26v19h324l84 39zM780 39q0 -32 -24.5 -52t-53.5 -30q-34 -12 -78 -18v823l-55 6q-9 2 -9 10q0 9 10 9h1l209 -20v-728zM126 139l-59 -26 l-59 26v20h423q58 4 95.5 9.5t62 13t38.5 18t24.5 25.5t21.5 35t28 46l7 -10q9 -45 -20 -79q-13 -15 -35 -29t-58 -25t-87 -17.5t-121 -6.5h-261z" />
<glyph unicode="&#xae30;" horiz-adv-x="806" d="M478 686q0 -102 -34 -191t-95 -160.5t-144.5 -123t-183.5 -77.5l-12 18q83 40 137 90t87.5 102.5t49 104.5t21.5 95.5t5 76t-1 46.5h-184l-49 -26l-49 26v19h284l84 39zM770 39q0 -32 -24.5 -52t-53.5 -30q-34 -12 -78 -18v823l-55 6q-9 2 -9 10q0 9 10 9h1l209 -20v-728 z" />
<glyph unicode="&#xae31;" horiz-adv-x="802" d="M767 50q0 -24 -13 -41.5t-32 -29.5t-41 -20t-41.5 -12.5t-33 -6.5t-14.5 -2v256h-294l-85 -38l-84 38v19h638v-163zM766 343q0 -32 -24.5 -52t-53.5 -30q-34 -12 -78 -18v520l-55 6q-4 0 -6.5 3t-2.5 6q0 10 10 10h1l209 -20v-425zM478 693q0 -151 -34 -213t-95 -101 t-144.5 -63.5t-183.5 -50.5l-17 24q83 35 138 69t89 66.5t50 63.5t22 81.5t5.5 70.5t-0.5 34h-184l-49 -25l-49 25v19h284l84 39z" />
<glyph unicode="&#xae34;" horiz-adv-x="802" d="M766 263q0 -32 -24.5 -52t-53.5 -30q-34 -12 -78 -18v600l-55 6q-4 0 -6.5 3t-2.5 6q0 10 10 10h1l209 -20v-505zM478 693q0 -151 -34 -213t-95 -101t-144.5 -63.5t-183.5 -50.5l-17 24q83 35 138 69t89 66.5t50 63.5t22 81.5t5.5 70.5t-0.5 34h-184l-49 -25l-49 25v19 h284l84 39zM210 -48q-22 0 -33 9t-16 20q-6 13 -7 30v185h-50q-10 0 -10 10t10 10h122q19 1 36 -7.5t29.5 -22t20 -29.5t7.5 -31v-136q0 -6 2 -10q4 -9 16 -9h257l84 39l84 -39v-19h-552z" />
<glyph unicode="&#xae37;" horiz-adv-x="797" d="M766 363q0 -32 -24.5 -52t-53.5 -30q-34 -12 -78 -18v500l-55 6q-4 0 -6.5 3t-2.5 6q0 10 10 10h1l209 -20v-405zM478 693q0 -151 -34 -213t-95 -101t-144.5 -63.5t-183.5 -50.5l-17 24q83 35 138 69t89 66.5t50 63.5t22 81.5t5.5 70.5t-0.5 34h-184l-49 -25l-49 25v19 h284l84 39zM315 -23q0 -6 2 -10q4 -9 16 -9h247l84 39l84 -39v-19h-545q-26 0 -39 10t-18 23q-6 14 -6 33v188h-50q-10 0 -10 10t10 10h490l84 39l84 -39v-20h-433v-216z" />
<glyph unicode="&#xae38;" horiz-adv-x="821" d="M777 413q0 -32 -24.5 -52t-53.5 -30q-34 -12 -78 -18v450l-55 6q-4 0 -6.5 3t-2.5 6q0 10 10 10h1l209 -20v-355zM499 703q0 -141 -34 -203t-95 -101t-144.5 -63.5t-183.5 -50.5l-17 24q83 35 138 69t89 66.5t50 63.5t21.5 76.5t5.5 65.5v34h-184l-49 -25l-49 25v19h284 l84 39zM779 -42v-19h-557q-24 0 -36.5 9.5t-17.5 21.5q-6 13 -7 31v112h-30q-10 0 -10 10t10 10h482v110h-314l-84 -39l-84 39v19h470l84 39l84 -39v-148h-156h-287v-137q0 -6 2 -10q4 -9 16 -9h210l112 53z" />
<glyph unicode="&#xae3a;" horiz-adv-x="802" d="M780 413q0 -32 -24.5 -52t-53.5 -30q-34 -12 -78 -18v450l-55 6q-4 0 -6.5 3t-2.5 6q0 10 10 10h1l209 -20v-355zM502 703q0 -141 -34 -203t-95 -101t-144.5 -63.5t-183.5 -50.5l-17 24q83 35 138 69t89 66.5t50 63.5t21.5 76.5t5.5 65.5v34h-184l-49 -25l-49 25v19h284 l84 39zM424 -42v-19h-267q-24 0 -36.5 9.5t-17.5 21.5q-6 13 -7 31v112h-30q-10 0 -10 10t10 10h202v110h-32h-2l-84 -39l-84 39v19h180l84 39l84 -39v-140v-8h-183v-137h34l76 34zM798 -15q7 -2 12 -7t5 -12t-5 -12t-12 -5h-257q-17 -15 -36 -23t-36 -11q-19 -4 -39 -4v365 h136h66l72 38l74 -39v-283zM566 243v-242q0 -10 -3 -19h79v261h-76z" />
<glyph unicode="&#xae40;" horiz-adv-x="811" d="M780 393q0 -32 -24.5 -52t-53.5 -30q-34 -12 -78 -18v470l-55 6q-4 0 -6.5 3t-2.5 6q0 10 10 10h1l209 -20v-375zM502 703q0 -141 -34 -203t-95 -101t-144.5 -63.5t-183.5 -50.5l-17 24q83 35 138 69t89 66.5t50 63.5t21.5 76.5t5.5 65.5v34h-184l-49 -25l-49 25v19h284 l84 39zM816 -8q7 0 12 -4.5t5 -11.5t-5 -12t-12 -5h-497q-17 -15 -39.5 -24.5t-42.5 -14.5q-24 -6 -49 -9v320l-55 6q-4 0 -6.5 3t-2.5 6q0 10 10 10h1l209 -20h266l82 38l84 -39v-233zM344 203v-192q0 -10 -3 -19h279v211h-276z" />
<glyph unicode="&#xae41;" horiz-adv-x="811" d="M780 413q0 -32 -24.5 -52t-53.5 -30q-34 -12 -78 -18v450l-55 6q-4 0 -6.5 3t-2.5 6q0 10 10 10h1l209 -20v-355zM502 703q0 -111 -34 -173t-95 -101t-144.5 -63.5t-183.5 -50.5l-17 24q83 35 138 69t89 66.5t50 63.5t21.5 61.5t5.5 50.5v34h-184l-49 -25l-49 25v19h284 l84 39zM775 272v-265q0 -32 -24.5 -52t-53.5 -30q-34 -12 -78 -18v48h-341q-17 -15 -39.5 -24.5t-42.5 -14.5q-24 -6 -49 -9v360l-55 6q-4 0 -6.5 3t-2.5 6q0 10 10 10h1l209 -20v-94h316v89l-55 6q-4 0 -6.5 3t-2.5 6q0 10 10 10h1zM619 -12v157h-316v-138q0 -10 -3 -19 h319z" />
<glyph unicode="&#xae43;" horiz-adv-x="815" d="M784 413q0 -32 -24.5 -52t-53.5 -30q-34 -12 -78 -18v450l-55 6q-4 0 -6.5 3t-2.5 6q0 10 10 10h1l209 -20v-355zM506 703q0 -141 -34 -203t-95 -101t-144.5 -63.5t-183.5 -50.5l-17 24q83 35 138 69t89 66.5t50 63.5t21.5 76.5t5.5 65.5v34h-184l-49 -25l-49 25v19h284 l84 39zM467 307q17 0 34 -5.5t29.5 -15t19 -23.5t3.5 -31q-3 -13 -4.5 -20.5t-4 -14.5t-5.5 -14t-8 -18q10 -5 34 -14.5t53.5 -21.5t61 -26t57.5 -29t42 -30t15 -29q-2 -24 -16 -41.5t-33.5 -25.5t-41 -5.5t-39.5 17.5q-6 6 -29.5 26.5t-51 46t-53.5 50.5t-37 40 q-30 -33 -79.5 -59t-106 -46.5t-112 -35.5t-97.5 -26l-12 13q86 33 143.5 80t92 94t49 88t16.5 63h-43q-10 0 -10 7q0 6 10 6h123z" />
<glyph unicode="&#xae45;" horiz-adv-x="811" d="M780 353q0 -32 -24.5 -52t-53.5 -30q-34 -12 -78 -18v510l-55 6q-4 0 -6.5 3t-2.5 6q0 10 10 10h1l209 -20v-415zM502 703q0 -141 -34 -203t-95 -101t-144.5 -63.5t-183.5 -50.5l-17 24q83 35 138 69t89 66.5t50 63.5t21.5 76.5t5.5 65.5v34h-184l-49 -25l-49 25v19h284 l84 39zM562 300q47 -6 87.5 -22t70.5 -40.5t47 -56.5t17 -68q0 -39 -21 -71.5t-57 -56t-84.5 -36.5t-103.5 -13t-103.5 13t-84.5 36.5t-57 56t-21 71.5q0 44 24.5 79t63 59.5t86 37.5t92.5 13q11 0 22 -0.5t22 -1.5zM518 -34q31 0 52.5 11.5t35 31.5t19.5 47t6 57 q0 31 -6 59.5t-19.5 50.5t-35 35.5t-52.5 13.5q-32 0 -53.5 -13.5t-34.5 -35.5t-19 -50.5t-6 -59.5q0 -30 6 -57t19 -47t34.5 -31.5t53.5 -11.5z" />
<glyph unicode="&#xae46;" horiz-adv-x="797" d="M775 413q0 -32 -24.5 -52t-53.5 -30q-34 -12 -78 -18v450l-55 6q-4 0 -6.5 3t-2.5 6q0 10 10 10h1l209 -20v-355zM497 703q0 -141 -34 -203t-95 -101t-144.5 -63.5t-183.5 -50.5l-17 24q83 35 138 69t89 66.5t50 63.5t21.5 76.5t5.5 65.5v34h-184l-49 -25l-49 25v19h284 l84 39zM517 169q10 -6 34 -15t54 -21.5t61.5 -26.5t57.5 -29t42.5 -30t15.5 -29q-2 -24 -16 -41.5t-33.5 -25.5t-41 -5.5t-39.5 17.5q-6 6 -29.5 26.5t-51 46t-53.5 50.5t-37 40l-17 -21q-23 -25 -69.5 -47t-101 -40.5t-110 -33t-97.5 -25.5l-12 13q67 25 116.5 60.5 t85 73.5t57 75.5t32.5 67.5h-1h-170l-49 -26l-49 26v20h507h11l78 36l78 -36v-20h-167h-61h-55q24 -5 39 -10t13 -16q-1 -4 -4 -11.5t-6.5 -16t-6.5 -15.5t-5 -11z" />
<glyph unicode="&#xae4a;" horiz-adv-x="797" d="M766 403q0 -32 -24.5 -52t-53.5 -30q-34 -12 -78 -18v460l-55 6q-4 0 -6.5 3t-2.5 6q0 10 10 10h1l209 -20v-365zM488 703q0 -141 -34 -203t-95 -101t-144.5 -63.5t-183.5 -50.5l-17 24q83 35 138 69t89 66.5t50 63.5t21.5 76.5t5.5 65.5v34h-184l-49 -25l-49 25v19h284 l84 39zM425 3q-3 -27 -25 -36.5t-48 -1.5t-48 32.5t-24 63.5q-2 10 -3 34.5t-2 50.5q-1 30 -2 65q24 0 53 -12.5t52.5 -38t37.5 -64.5t9 -93zM245 237l-49 -26l-49 26v20h428l98 36l88 -36v-20h-516zM791 -47v-20h-556l-49 -26l-49 26v20h654zM585 -47l103 47l103 -47h-206z M575 -57q-1 0 -19.5 -1.5t-40 -2t-38.5 0t-15 4.5q18 31 29 67.5t17 71.5t7.5 66t1.5 51q60 -1 101 -11q18 -4 33 -10.5t24 -16.5t10.5 -23.5t-8.5 -31.5q-7 -12 -23.5 -39t-33.5 -54.5t-30.5 -49t-14.5 -21.5z" />
<glyph unicode="&#xae4c;" horiz-adv-x="862" d="M831 478q29 0 49.5 -20.5t20.5 -49.5h-160v-369q0 -32 -24.5 -52t-53.5 -30q-34 -12 -78 -18v823l-55 6q-9 2 -9 10q0 9 10 9h1l209 -20v-326h28q9 17 25.5 27t36.5 10zM309 688q0 -102 -15 -191.5t-49.5 -161.5t-91.5 -124t-141 -77l-12 18q36 26 60.5 70.5t39.5 97.5 t23.5 109t11.5 104.5t3.5 85t0.5 50.5h-34l-49 -26l-49 26v19h134l84 39zM529 688q0 -102 -15 -191.5t-49.5 -161.5t-91.5 -124t-141 -77l-12 18q36 26 60.5 70.5t39.5 97.5t23.5 109t11.5 104.5t3.5 85t0.5 50.5h-34l-49 -26l-49 26v19h134l84 39z" />
<glyph unicode="&#xae4d;" horiz-adv-x="873" d="M307 691q0 -84 -12 -149t-43 -113t-85.5 -81.5t-139.5 -54.5l-12 15q36 22 59 54.5t36.5 69.5t19 75t6.5 72t0 59.5t-1 37.5h-34l-50 -22l-49 22v15h135l85 33zM530 691q0 -84 -7.5 -149t-33 -113t-75 -81.5t-134.5 -54.5l-13 15q27 19 44.5 50.5t27.5 68.5t14.5 76 t5.5 73.5t0 61t-1 38.5h-34l-50 -22l-50 22v15h136l85 33zM826 556q29 0 49.5 -20.5t20.5 -49.5h-160v-123q0 -32 -24.5 -52t-53.5 -30q-34 -12 -78 -18v500l-55 6q-4 0 -6.5 3t-2.5 6q0 10 10 10h1l209 -20v-249h28q9 17 25.5 27t36.5 10zM737 50q0 -24 -13 -41.5 t-32 -29.5t-41 -20t-41.5 -12.5t-33 -6.5t-14.5 -2v256h-294l-85 -38l-84 38v19h638v-163z" />
<glyph unicode="&#xae4e;" horiz-adv-x="860" d="M307 691q0 -84 -12 -149t-43 -113t-85.5 -81.5t-139.5 -54.5l-12 15q36 22 59 54.5t36.5 69.5t19 75t6.5 72t0 59.5t-1 37.5h-34l-50 -22l-49 22v15h135l85 33zM530 691q0 -84 -7.5 -149t-33 -113t-75 -81.5t-134.5 -54.5l-13 15q27 19 44.5 50.5t27.5 68.5t14.5 76 t5.5 73.5t0 61t-1 38.5h-34l-50 -22l-50 22v15h136l85 33zM826 556q29 0 49.5 -20.5t20.5 -49.5h-160v-123q0 -32 -24.5 -52t-53.5 -30q-34 -12 -78 -18v500l-55 6q-4 0 -6.5 3t-2.5 6q0 10 10 10h1l209 -20v-249h28q9 17 25.5 27t36.5 10zM724 50q0 -24 -13 -41.5 t-32 -29.5t-41 -20t-41.5 -12.5t-33 -6.5t-14.5 -2v256h-54l-81 -36v-108q0 -24 -13 -41.5t-32 -29.5t-41 -20t-41.5 -12.5t-33 -6.5t-14.5 -2v256h-34l-85 -38l-84 38v19h688v-163z" />
<glyph unicode="&#xae50;" horiz-adv-x="866" d="M307 691q0 -84 -12 -149t-43 -113t-85.5 -81.5t-139.5 -54.5l-12 15q36 22 59 54.5t36.5 69.5t19 75t6.5 72t0 59.5t-1 37.5h-34l-50 -22l-49 22v15h135l85 33zM530 691q0 -84 -7.5 -149t-33 -113t-75 -81.5t-134.5 -54.5l-13 15q27 19 44.5 50.5t27.5 68.5t14.5 76 t5.5 73.5t0 61t-1 38.5h-34l-50 -22l-50 22v15h136l85 33zM826 556q29 0 49.5 -20.5t20.5 -49.5h-160v-223q0 -32 -24.5 -52t-53.5 -30q-34 -12 -78 -18v600l-55 6q-4 0 -6.5 3t-2.5 6q0 10 10 10h1l209 -20v-249h28q9 17 25.5 27t36.5 10zM210 -48q-22 0 -33 9t-16 20 q-6 13 -7 30v185h-50q-10 0 -10 10t10 10h122q19 1 36 -7.5t29.5 -22t20 -29.5t7.5 -31v-136q0 -6 2 -10q4 -9 16 -9h257l84 39l84 -39v-19h-552z" />
<glyph unicode="&#xae54;" horiz-adv-x="866" d="M307 691q0 -84 -12 -149t-43 -113t-85.5 -81.5t-139.5 -54.5l-12 15q36 22 59 54.5t36.5 69.5t19 75t6.5 72t0 59.5t-1 37.5h-34l-50 -22l-49 22v15h135l85 33zM530 691q0 -84 -7.5 -149t-33 -113t-75 -81.5t-134.5 -54.5l-13 15q27 19 44.5 50.5t27.5 68.5t14.5 76 t5.5 73.5t0 61t-1 38.5h-34l-50 -22l-50 22v15h136l85 33zM748 -42v-19h-557q-24 0 -36.5 9.5t-17.5 21.5q-6 13 -7 31v112h-30q-10 0 -10 10t10 10h482v110h-314l-84 -39l-84 39v19h470l84 39l84 -39v-148h-156h-287v-137q0 -6 2 -10q4 -9 16 -9h210l112 53zM826 556 q29 0 49.5 -20.5t20.5 -49.5h-160v-73q0 -32 -24.5 -52t-53.5 -30q-34 -12 -78 -18v450l-55 6q-4 0 -6.5 3t-2.5 6q0 10 10 10h1l209 -20v-249h28q9 17 25.5 27t36.5 10z" />
<glyph unicode="&#xae56;" horiz-adv-x="863" d="M307 691q0 -84 -12 -144t-43 -103t-85.5 -71.5t-139.5 -49.5l-12 15q36 22 59 52t36.5 63.5t19 68.5t6.5 65t0 53.5t-1 35.5h-34l-50 -22l-49 22v15h135l85 33zM530 691q0 -84 -7.5 -144t-33 -103t-75 -71.5t-134.5 -49.5l-13 15q27 19 44.5 48t27.5 63t14.5 69t5.5 66.5 t0 55.5t-1 36h-34l-50 -22l-50 22v15h136l85 33zM826 556q29 0 49.5 -20.5t20.5 -49.5h-160v-73q0 -32 -24.5 -52t-53.5 -30q-34 -12 -78 -18v450l-55 6q-4 0 -6.5 3t-2.5 6q0 10 10 10h1l209 -20v-249h28q9 17 25.5 27t36.5 10zM418 -42v-19h-267q-24 0 -36.5 9.5 t-17.5 21.5q-6 13 -7 31v112h-30q-10 0 -10 10t10 10h202v110h-32h-2l-84 -39l-84 39v19h180l84 39l84 -39v-140v-8h-183v-137h34l76 34zM792 -15q7 -2 12 -7t5 -12t-5 -12t-12 -5h-257q-17 -15 -36 -23t-36 -11q-19 -4 -39 -4v365h136h66l72 38l74 -39v-283zM560 243v-242 q0 -10 -3 -19h79v261h-76z" />
<glyph unicode="&#xae5c;" horiz-adv-x="863" d="M307 691q0 -84 -12 -149t-43 -113t-85.5 -81.5t-139.5 -54.5l-12 15q36 22 59 54.5t36.5 69.5t19 75t6.5 72t0 59.5t-1 37.5h-34l-50 -22l-49 22v15h135l85 33zM530 691q0 -84 -7.5 -149t-33 -113t-75 -81.5t-134.5 -54.5l-13 15q27 19 44.5 50.5t27.5 68.5t14.5 76 t5.5 73.5t0 61t-1 38.5h-34l-50 -22l-50 22v15h136l85 33zM826 556q29 0 49.5 -20.5t20.5 -49.5h-160v-103q0 -32 -24.5 -52t-53.5 -30q-34 -12 -78 -18v480l-55 6q-4 0 -6.5 3t-2.5 6q0 10 10 10h1l209 -20v-249h28q9 17 25.5 27t36.5 10zM772 -8q7 0 12 -4.5t5 -11.5 t-5 -12t-12 -5h-497q-17 -15 -39.5 -24.5t-42.5 -14.5q-24 -6 -49 -9v320l-55 6q-4 0 -6.5 3t-2.5 6q0 10 10 10h1l209 -20h266l82 38l84 -39v-233zM300 203v-192q0 -10 -3 -19h279v211h-276z" />
<glyph unicode="&#xae5d;" horiz-adv-x="860" d="M307 691q0 -84 -12 -147.5t-43 -110t-85.5 -78t-139.5 -52.5l-12 15q36 22 59 53.5t36.5 67.5t19 73t6.5 69.5t0 57.5t-1 37h-34l-50 -22l-49 22v15h135l85 33zM530 691q0 -84 -7.5 -147.5t-33 -110t-75 -78t-134.5 -52.5l-13 15q27 19 44.5 49.5t27.5 66.5t14.5 74 t5.5 71.5t0 59t-1 37.5h-34l-50 -22l-50 22v15h136l85 33zM826 556q29 0 49.5 -20.5t20.5 -49.5h-160v-82q0 -32 -24.5 -52t-53.5 -30q-34 -12 -78 -18v459l-55 6q-4 0 -6.5 3t-2.5 6q0 10 10 10h1l209 -20v-249h28q9 17 25.5 27t36.5 10zM741 272v-265q0 -32 -24.5 -52 t-53.5 -30q-34 -12 -78 -18v48h-341q-17 -15 -39.5 -24.5t-42.5 -14.5q-24 -6 -49 -9v360l-55 6q-4 0 -6.5 3t-2.5 6q0 10 10 10h1l209 -20v-94h316v89l-55 6q-4 0 -6.5 3t-2.5 6q0 10 10 10h1zM585 -12v157h-316v-138q0 -10 -3 -19h319z" />
<glyph unicode="&#xae5f;" d="M307 691q0 -84 -12 -145.5t-43 -106.5t-85.5 -75t-139.5 -51l-12 15q36 22 59 53t36.5 65.5t19 70.5t6.5 67.5t0 55.5t-1 36h-34l-50 -22l-49 22v15h135l85 33zM530 691q0 -84 -7.5 -145.5t-33 -106.5t-75 -75t-134.5 -51l-13 15q27 19 44.5 49t27.5 64.5t14.5 71t5.5 69 t0 57.5t-1 37h-34l-50 -22l-50 22v15h136l85 33zM826 556q29 0 49.5 -20.5t20.5 -49.5h-160v-113q0 -32 -24.5 -52t-53.5 -30q-34 -12 -78 -18v490l-55 6q-4 0 -6.5 3t-2.5 6q0 10 10 10h1l209 -20v-249h28q9 17 25.5 27t36.5 10zM439 307q17 0 34 -5.5t29.5 -15t19 -23.5 t3.5 -31q-3 -13 -4.5 -20.5t-4 -14.5t-5.5 -14t-8 -18q10 -5 34 -14.5t53.5 -21.5t61 -26t57.5 -29t42 -30t15 -29q-2 -24 -16 -41.5t-33.5 -25.5t-41 -5.5t-39.5 17.5q-6 6 -29.5 26.5t-51 46t-53.5 50.5t-37 40q-30 -33 -79.5 -59t-106 -46.5t-112 -35.5t-97.5 -26l-12 13 q86 33 143.5 80t92 94t49 88t16.5 63h-43q-10 0 -10 7q0 6 10 6h123z" />
<glyph unicode="&#xae60;" d="M307 691q0 -84 -12 -149t-43 -113t-85.5 -81.5t-139.5 -54.5l-12 15q36 22 59 54.5t36.5 69.5t19 75t6.5 72t0 59.5t-1 37.5h-34l-50 -22l-49 22v15h135l85 33zM530 691q0 -84 -7.5 -149t-33 -113t-75 -81.5t-134.5 -54.5l-13 15q27 19 44.5 50.5t27.5 68.5t14.5 76 t5.5 73.5t0 61t-1 38.5h-34l-50 -22l-50 22v15h136l85 33zM826 556q29 0 49.5 -20.5t20.5 -49.5h-160v-83q0 -32 -24.5 -52t-53.5 -30q-34 -12 -78 -18v460l-55 6q-4 0 -6.5 3t-2.5 6q0 10 10 10h1l209 -20v-249h28q9 17 25.5 27t36.5 10zM636 165q15 -9 43 -26.5 t55.5 -39.5t47 -46.5t18.5 -47.5q-2 -27 -17.5 -43t-36 -21t-41.5 1t-34 21q-5 7 -13 20.5t-18 30.5t-22 35t-25 33q-45 -57 -110.5 -102t-146.5 -69l-11 15q23 13 42.5 27t35.5 28q-5 7 -11 21t-13.5 32t-16.5 37t-20 35l-15 -24q-23 -28 -55.5 -54t-70.5 -48t-79.5 -39.5 t-81.5 -29.5l-12 15q69 37 110.5 85t64 95.5t30.5 89t10 66.5h-32q-10 0 -10 8q0 7 10 7h32h2h72q39 0 54.5 -10.5t19.5 -23.5q4 -15 -4 -33q-3 -6 -4.5 -10t-3.5 -8.5t-4 -10.5t-6 -16q10 -6 23.5 -16t27.5 -23t28 -27.5t25 -28.5q15 29 23 57t11 53.5t3.5 46.5t0.5 35h-33 q-10 0 -10 8q0 7 10 7h31h2h72q38 0 53 -12t18 -26q4 -17 -4 -38q-3 -8 -6 -16.5t-8 -19.5z" />
<glyph unicode="&#xae61;" d="M307 691q0 -84 -12 -149t-43 -113t-85.5 -81.5t-139.5 -54.5l-12 15q36 22 59 54.5t36.5 69.5t19 75t6.5 72t0 59.5t-1 37.5h-34l-50 -22l-49 22v15h135l85 33zM530 691q0 -84 -7.5 -149t-33 -113t-75 -81.5t-134.5 -54.5l-13 15q27 19 44.5 50.5t27.5 68.5t14.5 76 t5.5 73.5t0 61t-1 38.5h-34l-50 -22l-50 22v15h136l85 33zM826 556q29 0 49.5 -20.5t20.5 -49.5h-160v-123q0 -32 -24.5 -52t-53.5 -30q-34 -12 -78 -18v500l-55 6q-4 0 -6.5 3t-2.5 6q0 10 10 10h1l209 -20v-249h28q9 17 25.5 27t36.5 10zM508 300q47 -6 87.5 -22 t70.5 -40.5t47 -56.5t17 -68q0 -39 -21 -71.5t-57 -56t-84.5 -36.5t-103.5 -13t-103.5 13t-84.5 36.5t-57 56t-21 71.5q0 44 24.5 79t63 59.5t86 37.5t92.5 13q11 0 22 -0.5t22 -1.5zM464 -34q31 0 52.5 11.5t35 31.5t19.5 47t6 57q0 31 -6 59.5t-19.5 50.5t-35 35.5 t-52.5 13.5q-32 0 -53.5 -13.5t-34.5 -35.5t-19 -50.5t-6 -59.5q0 -30 6 -57t19 -47t34.5 -31.5t53.5 -11.5z" />
<glyph unicode="&#xae65;" d="M307 691q0 -84 -12 -149t-43 -113t-85.5 -81.5t-139.5 -54.5l-12 15q36 22 59 54.5t36.5 69.5t19 75t6.5 72t0 59.5t-1 37.5h-34l-50 -22l-49 22v15h135l85 33zM530 691q0 -84 -7.5 -149t-33 -113t-75 -81.5t-134.5 -54.5l-13 15q27 19 44.5 50.5t27.5 68.5t14.5 76 t5.5 73.5t0 61t-1 38.5h-34l-50 -22l-50 22v15h136l85 33zM826 556q29 0 49.5 -20.5t20.5 -49.5h-160v-103q0 -32 -24.5 -52t-53.5 -30q-34 -12 -78 -18v480l-55 6q-4 0 -6.5 3t-2.5 6q0 10 10 10h1l209 -20v-249h28q9 17 25.5 27t36.5 10zM306 220v-125h242l84 38l84 -38 v-19h-410v-121h262l104 58l94 -58v-19h-460h-134q-15 0 -23 5.5t-12 13.5q-4 9 -5 20v244h-38q-10 0 -10 10t10 10h474l84 38l84 -38v-19h-430z" />
<glyph unicode="&#xae68;" horiz-adv-x="895" d="M844 408h-180v-329q0 -32 -21 -51.5t-47 -30.5q-30 -12 -68 -18v753l-55 6q-9 2 -9 10q0 9 10 9h1l189 -20v-296h178zM864 19q0 -32 -21 -51.5t-47 -30.5q-30 -12 -68 -18v843l-55 6q-9 2 -9 10q0 9 10 9h1l189 -20v-748zM299 688q0 -102 -15 -191.5t-49.5 -161.5 t-91.5 -124t-141 -77l-12 18q36 26 60.5 70.5t39.5 97.5t23.5 109t11.5 104.5t3.5 85t0.5 50.5h-24l-49 -26l-49 26v19h124l84 39zM509 688q0 -102 -15 -191.5t-49.5 -161.5t-91.5 -124t-141 -77l-12 18q36 26 60.5 70.5t39.5 97.5t23.5 109t11.5 104.5t3.5 85t0.5 50.5h-34 l-49 -26l-49 26v19h134l84 39z" />
<glyph unicode="&#xae69;" horiz-adv-x="888" d="M830 498h-170v-149q0 -32 -21 -51.5t-47 -30.5q-30 -12 -68 -18v483l-55 6q-9 2 -9 10q0 9 10 9h1l189 -20v-206h168zM850 349q0 -32 -21 -51.5t-47 -30.5q-30 -12 -68 -18v513l-55 6q-9 2 -9 10q0 9 10 9h1l189 -20v-418zM287 691q0 -84 -12 -149t-43 -113t-85.5 -81.5 t-139.5 -54.5l-12 15q36 22 59 54.5t36.5 69.5t19 75t6.5 72t0 59.5t-1 37.5h-24l-50 -22l-49 22v15h125l85 33zM500 691q0 -84 -7.5 -149t-33 -113t-75 -81.5t-134.5 -54.5l-13 15q27 19 44.5 50.5t27.5 68.5t14.5 76t5.5 73.5t0 61t-1 38.5h-34l-50 -22l-50 22v15h136 l85 33zM848 50q0 -24 -13 -41.5t-32 -29.5t-41 -20t-41.5 -12.5t-33 -6.5t-14.5 -2v256h-294l-85 -38l-84 38v19h638v-163z" />
<glyph unicode="&#xae6c;" horiz-adv-x="878" d="M830 498h-170v-199q0 -32 -21 -51.5t-47 -30.5q-30 -12 -68 -18v533l-55 6q-9 2 -9 10q0 9 10 9h1l189 -20v-206h168zM850 299q0 -32 -21 -51.5t-47 -30.5q-30 -12 -68 -18v563l-55 6q-9 2 -9 10q0 9 10 9h1l189 -20v-468zM287 691q0 -84 -12 -149t-43 -113t-85.5 -81.5 t-139.5 -54.5l-12 15q36 22 59 54.5t36.5 69.5t19 75t6.5 72t0 59.5t-1 37.5h-24l-50 -22l-49 22v15h125l85 33zM500 691q0 -84 -7.5 -149t-33 -113t-75 -81.5t-134.5 -54.5l-13 15q27 19 44.5 50.5t27.5 68.5t14.5 76t5.5 73.5t0 61t-1 38.5h-34l-50 -22l-50 22v15h136 l85 33zM330 -48q-22 0 -33 9t-16 20q-6 13 -7 30v185h-50q-10 0 -10 10t10 10h122q19 1 36 -7.5t29.5 -22t20 -29.5t7.5 -31v-136q0 -6 2 -10q4 -9 16 -9h227l84 39l84 -39v-19h-522z" />
<glyph unicode="&#xae70;" horiz-adv-x="874" d="M830 498h-170v-99q0 -32 -21 -51.5t-47 -30.5q-30 -12 -68 -18v433l-55 6q-9 2 -9 10q0 9 10 9h1l189 -20v-206h168zM850 419q0 -32 -21 -51.5t-47 -30.5q-30 -12 -68 -18v443l-55 6q-9 2 -9 10q0 9 10 9h1l189 -20v-348zM287 691q0 -84 -12 -149t-43 -113t-85.5 -81.5 t-139.5 -54.5l-12 15q36 22 59 54.5t36.5 69.5t19 75t6.5 72t0 59.5t-1 37.5h-24l-50 -22l-49 22v15h125l85 33zM500 691q0 -84 -7.5 -149t-33 -113t-75 -81.5t-134.5 -54.5l-13 15q27 19 44.5 50.5t27.5 68.5t14.5 76t5.5 73.5t0 61t-1 38.5h-34l-50 -22l-50 22v15h136 l85 33zM855 -42v-19h-567q-24 0 -36.5 9.5t-17.5 21.5q-6 13 -7 31v112h-30q-10 0 -10 10t10 10h482v110h-314l-84 -39l-84 39v19h470l84 39l84 -39v-148h-443v-137q0 -6 2 -10q4 -9 16 -9h200l122 73z" />
<glyph unicode="&#xae78;" horiz-adv-x="878" d="M830 498h-170v-109q0 -32 -21 -51.5t-47 -30.5q-30 -12 -68 -18v443l-55 6q-9 2 -9 10q0 9 10 9h1l189 -20v-206h168zM850 399q0 -32 -21 -51.5t-47 -30.5q-30 -12 -68 -18v463l-55 6q-9 2 -9 10q0 9 10 9h1l189 -20v-368zM287 691q0 -84 -12 -149t-43 -113t-85.5 -81.5 t-139.5 -54.5l-12 15q36 22 59 54.5t36.5 69.5t19 75t6.5 72t0 59.5t-1 37.5h-24l-50 -22l-49 22v15h125l85 33zM500 691q0 -84 -7.5 -149t-33 -113t-75 -81.5t-134.5 -54.5l-13 15q27 19 44.5 50.5t27.5 68.5t14.5 76t5.5 73.5t0 61t-1 38.5h-34l-50 -22l-50 22v15h136 l85 33zM858 -8q7 0 12 -4.5t5 -11.5t-5 -12t-12 -5h-497q-17 -15 -39.5 -24.5t-42.5 -14.5q-24 -6 -49 -9v320l-55 6q-4 0 -6.5 3t-2.5 6q0 10 10 10h1l209 -20h266l82 38l84 -39v-233zM386 203v-192q0 -10 -3 -19h279v211h-276z" />
<glyph unicode="&#xae79;" horiz-adv-x="874" d="M830 498h-170v-119q0 -32 -21 -51.5t-47 -30.5q-30 -12 -68 -18v453l-55 6q-9 2 -9 10q0 9 10 9h1l189 -20v-206h168zM850 379q0 -32 -21 -51.5t-47 -30.5q-30 -12 -68 -18v483l-55 6q-9 2 -9 10q0 9 10 9h1l189 -20v-388zM287 691q0 -84 -12 -149t-43 -113t-85.5 -81.5 t-139.5 -54.5l-12 15q36 22 59 54.5t36.5 69.5t19 75t6.5 72t0 59.5t-1 37.5h-24l-50 -22l-49 22v15h125l85 33zM500 691q0 -84 -7.5 -149t-33 -113t-75 -81.5t-134.5 -54.5l-13 15q27 19 44.5 50.5t27.5 68.5t14.5 76t5.5 73.5t0 61t-1 38.5h-34l-50 -22l-50 22v15h136 l85 33zM845 272v-265q0 -32 -24.5 -52t-53.5 -30q-34 -12 -78 -18v48h-291q-17 -15 -39.5 -24.5t-42.5 -14.5q-24 -6 -49 -9v340l-55 6q-4 0 -6.5 3t-2.5 6q0 10 10 10h1l209 -20v-74h266v89l-55 6q-4 0 -6.5 3t-2.5 6q0 10 10 10h1zM689 -12v157h-266v-138q0 -10 -3 -19 h269z" />
<glyph unicode="&#xae7b;" horiz-adv-x="871" d="M830 498h-170v-109q0 -32 -21 -51.5t-47 -30.5q-30 -12 -68 -18v443l-55 6q-9 2 -9 10q0 9 10 9h1l189 -20v-206h168zM850 349q0 -32 -21 -51.5t-47 -30.5q-30 -12 -68 -18v513l-55 6q-9 2 -9 10q0 9 10 9h1l189 -20v-418zM287 691q0 -84 -12 -149t-43 -113t-85.5 -81.5 t-139.5 -54.5l-12 15q36 22 59 54.5t36.5 69.5t19 75t6.5 72t0 59.5t-1 37.5h-24l-50 -22l-49 22v15h125l85 33zM500 691q0 -84 -7.5 -149t-33 -113t-75 -81.5t-134.5 -54.5l-13 15q27 19 44.5 50.5t27.5 68.5t14.5 76t5.5 73.5t0 61t-1 38.5h-34l-50 -22l-50 22v15h136 l85 33zM519 307q17 0 34 -5.5t29.5 -15t19 -23.5t3.5 -31q-3 -13 -4.5 -20.5t-4 -14.5t-5.5 -14t-8 -18q10 -5 34 -14.5t53.5 -21.5t61 -26t57.5 -29t42 -30t15 -29q-2 -24 -16 -41.5t-33.5 -25.5t-41 -5.5t-39.5 17.5q-6 6 -29.5 26.5t-51 46t-53.5 50.5t-37 40 q-30 -33 -79.5 -59t-106 -46.5t-112 -35.5t-97.5 -26l-12 13q86 33 143.5 80t92 94t49 88t16.5 63h-43q-10 0 -10 7q0 6 10 6h123z" />
<glyph unicode="&#xae7c;" horiz-adv-x="871" d="M830 498h-170v-149q0 -32 -21 -51.5t-47 -30.5q-30 -12 -68 -18v483l-55 6q-9 2 -9 10q0 9 10 9h1l189 -20v-206h168zM850 349q0 -32 -21 -51.5t-47 -30.5q-30 -12 -68 -18v513l-55 6q-9 2 -9 10q0 9 10 9h1l189 -20v-418zM287 691q0 -84 -12 -149t-43 -113t-85.5 -81.5 t-139.5 -54.5l-12 15q36 22 59 54.5t36.5 69.5t19 75t6.5 72t0 59.5t-1 37.5h-24l-50 -22l-49 22v15h125l85 33zM500 691q0 -84 -7.5 -149t-33 -113t-75 -81.5t-134.5 -54.5l-13 15q27 19 44.5 50.5t27.5 68.5t14.5 76t5.5 73.5t0 61t-1 38.5h-34l-50 -22l-50 22v15h136 l85 33zM716 165q15 -9 43 -26.5t55.5 -39.5t47 -46.5t18.5 -47.5q-2 -27 -17.5 -43t-36 -21t-41.5 1t-34 21q-5 7 -13 20.5t-18 30.5t-22 35t-25 33q-45 -57 -110.5 -102t-146.5 -69l-11 15q23 13 42.5 27t35.5 28q-5 7 -11 21t-13.5 32t-16.5 37t-20 35l-15 -24 q-23 -28 -55.5 -54t-70.5 -48t-79.5 -39.5t-81.5 -29.5l-12 15q69 37 110.5 85t64 95.5t30.5 89t10 66.5h-32q-10 0 -10 8q0 7 10 7h32h2h72q39 0 54.5 -10.5t19.5 -23.5q4 -15 -4 -33q-3 -6 -4.5 -10t-3.5 -8.5t-4 -10.5t-6 -16q10 -6 23.5 -16t27.5 -23t28 -27.5t25 -28.5 q15 29 23 57t11 53.5t3.5 46.5t0.5 35h-33q-10 0 -10 8q0 7 10 7h31h2h72q38 0 53 -12t18 -26q4 -17 -4 -38q-3 -8 -6 -16.5t-8 -19.5z" />
<glyph unicode="&#xae7d;" horiz-adv-x="871" d="M830 498h-170v-129q0 -32 -21 -51.5t-47 -30.5q-30 -12 -68 -18v463l-55 6q-9 2 -9 10q0 9 10 9h1l189 -20v-206h168zM850 369q0 -32 -21 -51.5t-47 -30.5q-30 -12 -68 -18v493l-55 6q-9 2 -9 10q0 9 10 9h1l189 -20v-398zM287 691q0 -84 -12 -149t-43 -113t-85.5 -81.5 t-139.5 -54.5l-12 15q36 22 59 54.5t36.5 69.5t19 75t6.5 72t0 59.5t-1 37.5h-24l-50 -22l-49 22v15h125l85 33zM500 691q0 -84 -7.5 -149t-33 -113t-75 -81.5t-134.5 -54.5l-13 15q27 19 44.5 50.5t27.5 68.5t14.5 76t5.5 73.5t0 61t-1 38.5h-34l-50 -22l-50 22v15h136 l85 33zM618 300q47 -6 87.5 -22t70.5 -40.5t47 -56.5t17 -68q0 -39 -21 -71.5t-57 -56t-84.5 -36.5t-103.5 -13t-103.5 13t-84.5 36.5t-57 56t-21 71.5q0 44 24.5 79t63 59.5t86 37.5t92.5 13q11 0 22 -0.5t22 -1.5zM574 -34q31 0 52.5 11.5t35 31.5t19.5 47t6 57 q0 31 -6 59.5t-19.5 50.5t-35 35.5t-52.5 13.5q-32 0 -53.5 -13.5t-34.5 -35.5t-19 -50.5t-6 -59.5q0 -30 6 -57t19 -47t34.5 -31.5t53.5 -11.5z" />
<glyph unicode="&#xae84;" d="M820 568q29 0 49.5 -20.5t20.5 -49.5h-180v-168h69q9 17 25.5 27t36.5 10q29 0 49.5 -20.5t20.5 -49.5h-201v-258q0 -32 -24.5 -52t-53.5 -30q-34 -12 -78 -18v823l-55 6q-9 2 -9 10q0 9 10 9h1l209 -20v-236h48q9 17 25.5 27t36.5 10zM309 688q0 -102 -15 -191.5 t-49.5 -161.5t-91.5 -124t-141 -77l-12 18q36 26 60.5 70.5t39.5 97.5t23.5 109t11.5 104.5t3.5 85t0.5 50.5h-34l-49 -26l-49 26v19h134l84 39zM529 688q0 -102 -15 -191.5t-49.5 -161.5t-91.5 -124t-141 -77l-12 18q36 26 60.5 70.5t39.5 97.5t23.5 109t11.5 104.5t3.5 85 t0.5 50.5h-34l-49 -26l-49 26v19h134l84 39z" />
<glyph unicode="&#xae85;" d="M813 666q29 0 49.5 -20.5t20.5 -49.5h-160v-136h55q9 17 25.5 27t36.5 10q29 0 49.5 -20.5t20.5 -49.5h-187v-84q0 -32 -24.5 -52t-53.5 -30q-34 -12 -78 -18v520l-55 6q-4 0 -6.5 3t-2.5 6q0 10 10 10h1l209 -20v-139h28q9 17 25.5 27t36.5 10zM307 691q0 -84 -12 -149 t-43 -113t-85.5 -81.5t-139.5 -54.5l-12 15q36 22 59 54.5t36.5 69.5t19 75t6.5 72t0 59.5t-1 37.5h-34l-50 -22l-49 22v15h135l85 33zM530 691q0 -84 -7.5 -149t-33 -113t-75 -81.5t-134.5 -54.5l-13 15q27 19 44.5 50.5t27.5 68.5t14.5 76t5.5 73.5t0 61t-1 38.5h-34 l-50 -22l-50 22v15h136l85 33zM724 50q0 -24 -13 -41.5t-32 -29.5t-41 -20t-41.5 -12.5t-33 -6.5t-14.5 -2v256h-294l-85 -38l-84 38v19h638v-163z" />
<glyph unicode="&#xae8c;" d="M813 666q29 0 49.5 -20.5t20.5 -49.5h-160v-136h55q9 17 25.5 27t36.5 10q29 0 49.5 -20.5t20.5 -49.5h-187v-24q0 -32 -24.5 -52t-53.5 -30q-34 -12 -78 -18v460l-55 6q-4 0 -6.5 3t-2.5 6q0 10 10 10h1l209 -20v-139h28q9 17 25.5 27t36.5 10zM307 691q0 -84 -12 -149 t-43 -113t-85.5 -81.5t-139.5 -54.5l-12 15q36 22 59 54.5t36.5 69.5t19 75t6.5 72t0 59.5t-1 37.5h-34l-50 -22l-49 22v15h135l85 33zM530 691q0 -84 -7.5 -149t-33 -113t-75 -81.5t-134.5 -54.5l-13 15q27 19 44.5 50.5t27.5 68.5t14.5 76t5.5 73.5t0 61t-1 38.5h-34 l-50 -22l-50 22v15h136l85 33zM735 -42v-19h-557q-24 0 -36.5 9.5t-17.5 21.5q-6 13 -7 31v112h-30q-10 0 -10 10t10 10h482v110h-162h-152l-84 -39l-84 39v19h470l84 39l84 -39v-19v-121v-8h-156h-287v-31v-5v-101q0 -6 2 -10q4 -9 16 -9h210l112 53z" />
<glyph unicode="&#xaebc;" horiz-adv-x="841" d="M648 434h-20q-9 -17 -25.5 -27t-36.5 -10q-29 0 -49.5 20.5t-20.5 49.5h152v295l-55 6q-9 2 -9 10q0 9 10 9h1l209 -20v-728q0 -32 -24.5 -52t-53.5 -30q-34 -12 -78 -18v495zM309 688q0 -102 -15 -191.5t-49.5 -161.5t-91.5 -124t-141 -77l-12 18q36 26 60.5 70.5 t39.5 97.5t23.5 109t11.5 104.5t3.5 85t0.5 50.5h-34l-49 -26l-49 26v19h134l84 39zM529 688q0 -102 -15 -191.5t-49.5 -161.5t-91.5 -124t-141 -77l-12 18q36 26 60.5 70.5t39.5 97.5t23.5 109t11.5 104.5t3.5 85t0.5 50.5h-34l-49 -26l-49 26v19h134l84 39z" />
<glyph unicode="&#xaebd;" horiz-adv-x="876" d="M833 343q0 -32 -24.5 -52t-53.5 -30q-34 -12 -78 -18v280h-22q-9 -17 -25.5 -27t-36.5 -10q-29 0 -49.5 20.5t-20.5 49.5h154v207l-55 6q-4 0 -6.5 3t-2.5 6q0 10 10 10h1l209 -20v-425zM307 691q0 -84 -12 -149t-43 -113t-85.5 -81.5t-139.5 -54.5l-12 15q36 22 59 54.5 t36.5 69.5t19 75t6.5 72t0 59.5t-1 37.5h-34l-50 -22l-49 22v15h135l85 33zM530 691q0 -84 -7.5 -149t-33 -113t-75 -81.5t-134.5 -54.5l-13 15q27 19 44.5 50.5t27.5 68.5t14.5 76t5.5 73.5t0 61t-1 38.5h-34l-50 -22l-50 22v15h136l85 33zM834 50q0 -24 -13 -41.5 t-32 -29.5t-41 -20t-41.5 -12.5t-33 -6.5t-14.5 -2v256h-294l-85 -38l-84 38v19h638v-163z" />
<glyph unicode="&#xaebe;" horiz-adv-x="873" d="M833 343q0 -32 -24.5 -52t-53.5 -30q-34 -12 -78 -18v280h-22q-9 -17 -25.5 -27t-36.5 -10q-29 0 -49.5 20.5t-20.5 49.5h154v207l-55 6q-4 0 -6.5 3t-2.5 6q0 10 10 10h1l209 -20v-425zM307 691q0 -84 -12 -149t-43 -113t-85.5 -81.5t-139.5 -54.5l-12 15q36 22 59 54.5 t36.5 69.5t19 75t6.5 72t0 59.5t-1 37.5h-34l-50 -22l-49 22v15h135l85 33zM530 691q0 -84 -7.5 -149t-33 -113t-75 -81.5t-134.5 -54.5l-13 15q27 19 44.5 50.5t27.5 68.5t14.5 76t5.5 73.5t0 61t-1 38.5h-34l-50 -22l-50 22v15h136l85 33zM834 50q0 -24 -13 -41.5 t-32 -29.5t-41 -20t-41.5 -12.5t-33 -6.5t-14.5 -2v256h-54l-81 -36v-108q0 -24 -13 -41.5t-32 -29.5t-41 -20t-41.5 -12.5t-33 -6.5t-14.5 -2v256h-34l-85 -38l-84 38v19h688v-163z" />
<glyph unicode="&#xaec0;" horiz-adv-x="870" d="M833 243q0 -32 -24.5 -52t-53.5 -30q-34 -12 -78 -18v380h-22q-9 -17 -25.5 -27t-36.5 -10q-29 0 -49.5 20.5t-20.5 49.5h154v207l-55 6q-4 0 -6.5 3t-2.5 6q0 10 10 10h1l209 -20v-525zM307 691q0 -84 -12 -149t-43 -113t-85.5 -81.5t-139.5 -54.5l-12 15q36 22 59 54.5 t36.5 69.5t19 75t6.5 72t0 59.5t-1 37.5h-34l-50 -22l-49 22v15h135l85 33zM530 691q0 -84 -7.5 -149t-33 -113t-75 -81.5t-134.5 -54.5l-13 15q27 19 44.5 50.5t27.5 68.5t14.5 76t5.5 73.5t0 61t-1 38.5h-34l-50 -22l-50 22v15h136l85 33zM270 -48q-22 0 -33 9t-16 20 q-6 13 -7 30v185h-50q-10 0 -10 10t10 10h122q19 1 36 -7.5t29.5 -22t20 -29.5t7.5 -31v-136q0 -6 2 -10q4 -9 16 -9h257l84 39l84 -39v-19h-552z" />
<glyph unicode="&#xaec4;" horiz-adv-x="867" d="M833 403q0 -32 -24.5 -52t-53.5 -30q-34 -12 -78 -18v220h-22q-9 -17 -25.5 -27t-36.5 -10q-29 0 -49.5 20.5t-20.5 49.5h154v207l-55 6q-4 0 -6.5 3t-2.5 6q0 10 10 10h1l209 -20v-365zM307 691q0 -84 -12 -149t-43 -113t-85.5 -81.5t-139.5 -54.5l-12 15q36 22 59 54.5 t36.5 69.5t19 75t6.5 72t0 59.5t-1 37.5h-34l-50 -22l-49 22v15h135l85 33zM530 691q0 -84 -7.5 -149t-33 -113t-75 -81.5t-134.5 -54.5l-13 15q27 19 44.5 50.5t27.5 68.5t14.5 76t5.5 73.5t0 61t-1 38.5h-34l-50 -22l-50 22v15h136l85 33zM846 -42v-19h-557 q-24 0 -36.5 9.5t-17.5 21.5q-6 13 -7 31v112h-30q-10 0 -10 10t10 10h482v110h-314l-84 -39l-84 39v19h470l84 39l84 -39v-148h-156h-287v-137q0 -6 2 -10q4 -9 16 -9h210l112 53z" />
<glyph unicode="&#xaecc;" horiz-adv-x="873" d="M833 383q0 -32 -24.5 -52t-53.5 -30q-34 -12 -78 -18v240h-22q-9 -17 -25.5 -27t-36.5 -10q-29 0 -49.5 20.5t-20.5 49.5h154v207l-55 6q-4 0 -6.5 3t-2.5 6q0 10 10 10h1l209 -20v-385zM307 691q0 -84 -12 -149t-43 -113t-85.5 -81.5t-139.5 -54.5l-12 15q36 22 59 54.5 t36.5 69.5t19 75t6.5 72t0 59.5t-1 37.5h-34l-50 -22l-49 22v15h135l85 33zM530 691q0 -84 -7.5 -149t-33 -113t-75 -81.5t-134.5 -54.5l-13 15q27 19 44.5 50.5t27.5 68.5t14.5 76t5.5 73.5t0 61t-1 38.5h-34l-50 -22l-50 22v15h136l85 33zM862 -8q7 0 12 -4.5t5 -11.5 t-5 -12t-12 -5h-497q-17 -15 -39.5 -24.5t-42.5 -14.5q-24 -6 -49 -9v320l-55 6q-4 0 -6.5 3t-2.5 6q0 10 10 10h1l209 -20h266l82 38l84 -39v-233zM390 203v-192q0 -10 -3 -19h279v211h-276z" />
<glyph unicode="&#xaecd;" horiz-adv-x="876" d="M833 403q0 -32 -24.5 -52t-53.5 -30q-34 -12 -78 -18v220h-22q-9 -17 -25.5 -27t-36.5 -10q-29 0 -49.5 20.5t-20.5 49.5h154v207l-55 6q-4 0 -6.5 3t-2.5 6q0 10 10 10h1l209 -20v-365zM307 691q0 -84 -12 -149t-43 -113t-85.5 -81.5t-139.5 -54.5l-12 15q36 22 59 54.5 t36.5 69.5t19 75t6.5 72t0 59.5t-1 37.5h-34l-50 -22l-49 22v15h135l85 33zM530 691q0 -84 -7.5 -149t-33 -113t-75 -81.5t-134.5 -54.5l-13 15q27 19 44.5 50.5t27.5 68.5t14.5 76t5.5 73.5t0 61t-1 38.5h-34l-50 -22l-50 22v15h136l85 33zM831 272v-265q0 -32 -24.5 -52 t-53.5 -30q-34 -12 -78 -18v48h-341q-17 -15 -39.5 -24.5t-42.5 -14.5q-24 -6 -49 -9v360l-55 6q-4 0 -6.5 3t-2.5 6q0 10 10 10h1l209 -20v-94h316v89l-55 6q-4 0 -6.5 3t-2.5 6q0 10 10 10h1zM675 -12v157h-316v-138q0 -10 -3 -19h319z" />
<glyph unicode="&#xaecf;" horiz-adv-x="870" d="M833 343q0 -32 -24.5 -52t-53.5 -30q-34 -12 -78 -18v280h-22q-9 -17 -25.5 -27t-36.5 -10q-29 0 -49.5 20.5t-20.5 49.5h154v207l-55 6q-4 0 -6.5 3t-2.5 6q0 10 10 10h1l209 -20v-425zM307 691q0 -84 -12 -149t-43 -113t-85.5 -81.5t-139.5 -54.5l-12 15q36 22 59 54.5 t36.5 69.5t19 75t6.5 72t0 59.5t-1 37.5h-34l-50 -22l-49 22v15h135l85 33zM530 691q0 -84 -7.5 -149t-33 -113t-75 -81.5t-134.5 -54.5l-13 15q27 19 44.5 50.5t27.5 68.5t14.5 76t5.5 73.5t0 61t-1 38.5h-34l-50 -22l-50 22v15h136l85 33zM529 307q17 0 34 -5.5t29.5 -15 t19 -23.5t3.5 -31q-3 -13 -4.5 -20.5t-4 -14.5t-5.5 -14t-8 -18q10 -5 34 -14.5t53.5 -21.5t61 -26t57.5 -29t42 -30t15 -29q-2 -24 -16 -41.5t-33.5 -25.5t-41 -5.5t-39.5 17.5q-6 6 -29.5 26.5t-51 46t-53.5 50.5t-37 40q-30 -33 -79.5 -59t-106 -46.5t-112 -35.5 t-97.5 -26l-12 13q86 33 143.5 80t92 94t49 88t16.5 63h-43q-10 0 -10 7q0 6 10 6h123z" />
<glyph unicode="&#xaed0;" horiz-adv-x="864" d="M833 383q0 -32 -24.5 -52t-53.5 -30q-34 -12 -78 -18v240h-22q-9 -17 -25.5 -27t-36.5 -10q-29 0 -49.5 20.5t-20.5 49.5h154v207l-55 6q-4 0 -6.5 3t-2.5 6q0 10 10 10h1l209 -20v-385zM307 691q0 -84 -12 -149t-43 -113t-85.5 -81.5t-139.5 -54.5l-12 15q36 22 59 54.5 t36.5 69.5t19 75t6.5 72t0 59.5t-1 37.5h-34l-50 -22l-49 22v15h135l85 33zM530 691q0 -84 -7.5 -149t-33 -113t-75 -81.5t-134.5 -54.5l-13 15q27 19 44.5 50.5t27.5 68.5t14.5 76t5.5 73.5t0 61t-1 38.5h-34l-50 -22l-50 22v15h136l85 33zM706 165q15 -9 43 -26.5 t55.5 -39.5t47 -46.5t18.5 -47.5q-2 -27 -17.5 -43t-36 -21t-41.5 1t-34 21q-5 7 -13 20.5t-18 30.5t-22 35t-25 33q-45 -57 -110.5 -102t-146.5 -69l-11 15q23 13 42.5 27t35.5 28q-5 7 -11 21t-13.5 32t-16.5 37t-20 35l-15 -24q-23 -28 -55.5 -54t-70.5 -48t-79.5 -39.5 t-81.5 -29.5l-12 15q69 37 110.5 85t64 95.5t30.5 89t10 66.5h-32q-10 0 -10 8q0 7 10 7h32h2h72q39 0 54.5 -10.5t19.5 -23.5q4 -15 -4 -33q-3 -6 -4.5 -10t-3.5 -8.5t-4 -10.5t-6 -16q10 -6 23.5 -16t27.5 -23t28 -27.5t25 -28.5q15 29 23 57t11 53.5t3.5 46.5t0.5 35h-33 q-10 0 -10 8q0 7 10 7h31h2h72q38 0 53 -12t18 -26q4 -17 -4 -38q-3 -8 -6 -16.5t-8 -19.5z" />
<glyph unicode="&#xaed1;" horiz-adv-x="864" d="M833 373q0 -32 -24.5 -52t-53.5 -30q-34 -12 -78 -18v250h-22q-9 -17 -25.5 -27t-36.5 -10q-29 0 -49.5 20.5t-20.5 49.5h154v207l-55 6q-4 0 -6.5 3t-2.5 6q0 10 10 10h1l209 -20v-395zM307 691q0 -84 -12 -149t-43 -113t-85.5 -81.5t-139.5 -54.5l-12 15q36 22 59 54.5 t36.5 69.5t19 75t6.5 72t0 59.5t-1 37.5h-34l-50 -22l-49 22v15h135l85 33zM530 691q0 -84 -7.5 -149t-33 -113t-75 -81.5t-134.5 -54.5l-13 15q27 19 44.5 50.5t27.5 68.5t14.5 76t5.5 73.5t0 61t-1 38.5h-34l-50 -22l-50 22v15h136l85 33zM608 300q47 -6 87.5 -22 t70.5 -40.5t47 -56.5t17 -68q0 -39 -21 -71.5t-57 -56t-84.5 -36.5t-103.5 -13t-103.5 13t-84.5 36.5t-57 56t-21 71.5q0 44 24.5 79t63 59.5t86 37.5t92.5 13q11 0 22 -0.5t22 -1.5zM564 -34q31 0 52.5 11.5t35 31.5t19.5 47t6 57q0 31 -6 59.5t-19.5 50.5t-35 35.5 t-52.5 13.5q-32 0 -53.5 -13.5t-34.5 -35.5t-19 -50.5t-6 -59.5q0 -30 6 -57t19 -47t34.5 -31.5t53.5 -11.5z" />
<glyph unicode="&#xaed8;" horiz-adv-x="888" d="M670 79q0 -32 -21 -51.5t-47 -30.5q-30 -12 -68 -18v753l-55 6q-9 2 -9 10q0 9 10 9h1l189 -20v-658zM850 19q0 -32 -21 -51.5t-47 -30.5q-30 -12 -68 -18v843l-55 6q-9 2 -9 10q0 9 10 9h1l189 -20v-748zM589 408h-68q-9 -17 -25.5 -27t-36.5 -10q-29 0 -49.5 20.5 t-20.5 49.5h200v-33zM299 688q0 -102 -15 -191.5t-49.5 -161.5t-91.5 -124t-141 -77l-12 18q36 26 60.5 70.5t39.5 97.5t23.5 109t11.5 104.5t3.5 85t0.5 50.5h-24l-49 -26l-49 26v19h124l84 39zM509 688q0 -102 -15 -191.5t-49.5 -161.5t-91.5 -124t-141 -77l-12 18 q36 26 60.5 70.5t39.5 97.5t23.5 109t11.5 104.5t3.5 85t0.5 50.5h-34l-49 -26l-49 26v19h134l84 39z" />
<glyph unicode="&#xaed9;" horiz-adv-x="873" d="M669 329q0 -32 -21 -51.5t-47 -30.5q-30 -12 -68 -18v503l-55 6q-9 2 -9 10q0 9 10 9h1l189 -20v-408zM849 329q0 -32 -21 -51.5t-47 -30.5q-30 -12 -68 -18v533l-55 6q-9 2 -9 10q0 9 10 9h1l189 -20v-438zM579 498h-68q-9 -17 -25.5 -27t-36.5 -10q-29 0 -49.5 20.5 t-20.5 49.5h200v-33zM287 691q0 -84 -12 -149t-43 -113t-85.5 -81.5t-139.5 -54.5l-12 15q36 22 59 54.5t36.5 69.5t19 75t6.5 72t0 59.5t-1 37.5h-24l-50 -22l-49 22v15h125l85 33zM500 691q0 -84 -7.5 -149t-33 -113t-75 -81.5t-134.5 -54.5l-13 15q27 19 44.5 50.5 t27.5 68.5t14.5 76t5.5 73.5t0 61t-1 38.5h-34l-50 -22l-50 22v15h136l85 33zM838 50q0 -24 -13 -41.5t-32 -29.5t-41 -20t-41.5 -12.5t-33 -6.5t-14.5 -2v256h-294l-85 -38l-84 38v19h638v-163z" />
<glyph unicode="&#xaedc;" horiz-adv-x="882" d="M669 289q0 -32 -21 -51.5t-47 -30.5q-30 -12 -68 -18v543l-55 6q-9 2 -9 10q0 9 10 9h1l189 -20v-448zM849 289q0 -32 -21 -51.5t-47 -30.5q-30 -12 -68 -18v573l-55 6q-9 2 -9 10q0 9 10 9h1l189 -20v-478zM579 498h-68q-9 -17 -25.5 -27t-36.5 -10q-29 0 -49.5 20.5 t-20.5 49.5h200v-33zM287 691q0 -84 -12 -149t-43 -113t-85.5 -81.5t-139.5 -54.5l-12 15q36 22 59 54.5t36.5 69.5t19 75t6.5 72t0 59.5t-1 37.5h-24l-50 -22l-49 22v15h125l85 33zM500 691q0 -84 -7.5 -149t-33 -113t-75 -81.5t-134.5 -54.5l-13 15q27 19 44.5 50.5 t27.5 68.5t14.5 76t5.5 73.5t0 61t-1 38.5h-34l-50 -22l-50 22v15h136l85 33zM330 -48q-22 0 -33 9t-16 20q-6 13 -7 30v185h-50q-10 0 -10 10t10 10h122q19 1 36 -7.5t29.5 -22t20 -29.5t7.5 -31v-136q0 -6 2 -10q4 -9 16 -9h227l84 39l84 -39v-19h-522z" />
<glyph unicode="&#xaee8;" horiz-adv-x="876" d="M669 379q0 -32 -21 -51.5t-47 -30.5q-30 -12 -68 -18v453l-55 6q-9 2 -9 10q0 9 10 9h1l189 -20v-358zM849 379q0 -32 -21 -51.5t-47 -30.5q-30 -12 -68 -18v483l-55 6q-9 2 -9 10q0 9 10 9h1l189 -20v-388zM579 498h-68q-9 -17 -25.5 -27t-36.5 -10q-29 0 -49.5 20.5 t-20.5 49.5h200v-33zM287 691q0 -84 -12 -149t-43 -113t-85.5 -81.5t-139.5 -54.5l-12 15q36 22 59 54.5t36.5 69.5t19 75t6.5 72t0 59.5t-1 37.5h-24l-50 -22l-49 22v15h125l85 33zM500 691q0 -84 -7.5 -149t-33 -113t-75 -81.5t-134.5 -54.5l-13 15q27 19 44.5 50.5 t27.5 68.5t14.5 76t5.5 73.5t0 61t-1 38.5h-34l-50 -22l-50 22v15h136l85 33zM858 -8q7 0 12 -4.5t5 -11.5t-5 -12t-12 -5h-497q-17 -15 -39.5 -24.5t-42.5 -14.5q-24 -6 -49 -9v320l-55 6q-4 0 -6.5 3t-2.5 6q0 10 10 10h1l209 -20h266l82 38l84 -39v-233zM386 203v-192 q0 -10 -3 -19h279v211h-276z" />
<glyph unicode="&#xaeeb;" horiz-adv-x="873" d="M669 419q0 -32 -21 -51.5t-47 -30.5q-30 -12 -68 -18v413l-55 6q-9 2 -9 10q0 9 10 9h1l189 -20v-318zM849 389q0 -32 -21 -51.5t-47 -30.5q-30 -12 -68 -18v473l-55 6q-9 2 -9 10q0 9 10 9h1l189 -20v-378zM579 498h-68q-9 -17 -25.5 -27t-36.5 -10q-29 0 -49.5 20.5 t-20.5 49.5h200v-33zM287 691q0 -84 -12 -149t-43 -113t-85.5 -81.5t-139.5 -54.5l-12 15q36 22 59 54.5t36.5 69.5t19 75t6.5 72t0 59.5t-1 37.5h-24l-50 -22l-49 22v15h125l85 33zM500 691q0 -84 -7.5 -149t-33 -113t-75 -81.5t-134.5 -54.5l-13 15q27 19 44.5 50.5 t27.5 68.5t14.5 76t5.5 73.5t0 61t-1 38.5h-34l-50 -22l-50 22v15h136l85 33zM519 307q17 0 34 -5.5t29.5 -15t19 -23.5t3.5 -31q-3 -13 -4.5 -20.5t-4 -14.5t-5.5 -14t-8 -18q10 -5 34 -14.5t53.5 -21.5t61 -26t57.5 -29t42 -30t15 -29q-2 -24 -16 -41.5t-33.5 -25.5 t-41 -5.5t-39.5 17.5q-6 6 -29.5 26.5t-51 46t-53.5 50.5t-37 40q-30 -33 -79.5 -59t-106 -46.5t-112 -35.5t-97.5 -26l-12 13q86 33 143.5 80t92 94t49 88t16.5 63h-43q-10 0 -10 7q0 6 10 6h123z" />
<glyph unicode="&#xaeed;" horiz-adv-x="873" d="M669 389q0 -32 -21 -51.5t-47 -30.5q-30 -12 -68 -18v443l-55 6q-9 2 -9 10q0 9 10 9h1l189 -20v-348zM849 389q0 -32 -21 -51.5t-47 -30.5q-30 -12 -68 -18v473l-55 6q-9 2 -9 10q0 9 10 9h1l189 -20v-378zM579 498h-68q-9 -17 -25.5 -27t-36.5 -10q-29 0 -49.5 20.5 t-20.5 49.5h200v-33zM287 691q0 -84 -12 -149t-43 -113t-85.5 -81.5t-139.5 -54.5l-12 15q36 22 59 54.5t36.5 69.5t19 75t6.5 72t0 59.5t-1 37.5h-24l-50 -22l-49 22v15h125l85 33zM500 691q0 -84 -7.5 -149t-33 -113t-75 -81.5t-134.5 -54.5l-13 15q27 19 44.5 50.5 t27.5 68.5t14.5 76t5.5 73.5t0 61t-1 38.5h-34l-50 -22l-50 22v15h136l85 33zM618 300q47 -6 87.5 -22t70.5 -40.5t47 -56.5t17 -68q0 -39 -21 -71.5t-57 -56t-84.5 -36.5t-103.5 -13t-103.5 13t-84.5 36.5t-57 56t-21 71.5q0 44 24.5 79t63 59.5t86 37.5t92.5 13 q11 0 22 -0.5t22 -1.5zM574 -34q31 0 52.5 11.5t35 31.5t19.5 47t6 57q0 31 -6 59.5t-19.5 50.5t-35 35.5t-52.5 13.5q-32 0 -53.5 -13.5t-34.5 -35.5t-19 -50.5t-6 -59.5q0 -30 6 -57t19 -47t34.5 -31.5t53.5 -11.5z" />
<glyph unicode="&#xaef4;" horiz-adv-x="858" d="M648 762l-55 6q-9 2 -9 10q0 9 10 9h1l209 -20v-728q0 -32 -24.5 -52t-53.5 -30q-34 -12 -78 -18v823zM688 497h-80q-9 -17 -25.5 -27t-36.5 -10q-29 0 -49.5 20.5t-20.5 49.5h212v-33zM657 297h-88q-9 -17 -25.5 -27t-36.5 -10q-29 0 -49.5 20.5t-20.5 49.5h220v-33z M309 688q0 -102 -15 -191.5t-49.5 -161.5t-91.5 -124t-141 -77l-12 18q36 26 60.5 70.5t39.5 97.5t23.5 109t11.5 104.5t3.5 85t0.5 50.5h-34l-49 -26l-49 26v19h134l84 39zM529 688q0 -102 -15 -191.5t-49.5 -161.5t-91.5 -124t-141 -77l-12 18q36 26 60.5 70.5t39.5 97.5 t23.5 109t11.5 104.5t3.5 85t0.5 50.5h-34l-49 -26l-49 26v19h134l84 39z" />
<glyph unicode="&#xaef8;" horiz-adv-x="855" d="M735 603h-80q-9 -17 -25.5 -27t-36.5 -10q-29 0 -49.5 20.5t-20.5 49.5h212v-33zM704 403h-88q-9 -17 -25.5 -27t-36.5 -10q-29 0 -49.5 20.5t-20.5 49.5h220v-33zM833 263q0 -32 -24.5 -52t-53.5 -30q-34 -12 -78 -18v600l-55 6q-4 0 -6.5 3t-2.5 6q0 10 10 10h1 l209 -20v-505zM307 691q0 -84 -12 -149t-43 -113t-85.5 -81.5t-139.5 -54.5l-12 15q36 22 59 54.5t36.5 69.5t19 75t6.5 72t0 59.5t-1 37.5h-24l-50 -22l-49 22v15h125l85 33zM520 691q0 -84 -7.5 -149t-33 -113t-75 -81.5t-134.5 -54.5l-13 15q27 19 44.5 50.5t27.5 68.5 t14.5 76t5.5 73.5t0 61t-1 38.5h-34l-50 -22l-50 22v15h136l85 33zM270 -48q-22 0 -33 9t-16 20q-6 13 -7 30v185h-50q-10 0 -10 10t10 10h122q19 1 36 -7.5t29.5 -22t20 -29.5t7.5 -31v-136q0 -6 2 -10q4 -9 16 -9h257l84 39l84 -39v-19h-552z" />
<glyph unicode="&#xaefc;" horiz-adv-x="858" d="M735 603h-80q-9 -17 -25.5 -27t-36.5 -10q-29 0 -49.5 20.5t-20.5 49.5h212v-33zM704 403h-88q-9 -17 -25.5 -27t-36.5 -10q-29 0 -49.5 20.5t-20.5 49.5h220v-33zM833 393q0 -32 -24.5 -52t-53.5 -30q-34 -12 -78 -18v470l-55 6q-4 0 -6.5 3t-2.5 6q0 10 10 10h1 l209 -20v-375zM307 691q0 -84 -12 -149t-43 -113t-85.5 -81.5t-139.5 -54.5l-12 15q36 22 59 54.5t36.5 69.5t19 75t6.5 72t0 59.5t-1 37.5h-24l-50 -22l-49 22v15h125l85 33zM520 691q0 -84 -7.5 -149t-33 -113t-75 -81.5t-134.5 -54.5l-13 15q27 19 44.5 50.5t27.5 68.5 t14.5 76t5.5 73.5t0 61t-1 38.5h-34l-50 -22l-50 22v15h136l85 33zM846 -42v-19h-557q-24 0 -36.5 9.5t-17.5 21.5q-6 13 -7 31v112h-30q-10 0 -10 10t10 10h482v110h-314l-84 -39l-84 39v19h470l84 39l84 -39v-148h-156h-287v-137q0 -6 2 -10q4 -9 16 -9h210l112 53z" />
<glyph unicode="&#xaf07;" horiz-adv-x="864" d="M735 603h-80q-9 -17 -25.5 -27t-36.5 -10q-29 0 -49.5 20.5t-20.5 49.5h212v-33zM704 403h-88q-9 -17 -25.5 -27t-36.5 -10q-29 0 -49.5 20.5t-20.5 49.5h220v-33zM833 343q0 -32 -24.5 -52t-53.5 -30q-34 -12 -78 -18v520l-55 6q-4 0 -6.5 3t-2.5 6q0 10 10 10h1 l209 -20v-425zM307 691q0 -84 -12 -149t-43 -113t-85.5 -81.5t-139.5 -54.5l-12 15q36 22 59 54.5t36.5 69.5t19 75t6.5 72t0 59.5t-1 37.5h-24l-50 -22l-49 22v15h125l85 33zM520 691q0 -84 -7.5 -149t-33 -113t-75 -81.5t-134.5 -54.5l-13 15q27 19 44.5 50.5t27.5 68.5 t14.5 76t5.5 73.5t0 61t-1 38.5h-34l-50 -22l-50 22v15h136l85 33zM529 307q17 0 34 -5.5t29.5 -15t19 -23.5t3.5 -31q-3 -13 -4.5 -20.5t-4 -14.5t-5.5 -14t-8 -18q10 -5 34 -14.5t53.5 -21.5t61 -26t57.5 -29t42 -30t15 -29q-2 -24 -16 -41.5t-33.5 -25.5t-41 -5.5 t-39.5 17.5q-6 6 -29.5 26.5t-51 46t-53.5 50.5t-37 40q-30 -33 -79.5 -59t-106 -46.5t-112 -35.5t-97.5 -26l-12 13q86 33 143.5 80t92 94t49 88t16.5 63h-43q-10 0 -10 7q0 6 10 6h123z" />
<glyph unicode="&#xaf08;" horiz-adv-x="861" d="M735 603h-80q-9 -17 -25.5 -27t-36.5 -10q-29 0 -49.5 20.5t-20.5 49.5h212v-33zM704 403h-88q-9 -17 -25.5 -27t-36.5 -10q-29 0 -49.5 20.5t-20.5 49.5h220v-33zM833 393q0 -32 -24.5 -52t-53.5 -30q-34 -12 -78 -18v470l-55 6q-4 0 -6.5 3t-2.5 6q0 10 10 10h1 l209 -20v-375zM307 691q0 -84 -12 -149t-43 -113t-85.5 -81.5t-139.5 -54.5l-12 15q36 22 59 54.5t36.5 69.5t19 75t6.5 72t0 59.5t-1 37.5h-24l-50 -22l-49 22v15h125l85 33zM520 691q0 -84 -7.5 -149t-33 -113t-75 -81.5t-134.5 -54.5l-13 15q27 19 44.5 50.5t27.5 68.5 t14.5 76t5.5 73.5t0 61t-1 38.5h-34l-50 -22l-50 22v15h136l85 33zM706 165q15 -9 43 -26.5t55.5 -39.5t47 -46.5t18.5 -47.5q-2 -27 -17.5 -43t-36 -21t-41.5 1t-34 21q-5 7 -13 20.5t-18 30.5t-22 35t-25 33q-45 -57 -110.5 -102t-146.5 -69l-11 15q23 13 42.5 27t35.5 28 q-5 7 -11 21t-13.5 32t-16.5 37t-20 35l-15 -24q-23 -28 -55.5 -54t-70.5 -48t-79.5 -39.5t-81.5 -29.5l-12 15q69 37 110.5 85t64 95.5t30.5 89t10 66.5h-32q-10 0 -10 8q0 7 10 7h32h2h72q39 0 54.5 -10.5t19.5 -23.5q4 -15 -4 -33q-3 -6 -4.5 -10t-3.5 -8.5t-4 -10.5 t-6 -16q10 -6 23.5 -16t27.5 -23t28 -27.5t25 -28.5q15 29 23 57t11 53.5t3.5 46.5t0.5 35h-33q-10 0 -10 8q0 7 10 7h31h2h72q38 0 53 -12t18 -26q4 -17 -4 -38q-3 -8 -6 -16.5t-8 -19.5z" />
<glyph unicode="&#xaf0d;" horiz-adv-x="867" d="M735 603h-80q-9 -17 -25.5 -27t-36.5 -10q-29 0 -49.5 20.5t-20.5 49.5h212v-33zM704 403h-88q-9 -17 -25.5 -27t-36.5 -10q-29 0 -49.5 20.5t-20.5 49.5h220v-33zM833 383q0 -32 -24.5 -52t-53.5 -30q-34 -12 -78 -18v480l-55 6q-4 0 -6.5 3t-2.5 6q0 10 10 10h1 l209 -20v-385zM307 691q0 -84 -12 -149t-43 -113t-85.5 -81.5t-139.5 -54.5l-12 15q36 22 59 54.5t36.5 69.5t19 75t6.5 72t0 59.5t-1 37.5h-24l-50 -22l-49 22v15h125l85 33zM520 691q0 -84 -7.5 -149t-33 -113t-75 -81.5t-134.5 -54.5l-13 15q27 19 44.5 50.5t27.5 68.5 t14.5 76t5.5 73.5t0 61t-1 38.5h-34l-50 -22l-50 22v15h136l85 33zM386 220v-125h242l84 38l84 -38v-19h-410v-121h262l104 58l94 -58v-19h-594q-15 0 -23 5.5t-12 13.5q-4 9 -5 20v244h-38q-10 0 -10 10t10 10h474l84 38l84 -38v-19h-430z" />
<glyph unicode="&#xaf10;" horiz-adv-x="883" d="M674 79q0 -32 -21 -51.5t-47 -30.5q-30 -12 -68 -18v309h-33q-9 -17 -25.5 -27t-36.5 -10q-29 0 -49.5 20.5t-20.5 49.5h165v167h-13q-9 -17 -25.5 -27t-36.5 -10q-29 0 -49.5 20.5t-20.5 49.5h145v211l-55 6q-9 2 -9 10q0 9 10 9h1l189 -20v-658zM854 19 q0 -32 -21 -51.5t-47 -30.5q-30 -12 -68 -18v843l-55 6q-9 2 -9 10q0 9 10 9h1l189 -20v-748zM299 688q0 -102 -15 -191.5t-49.5 -161.5t-91.5 -124t-141 -77l-12 18q36 26 60.5 70.5t39.5 97.5t23.5 109t11.5 104.5t3.5 85t0.5 50.5h-24l-49 -26l-49 26v19h124l84 39z M509 688q0 -102 -15 -191.5t-49.5 -161.5t-91.5 -124t-141 -77l-12 18q36 26 60.5 70.5t39.5 97.5t23.5 109t11.5 104.5t3.5 85t0.5 50.5h-34l-49 -26l-49 26v19h134l84 39z" />
<glyph unicode="&#xaf2c;" horiz-adv-x="907" d="M550 99h146l98 66l98 -66v-20h-766l-59 -26l-59 26v20h386v273q44 -6 78 -18q15 -5 29 -12.5t25 -17.5t17.5 -23t6.5 -29v-173zM818 706q0 -102 -4.5 -187.5t-29 -154t-76.5 -119t-147 -81.5l-12 18q31 45 50 96t30 102.5t15.5 100.5t5 90t-0.5 71.5t-1 44.5h-454 l-49 -26l-49 26v19h554l84 39zM498 706q0 -102 -4.5 -187.5t-29 -154t-76.5 -119t-147 -81.5l-12 18q31 45 50 96t30 102.5t15.5 100.5t5 90t-0.5 71.5t-1 44.5l2 19l84 39z" />
<glyph unicode="&#xaf2d;" d="M530 339h166l98 66l98 -66v-20h-766l-59 -26l-59 26v20h366v233q44 -6 78 -18q15 -5 29 -12.5t25 -17.5t17.5 -23t6.5 -29v-133zM818 726q-12 -86 -34 -143t-54 -95t-74.5 -63t-94.5 -46l-12 18q40 64 60.5 113t29 85.5t9 63.5t0.5 48h-464l-49 -26l-49 26v19h564l84 39z M488 726q-12 -86 -34 -143t-54 -95t-74.5 -63t-94.5 -46l-12 18q40 64 60.5 113t29 85.5t9 63.5t0.5 48l2 19l84 39zM797 50q0 -24 -13 -41.5t-32 -29.5t-41 -20t-41.5 -12.5t-33 -6.5t-14.5 -2v256h-354l-85 -38l-84 38v19h698v-163z" />
<glyph unicode="&#xaf30;" d="M530 309h166l98 66l98 -66v-20h-766l-59 -26l-59 26v20h366v233q44 -6 78 -18q15 -5 29 -12.5t25 -17.5t17.5 -23t6.5 -29v-133zM818 726q-12 -86 -34 -143t-54 -95t-74.5 -63t-94.5 -46l-12 18q40 64 60.5 113t29 85.5t9 63.5t0.5 48h-464l-49 -26l-49 26v19h564l84 39z M488 726q-12 -86 -34 -143t-54 -95t-74.5 -63t-94.5 -46l-12 18q40 64 60.5 113t29 85.5t9 63.5t0.5 48l2 19l84 39zM210 -58q-22 0 -33 9t-16 20q-6 13 -7 30v185h-50q-10 0 -10 10t10 10h122q19 1 36 -7.5t29.5 -22t20 -29.5t7.5 -31v-136q0 -6 2 -10q4 -9 16 -9h307 l84 39l84 -39v-19h-602z" />
<glyph unicode="&#xaf32;" d="M530 339h166l98 66l98 -66v-20h-766l-59 -26l-59 26v20h366v233q44 -6 78 -18q15 -5 29 -12.5t25 -17.5t17.5 -23t6.5 -29v-133zM818 726q-12 -86 -34 -143t-54 -95t-74.5 -63t-94.5 -46l-12 18q40 64 60.5 113t29 85.5t9 63.5t0.5 48h-464l-49 -26l-49 26v19h564l84 39z M488 726q-12 -86 -34 -143t-54 -95t-74.5 -63t-94.5 -46l-12 18q40 64 60.5 113t29 85.5t9 63.5t0.5 48l2 19l84 39zM190 -48q-22 0 -33 9t-16 20q-6 13 -7 30v195h-50q-10 0 -10 10t10 10h122q19 1 36 -7.5t29.5 -22t20 -29.5t7.5 -31v-146q0 -6 2 -10q4 -9 16 -9h7l84 39 l75 -36l-56 -22h-237zM670 245q10 -15 3 -29t-22 -22.5t-33 -8.5t-29 12q-8 8 -27 28t-32 46q24 12 49 15q21 2 45.5 -5t45.5 -36zM444 191l-34 -23l-34 23v17h361l54 32l54 -32v-17h-401zM641 191q33 -4 61 -15t48.5 -28.5t32.5 -39t12 -46.5q0 -27 -14.5 -50t-39.5 -39 t-58.5 -25t-71.5 -9t-72 9t-59 25t-39.5 39t-14.5 50q0 30 17 54t43.5 41.5t59.5 26.5t65 9q8 0 15 -0.5t15 -1.5zM611 -40q43 0 60.5 30t17.5 72q0 21 -4 41t-13.5 35t-24.5 24t-36 9q-22 0 -37 -9t-24.5 -24t-13.5 -35t-4 -41q0 -42 17.5 -72t61.5 -30z" />
<glyph unicode="&#xaf34;" d="M530 339h166l98 66l98 -66v-20h-766l-59 -26l-59 26v20h366v233q44 -6 78 -18q15 -5 29 -12.5t25 -17.5t17.5 -23t6.5 -29v-133zM818 726q-12 -86 -34 -143t-54 -95t-74.5 -63t-94.5 -46l-12 18q40 64 60.5 113t29 85.5t9 63.5t0.5 48h-464l-49 -26l-49 26v19h564l84 39z M488 726q-12 -86 -34 -143t-54 -95t-74.5 -63t-94.5 -46l-12 18q40 64 60.5 113t29 85.5t9 63.5t0.5 48l2 19l84 39zM798 -52v-19h-587q-24 0 -36.5 9.5t-17.5 21.5q-6 13 -7 31v102h-30q-10 0 -10 10t10 10h512v120h-344l-84 -39l-84 39v19h500l84 39l84 -39v-158h-156 h-317v-127q0 -6 2 -10q4 -9 16 -9h240l112 53z" />
<glyph unicode="&#xaf3c;" d="M530 339h166l98 66l98 -66v-20h-766l-59 -26l-59 26v20h366v233q44 -6 78 -18q15 -5 29 -12.5t25 -17.5t17.5 -23t6.5 -29v-133zM818 726q-12 -86 -34 -143t-54 -95t-74.5 -63t-94.5 -46l-12 18q40 64 60.5 113t29 85.5t9 63.5t0.5 48h-464l-49 -26l-49 26v19h564l84 39z M488 726q-12 -86 -34 -143t-54 -95t-74.5 -63t-94.5 -46l-12 18q40 64 60.5 113t29 85.5t9 63.5t0.5 48l2 19l84 39zM802 -18q7 0 12 -4.5t5 -11.5t-5 -12t-12 -5h-527q-17 -15 -39.5 -24.5t-42.5 -14.5q-24 -6 -49 -9v320l-55 6q-4 0 -6.5 3t-2.5 6q0 10 10 10h1l209 -20 h296l82 38l84 -39v-233zM300 193v-192q0 -10 -3 -19h309v211h-306z" />
<glyph unicode="&#xaf3d;" d="M530 339h166l98 66l98 -66v-20h-766l-59 -26l-59 26v20h366v233q44 -6 78 -18q15 -5 29 -12.5t25 -17.5t17.5 -23t6.5 -29v-133zM818 726q-12 -86 -34 -143t-54 -95t-74.5 -63t-94.5 -46l-12 18q40 64 60.5 113t29 85.5t9 63.5t0.5 48h-464l-49 -26l-49 26v19h564l84 39z M488 726q-12 -86 -34 -143t-54 -95t-74.5 -63t-94.5 -46l-12 18q40 64 60.5 113t29 85.5t9 63.5t0.5 48l2 19l84 39zM781 262v-265q0 -32 -24.5 -52t-53.5 -30q-34 -12 -78 -18v48h-341q-17 -15 -39.5 -24.5t-42.5 -14.5q-24 -6 -49 -9v360l-55 6q-4 0 -6.5 3t-2.5 6 q0 10 10 10h1l209 -20v-94h316v89l-55 6q-4 0 -6.5 3t-2.5 6q0 10 10 10h1zM625 -22v157h-316v-138q0 -10 -3 -19h319z" />
<glyph unicode="&#xaf3f;" d="M530 339h166l98 66l98 -66v-20h-766l-59 -26l-59 26v20h366v233q44 -6 78 -18q15 -5 29 -12.5t25 -17.5t17.5 -23t6.5 -29v-133zM818 726q-12 -86 -34 -143t-54 -95t-74.5 -63t-94.5 -46l-12 18q40 64 60.5 113t29 85.5t9 63.5t0.5 48h-464l-49 -26l-49 26v19h564l84 39z M488 726q-12 -86 -34 -143t-54 -95t-74.5 -63t-94.5 -46l-12 18q40 64 60.5 113t29 85.5t9 63.5t0.5 48l2 19l84 39zM459 297q17 0 34 -5.5t29.5 -15t19 -23.5t3.5 -31q-3 -13 -4.5 -20.5t-4 -14.5t-5.5 -14t-8 -18q10 -5 34 -14.5t53.5 -21.5t61 -26t57.5 -29t42 -30 t15 -29q-2 -24 -16 -41.5t-33.5 -25.5t-41 -5.5t-39.5 17.5q-6 6 -29.5 26.5t-51 46t-53.5 50.5t-37 40q-30 -33 -79.5 -59t-106 -46.5t-112 -35.5t-97.5 -26l-12 13q86 33 143.5 80t92 94t49 88t16.5 63h-43q-10 0 -10 7q0 6 10 6h123z" />
<glyph unicode="&#xaf41;" d="M530 319h166l98 66l98 -66v-20h-766l-59 -26l-59 26v20h366v233q44 -6 78 -18q15 -5 29 -12.5t25 -17.5t17.5 -23t6.5 -29v-133zM818 726q-12 -86 -34 -143t-54 -95t-74.5 -63t-94.5 -46l-12 18q40 64 60.5 113t29 85.5t9 63.5t0.5 48h-464l-49 -26l-49 26v19h564l84 39z M488 726q-12 -86 -34 -143t-54 -95t-74.5 -63t-94.5 -46l-12 18q40 64 60.5 113t29 85.5t9 63.5t0.5 48l2 19l84 39zM517 251q58 -5 108 -20.5t86.5 -38.5t57.5 -53t21 -64q0 -36 -25.5 -66.5t-70 -52.5t-104 -34.5t-127.5 -12.5t-127 12.5t-103.5 34.5t-70 52.5t-25.5 66.5 q0 41 30 74t77.5 56t105 35t113.5 12h27t27 -1zM463 -63q38 0 64.5 11t43 29.5t24 43.5t7.5 54t-7.5 56t-24 47.5t-43 33t-64.5 12.5q-39 0 -65 -12.5t-42.5 -33t-23.5 -47.5t-7 -56t7 -54t23.5 -43.5t42.5 -29.5t65 -11z" />
<glyph unicode="&#xaf42;" d="M530 339h166l98 66l98 -66v-20h-766l-59 -26l-59 26v20h366v233q44 -6 78 -18q15 -5 29 -12.5t25 -17.5t17.5 -23t6.5 -29v-133zM818 726q-12 -86 -34 -143t-54 -95t-74.5 -63t-94.5 -46l-12 18q40 64 60.5 113t29 85.5t9 63.5t0.5 48h-464l-49 -26l-49 26v19h564l84 39z M488 726q-12 -86 -34 -143t-54 -95t-74.5 -63t-94.5 -46l-12 18q40 64 60.5 113t29 85.5t9 63.5t0.5 48l2 19l84 39zM538 159q10 -5 34 -14.5t54 -22t61.5 -26.5t57.5 -29t42.5 -30t15.5 -29q-2 -24 -16 -41.5t-33.5 -25.5t-41 -5.5t-39.5 17.5q-6 6 -29.5 26.5t-51 46 t-53.5 50.5t-37 40l-17 -21q-23 -25 -69.5 -47t-101 -40.5t-110 -33t-97.5 -25.5l-12 13q67 25 116.5 60.5t85 73.5t57 75.5t32.5 67.5h-1h-170l-49 -26l-49 26v20h507h11l78 36l78 -36v-20h-167h-61h-55q24 -5 39 -10t13 -16q-1 -4 -4 -11.5t-6.5 -16t-6.5 -15.5t-5 -11z " />
<glyph unicode="&#xaf43;" d="M560 379h136l98 66l98 -66v-20h-766l-59 -26l-59 26v20h396v203q44 -6 78 -18q15 -5 29 -12.5t25 -17.5t17.5 -23t6.5 -29v-103zM818 726q-12 -86 -34 -143t-54 -95t-74.5 -63t-94.5 -46l-12 18q40 64 60.5 113t29 85.5t9 63.5t0.5 48h-464l-49 -26l-49 26v19h564l84 39z M488 726q-12 -86 -34 -143t-54 -95t-74.5 -63t-94.5 -46l-12 18q40 64 60.5 113t29 85.5t9 63.5t0.5 48l2 19l84 39zM538 162q10 -5 34 -14t54 -21t61.5 -26t57.5 -28.5t42.5 -29.5t15.5 -29q-2 -24 -16 -41t-33.5 -25t-41 -5.5t-39.5 17.5q-6 5 -29.5 25.5t-51 45.5 t-53.5 49.5t-37 39.5l-17 -21q-23 -25 -69.5 -46.5t-101 -39.5t-110 -32.5t-97.5 -24.5l-12 13q67 25 116.5 51.5t85 55t57 57.5t32.5 59h-1h-170l-49 -25l-49 25v20h507h11l78 35l78 -35v-20h-167h-61h-55q29 -8 32 -15.5t-2 -14.5zM552 295q15 -17 5 -33t-31.5 -25.5 t-47.5 -10t-42 13.5q-6 5 -16 13.5t-22 19.5t-24 24t-22 28q35 15 70 18q30 2 65 -7t65 -41z" />
<glyph unicode="&#xaf48;" d="M370 149h-146v263q40 -6 73 -18q27 -11 50 -30.5t23 -51.5v-163zM840 478q29 0 49.5 -20.5t20.5 -49.5h-160v-369q0 -32 -24.5 -52t-53.5 -30q-34 -12 -78 -18v823l-55 6q-9 2 -9 10q0 9 10 9h1l209 -20v-326h28q9 17 25.5 27t36.5 10zM126 139l-59 -26l-59 26v20h423 q58 4 92.5 8t55 10t31.5 15t21.5 23.5t25.5 36.5t44 54l7 -10q9 -45 -20 -79q-13 -15 -35 -29t-58 -25t-87 -17.5t-121 -6.5h-261zM307 691q0 -84 -12 -158t-43 -134t-85.5 -102.5t-139.5 -63.5l-12 15q36 22 59 59t36.5 80.5t19 89.5t6.5 86.5t0 70.5t-1 42h-34l-50 -22 l-49 22v15h135l85 33zM530 691q0 -84 -7.5 -158t-33 -134t-75 -102.5t-134.5 -63.5l-13 15q27 19 44.5 55t27.5 79.5t14.5 90.5t5.5 88t0 72t-1 43h-34l-50 -22l-50 22v15h136l85 33z" />
<glyph unicode="&#xaf49;" d="M127 309l-59 -26l-59 26v20h266v213q40 -6 73 -18q27 -11 50 -30.5t23 -51.5v-113h11q46 3 77 6t51.5 7t33 9.5t21.5 13.5v397l-55 6q-9 2 -9 10q0 9 10 9h1l209 -20v-326h28q9 17 25.5 27t36.5 10q29 0 49.5 -20.5t20.5 -49.5h-160v-57q0 -32 -24.5 -52t-53.5 -30 q-34 -12 -78 -18v89q-37 -14 -91.5 -22.5t-135.5 -8.5h-261zM582 716q0 -68 -1 -118.5t-6.5 -88.5t-17 -65t-31.5 -48t-50 -38.5t-73 -34.5l-8 13q23 51 33.5 106t14 104.5t2.5 89.5t-1 61h-183h-120v19h304l69 39zM322 716q0 -68 -1 -118.5t-6.5 -88.5t-17 -65t-31.5 -48 t-50 -38.5t-73 -34.5l-8 13q23 51 33.5 106t14 104.5t2.5 89.5t-1 61h-73l-40 -26l-40 26v19h154l69 39zM757 50q0 -24 -13 -41.5t-32 -29.5t-41 -20t-41.5 -12.5t-33 -6.5t-14.5 -2v256h-294l-85 -38l-84 38v19h638v-163z" />
<glyph unicode="&#xaf50;" d="M127 309l-59 -26l-59 26v20h266v213q40 -6 73 -18q27 -11 50 -30.5t23 -51.5v-113h11q46 3 77 6t51.5 7t33 9.5t21.5 13.5v397l-55 6q-9 2 -9 10q0 9 10 9h1l209 -20v-326h28q9 17 25.5 27t36.5 10q29 0 49.5 -20.5t20.5 -49.5h-160v-7q0 -32 -24.5 -52t-53.5 -30 q-34 -12 -78 -18v39q-37 -14 -91.5 -22.5t-135.5 -8.5h-261zM582 716q0 -68 -1 -118.5t-6.5 -88.5t-17 -65t-31.5 -48t-50 -38.5t-73 -34.5l-8 13q23 51 33.5 106t14 104.5t2.5 89.5t-1 61h-183h-120v19h304l69 39zM322 716q0 -68 -1 -118.5t-6.5 -88.5t-17 -65t-31.5 -48 t-50 -38.5t-73 -34.5l-8 13q23 51 33.5 106t14 104.5t2.5 89.5t-1 61h-73l-40 -26l-40 26v19h154l69 39zM778 -42v-19h-557q-24 0 -36.5 9.5t-17.5 21.5q-6 13 -7 31v112h-30q-10 0 -10 10t10 10h482v110h-314l-84 -39l-84 39v19h470l84 39l84 -39v-148h-156h-287v-137 q0 -6 2 -10q4 -9 16 -9h210l112 53z" />
<glyph unicode="&#xaf5c;" d="M127 309l-59 -26l-59 26v20h266v213q40 -6 73 -18q27 -11 50 -30.5t23 -51.5v-113h11q46 3 77 6t51.5 7t33 9.5t21.5 13.5v397l-55 6q-9 2 -9 10q0 9 10 9h1l209 -20v-326h28q9 17 25.5 27t36.5 10q29 0 49.5 -20.5t20.5 -49.5h-160v-37q0 -32 -24.5 -52t-53.5 -30 q-34 -12 -78 -18v69q-37 -14 -91.5 -22.5t-135.5 -8.5h-261zM582 716q0 -68 -1 -118.5t-6.5 -88.5t-17 -65t-31.5 -48t-50 -38.5t-73 -34.5l-8 13q23 51 33.5 106t14 104.5t2.5 89.5t-1 61h-183h-120v19h304l69 39zM322 716q0 -68 -1 -118.5t-6.5 -88.5t-17 -65t-31.5 -48 t-50 -38.5t-73 -34.5l-8 13q23 51 33.5 106t14 104.5t2.5 89.5t-1 61h-73l-40 -26l-40 26v19h154l69 39zM686 165q15 -9 43 -26.5t55.5 -39.5t47 -46.5t18.5 -47.5q-2 -27 -17.5 -43t-36 -21t-41.5 1t-34 21q-5 7 -13 20.5t-18 30.5t-22 35t-25 33q-45 -57 -110.5 -102 t-146.5 -69l-11 15q23 13 42.5 27t35.5 28q-5 7 -11 21t-13.5 32t-16.5 37t-20 35l-15 -24q-23 -28 -55.5 -54t-70.5 -48t-79.5 -39.5t-81.5 -29.5l-12 15q69 37 110.5 85t64 95.5t30.5 89t10 66.5h-32q-10 0 -10 8q0 7 10 7h32h2h72q39 0 54.5 -10.5t19.5 -23.5 q4 -15 -4 -33q-3 -6 -4.5 -10t-3.5 -8.5t-4 -10.5t-6 -16q10 -6 23.5 -16t27.5 -23t28 -27.5t25 -28.5q15 29 23 57t11 53.5t3.5 46.5t0.5 35h-33q-10 0 -10 8q0 7 10 7h31h2h72q38 0 53 -12t18 -26q4 -17 -4 -38q-3 -8 -6 -16.5t-8 -19.5z" />
<glyph unicode="&#xaf5d;" d="M127 309l-59 -26l-59 26v20h266v213q40 -6 73 -18q27 -11 50 -30.5t23 -51.5v-113h11q46 3 77 6t51.5 7t33 9.5t21.5 13.5v397l-55 6q-9 2 -9 10q0 9 10 9h1l209 -20v-326h28q9 17 25.5 27t36.5 10q29 0 49.5 -20.5t20.5 -49.5h-160v-37q0 -32 -24.5 -52t-53.5 -30 q-34 -12 -78 -18v69q-37 -14 -91.5 -22.5t-135.5 -8.5h-261zM582 716q0 -68 -1 -118.5t-6.5 -88.5t-17 -65t-31.5 -48t-50 -38.5t-73 -34.5l-8 13q23 51 33.5 106t14 104.5t2.5 89.5t-1 61h-183h-120v19h304l69 39zM322 716q0 -68 -1 -118.5t-6.5 -88.5t-17 -65t-31.5 -48 t-50 -38.5t-73 -34.5l-8 13q23 51 33.5 106t14 104.5t2.5 89.5t-1 61h-73l-40 -26l-40 26v19h154l69 39zM558 300q47 -6 87.5 -22t70.5 -40.5t47 -56.5t17 -68q0 -39 -21 -71.5t-57 -56t-84.5 -36.5t-103.5 -13t-103.5 13t-84.5 36.5t-57 56t-21 71.5q0 44 24.5 79t63 59.5 t86 37.5t92.5 13q11 0 22 -0.5t22 -1.5zM514 -34q31 0 52.5 11.5t35 31.5t19.5 47t6 57q0 31 -6 59.5t-19.5 50.5t-35 35.5t-52.5 13.5q-32 0 -53.5 -13.5t-34.5 -35.5t-19 -50.5t-6 -59.5q0 -30 6 -57t19 -47t34.5 -31.5t53.5 -11.5z" />
<glyph unicode="&#xaf64;" horiz-adv-x="891" d="M126 139l-59 -26l-59 26v20h186v263q40 -6 73 -18q27 -11 50 -30.5t23 -51.5v-163h91l117 6v567l-55 6q-9 2 -9 10q0 9 10 9h1l189 -20v-296h44v321l-55 6q-9 2 -9 10q0 9 10 9h1l189 -20v-748q0 -32 -21 -51.5t-47 -30.5q-30 -12 -68 -18v489h-44v-329q0 -32 -21 -51.5 t-47 -30.5q-30 -12 -68 -18v166q-12 -2 -32 -3t-42.5 -1.5t-45.5 -1t-41 -0.5h-261zM307 691q0 -84 -12 -158t-43 -134t-85.5 -102.5t-139.5 -63.5l-12 15q36 22 59 59t36.5 80.5t19 89.5t6.5 86.5t0 70.5t-1 42h-34l-50 -22l-49 22v15h135l85 33zM530 691q0 -84 -7.5 -158 t-33 -134t-75 -102.5t-134.5 -63.5l-13 15q27 19 44.5 55t27.5 79.5t14.5 90.5t5.5 88t0 72t-1 43h-34l-50 -22l-50 22v15h136l85 33z" />
<glyph unicode="&#xaf65;" horiz-adv-x="891" d="M864 329q0 -32 -21 -51.5t-47 -30.5q-30 -12 -68 -18v259h-44v-149q0 -32 -21 -51.5t-47 -30.5q-30 -12 -68 -18v493l-55 6q-9 2 -9 10q0 9 10 9h1l189 -20v-216h44v241l-55 6q-9 2 -9 10q0 9 10 9h1l189 -20v-438zM350 299h81q51 4 83 7t53 8q17 4 20 6.5t-0.5 6.5 t-10 9.5t-8 15t5 23t28.5 33.5q39 -37 33 -65q-3 -12 -15.5 -23.5t-41 -20.5t-75 -14.5t-116.5 -5.5h-261l-59 -26l-59 26v20h196v223q40 -6 73 -18q27 -11 50 -30.5t23 -51.5v-123zM482 716q0 -68 -1 -118.5t-6.5 -88.5t-17 -65t-31.5 -48t-50 -38.5t-73 -34.5l-8 13 q23 51 33.5 106t14 104.5t2.5 89.5t-1 61h-183h-70v19h254l69 39zM262 716q0 -68 -1 -118.5t-6.5 -88.5t-17 -65t-31.5 -48t-50 -38.5t-73 -34.5l-8 13q23 51 33.5 106t14 104.5t2.5 89.5t-1 61h-23l-40 -26l-40 26v19h104l69 39zM857 50q0 -24 -13 -41.5t-32 -29.5t-41 -20 t-41.5 -12.5t-33 -6.5t-14.5 -2v256h-294l-85 -38l-84 38v19h638v-163z" />
<glyph unicode="&#xaf79;" horiz-adv-x="888" d="M864 359q0 -32 -21 -51.5t-47 -30.5q-30 -12 -68 -18v229h-44v-119q0 -32 -21 -51.5t-47 -30.5q-30 -12 -68 -18v463l-55 6q-9 2 -9 10q0 9 10 9h1l189 -20v-216h44v241l-55 6q-9 2 -9 10q0 9 10 9h1l189 -20v-408zM350 319h81q25 2 50 11t45 23.5t32 32t11 35.5 q-1 17 -5 25.5t-7.5 12.5t-5 6.5t2.5 7.5t15 15l33 30q18 -62 3 -110q-6 -21 -20.5 -40.5t-40 -34.5t-64 -24.5t-93.5 -9.5h-261l-59 -26l-59 26v20h196v223q40 -6 73 -18q27 -11 50 -30.5t23 -51.5v-123zM492 716q0 -68 -1 -117.5t-6.5 -86.5t-17 -63t-31.5 -46t-50 -36.5 t-73 -33.5l-8 13q23 51 33.5 104.5t14 101t2.5 86t-1 59.5h-183h-70v19h254l69 39zM262 716q0 -68 -1 -117.5t-6.5 -86.5t-17 -63t-31.5 -46t-50 -36.5t-73 -33.5l-8 13q23 51 33.5 104.5t14 101t2.5 86t-1 59.5h-23l-40 -26l-40 26v19h104l69 39zM628 300q47 -6 87.5 -22 t70.5 -40.5t47 -56.5t17 -68q0 -39 -21 -71.5t-57 -56t-84.5 -36.5t-103.5 -13t-103.5 13t-84.5 36.5t-57 56t-21 71.5q0 44 24.5 79t63 59.5t86 37.5t92.5 13q11 0 22 -0.5t22 -1.5zM584 -34q31 0 52.5 11.5t35 31.5t19.5 47t6 57q0 31 -6 59.5t-19.5 50.5t-35 35.5 t-52.5 13.5q-32 0 -53.5 -13.5t-34.5 -35.5t-19 -50.5t-6 -59.5q0 -30 6 -57t19 -47t34.5 -31.5t53.5 -11.5z" />
<glyph unicode="&#xaf80;" d="M126 139l-59 -26l-59 26v20h236v333q40 -6 73 -18q27 -11 50 -30.5t23 -51.5v-233h41q53 4 90.5 9.5t63 13t42 17.5t27.5 22v541l-55 6q-9 2 -9 10q0 9 10 9h1l209 -20v-728q0 -32 -24.5 -52t-53.5 -30q-34 -12 -78 -18v250q-35 -21 -98 -35.5t-169 -14.5h-261zM307 691 q0 -84 -12 -158t-43 -134t-85.5 -102.5t-139.5 -63.5l-12 15q36 22 59 59t36.5 80.5t19 89.5t6.5 86.5t0 70.5t-1 42h-34l-50 -22l-49 22v15h135l85 33zM580 691q0 -84 -7.5 -158t-33 -134t-75 -102.5t-134.5 -63.5l-13 15q27 19 44.5 55t27.5 79.5t14.5 90.5t5.5 88t0 72 t-1 43h-34l-50 -22l-50 22v15h136l85 33z" />
<glyph unicode="&#xaf84;" d="M127 309l-59 -26l-59 26v20h236v193q40 -6 73 -18q27 -11 50 -30.5t23 -51.5v-93h41q56 4 94 10t63 14t40 18.5t26 24.5v366l-55 6q-9 2 -9 10q0 9 10 9h1l209 -20v-506q0 -32 -24.5 -52t-53.5 -30q-34 -12 -78 -18v198q-35 -21 -98 -35.5t-169 -14.5h-261zM582 716 q0 -68 -1 -118.5t-6.5 -88.5t-17 -65t-31.5 -48t-50 -38.5t-73 -34.5l-8 13q23 51 33.5 106t14 104.5t2.5 89.5t-1 61h-183h-120v19h304l69 39zM322 716q0 -68 -1 -118.5t-6.5 -88.5t-17 -65t-31.5 -48t-50 -38.5t-73 -34.5l-8 13q23 51 33.5 106t14 104.5t2.5 89.5t-1 61 h-73l-40 -26l-40 26v19h154l69 39zM240 -48q-22 0 -33 9t-16 20q-6 13 -7 30v185h-50q-10 0 -10 10t10 10h122q19 1 36 -7.5t29.5 -22t20 -29.5t7.5 -31v-136q0 -6 2 -10q4 -9 16 -9h277l84 39l84 -39v-19h-572z" />
<glyph unicode="&#xaf88;" d="M127 309l-59 -26l-59 26v20h236v193q40 -6 73 -18q27 -11 50 -30.5t23 -51.5v-93h41q56 4 94 10t63 14t40 18.5t26 24.5v366l-55 6q-9 2 -9 10q0 9 10 9h1l209 -20v-366q0 -32 -24.5 -52t-53.5 -30q-34 -12 -78 -18v58q-35 -21 -98 -35.5t-169 -14.5h-261zM582 716 q0 -68 -1 -118.5t-6.5 -88.5t-17 -65t-31.5 -48t-50 -38.5t-73 -34.5l-8 13q23 51 33.5 106t14 104.5t2.5 89.5t-1 61h-183h-120v19h304l69 39zM322 716q0 -68 -1 -118.5t-6.5 -88.5t-17 -65t-31.5 -48t-50 -38.5t-73 -34.5l-8 13q23 51 33.5 106t14 104.5t2.5 89.5t-1 61 h-73l-40 -26l-40 26v19h154l69 39zM808 -42v-19h-557q-24 0 -36.5 9.5t-17.5 21.5q-6 13 -7 31v112h-30q-10 0 -10 10t10 10h482v110h-314l-84 -39l-84 39v19h470l84 39l84 -39v-148h-156h-287v-137q0 -6 2 -10q4 -9 16 -9h210l112 53z" />
<glyph unicode="&#xaf90;" d="M127 309l-59 -26l-59 26v20h236v193q40 -6 73 -18q27 -11 50 -30.5t23 -51.5v-93h41q56 4 94 10t63 14t40 18.5t26 24.5v366l-55 6q-9 2 -9 10q0 9 10 9h1l209 -20v-376q0 -32 -24.5 -52t-53.5 -30q-34 -12 -78 -18v68q-35 -21 -98 -35.5t-169 -14.5h-261zM582 716 q0 -68 -1 -118.5t-6.5 -88.5t-17 -65t-31.5 -48t-50 -38.5t-73 -34.5l-8 13q23 51 33.5 106t14 104.5t2.5 89.5t-1 61h-183h-120v19h304l69 39zM322 716q0 -68 -1 -118.5t-6.5 -88.5t-17 -65t-31.5 -48t-50 -38.5t-73 -34.5l-8 13q23 51 33.5 106t14 104.5t2.5 89.5t-1 61 h-73l-40 -26l-40 26v19h154l69 39zM832 -8q7 0 12 -4.5t5 -11.5t-5 -12t-12 -5h-497q-17 -15 -39.5 -24.5t-42.5 -14.5q-24 -6 -49 -9v320l-55 6q-4 0 -6.5 3t-2.5 6q0 10 10 10h1l209 -20h266l82 38l84 -39v-233zM360 203v-192q0 -10 -3 -19h279v211h-276z" />
<glyph unicode="&#xaf91;" d="M127 309l-59 -26l-59 26v20h236v193q40 -6 73 -18q27 -11 50 -30.5t23 -51.5v-93h41q56 4 94 10t63 14t40 18.5t26 24.5v366l-55 6q-9 2 -9 10q0 9 10 9h1l209 -20v-366q0 -32 -24.5 -52t-53.5 -30q-34 -12 -78 -18v58q-35 -21 -98 -35.5t-169 -14.5h-261zM582 716 q0 -68 -1 -118.5t-6.5 -88.5t-17 -65t-31.5 -48t-50 -38.5t-73 -34.5l-8 13q23 51 33.5 106t14 104.5t2.5 89.5t-1 61h-183h-120v19h304l69 39zM322 716q0 -68 -1 -118.5t-6.5 -88.5t-17 -65t-31.5 -48t-50 -38.5t-73 -34.5l-8 13q23 51 33.5 106t14 104.5t2.5 89.5t-1 61 h-73l-40 -26l-40 26v19h154l69 39zM801 272v-265q0 -32 -24.5 -52t-53.5 -30q-34 -12 -78 -18v48h-341q-17 -15 -39.5 -24.5t-42.5 -14.5q-24 -6 -49 -9v340l-55 6q-4 0 -6.5 3t-2.5 6q0 10 10 10h1l209 -20v-74h316v89l-55 6q-4 0 -6.5 3t-2.5 6q0 10 10 10h1zM645 -12v157 h-316v-138q0 -10 -3 -19h319z" />
<glyph unicode="&#xaf95;" d="M127 309l-59 -26l-59 26v20h236v193q40 -6 73 -18q27 -11 50 -30.5t23 -51.5v-93h41q56 4 94 10t63 14t40 18.5t26 24.5v366l-55 6q-9 2 -9 10q0 9 10 9h1l209 -20v-406q0 -32 -24.5 -52t-53.5 -30q-34 -12 -78 -18v98q-35 -21 -98 -35.5t-169 -14.5h-261zM582 716 q0 -68 -1 -118.5t-6.5 -88.5t-17 -65t-31.5 -48t-50 -38.5t-73 -34.5l-8 13q23 51 33.5 106t14 104.5t2.5 89.5t-1 61h-183h-120v19h304l69 39zM322 716q0 -68 -1 -118.5t-6.5 -88.5t-17 -65t-31.5 -48t-50 -38.5t-73 -34.5l-8 13q23 51 33.5 106t14 104.5t2.5 89.5t-1 61 h-73l-40 -26l-40 26v19h154l69 39zM578 300q47 -6 87.5 -22t70.5 -40.5t47 -56.5t17 -68q0 -39 -21 -71.5t-57 -56t-84.5 -36.5t-103.5 -13t-103.5 13t-84.5 36.5t-57 56t-21 71.5q0 44 24.5 79t63 59.5t86 37.5t92.5 13q11 0 22 -0.5t22 -1.5zM534 -34q31 0 52.5 11.5 t35 31.5t19.5 47t6 57q0 31 -6 59.5t-19.5 50.5t-35 35.5t-52.5 13.5q-32 0 -53.5 -13.5t-34.5 -35.5t-19 -50.5t-6 -59.5q0 -30 6 -57t19 -47t34.5 -31.5t53.5 -11.5z" />
<glyph unicode="&#xaf9c;" horiz-adv-x="885" d="M626 99h56l98 66l98 -66v-20h-766l-59 -26l-59 26v20h246v213q44 -6 78 -18q15 -5 29 -12.5t25 -17.5t17.5 -23t6.5 -29v-113h74v273q44 -6 78 -18q15 -5 29 -12.5t25 -17.5t17.5 -23t6.5 -29v-173zM815 706q0 -102 -4.5 -187.5t-29 -154t-76.5 -119t-147 -81.5l-12 18 q31 45 50 96t30 102.5t15.5 100.5t5 90t-0.5 71.5t-1 44.5h-464l-49 -26l-49 26v19h564l84 39zM445 706q0 -102 -4.5 -187.5t-29 -154t-76.5 -119t-147 -81.5l-12 18q31 45 50 96t30 102.5t15.5 100.5t5 90t-0.5 71.5t-1 44.5l2 19l84 39z" />
<glyph unicode="&#xafb8;" d="M818 726q0 -102 -4.5 -178.5t-29 -133.5t-76.5 -98t-147 -72l-12 18q46 67 67.5 137.5t28.5 131.5t5 108t-2 68h-454l-49 -26l-49 26v19h554l84 39zM498 726q0 -102 -4.5 -178.5t-29 -133.5t-76.5 -98t-147 -72l-12 18q46 67 67.5 137.5t28.5 131.5t5 108t-2 68l2 19 l84 39zM510 239v-200q0 -32 -24.5 -52t-53.5 -30q-34 -12 -78 -18v300h-228l-59 -26l-59 26v20h688l98 66l98 -66v-20h-382z" />
<glyph unicode="&#xafb9;" d="M540 369v-60q0 -32 -24.5 -52t-53.5 -30q-34 -12 -78 -18v160h-258l-59 -26l-59 26v20h688l98 66l98 -66v-20h-352zM818 726q-12 -86 -34 -143t-54 -95t-74.5 -63t-94.5 -46l-12 18q40 64 60.5 113t29 85.5t9 63.5t0.5 48h-464l-49 -26l-49 26v19h564l84 39zM488 726 q-12 -86 -34 -143t-54 -95t-74.5 -63t-94.5 -46l-12 18q40 64 60.5 113t29 85.5t9 63.5t0.5 48l2 19l84 39zM797 50q0 -24 -13 -41.5t-32 -29.5t-41 -20t-41.5 -12.5t-33 -6.5t-14.5 -2v256h-354l-85 -38l-84 38v19h698v-163z" />
</font>
</defs>
</svg>
